<?xml version="1.0" encoding="utf-8" standalone="no"?>
<!DOCTYPE svg PUBLIC "-//W3C//DTD SVG 1.1//EN"
  "http://www.w3.org/Graphics/SVG/1.1/DTD/svg11.dtd">
<svg xmlns:xlink="http://www.w3.org/1999/xlink" width="720pt" height="360pt" viewBox="0 0 720 360" xmlns="http://www.w3.org/2000/svg" version="1.1">
 <metadata>
  <rdf:RDF xmlns:dc="http://purl.org/dc/elements/1.1/" xmlns:cc="http://creativecommons.org/ns#" xmlns:rdf="http://www.w3.org/1999/02/22-rdf-syntax-ns#">
   <cc:Work>
    <dc:type rdf:resource="http://purl.org/dc/dcmitype/StillImage"/>
    <dc:date>2025-06-28T14:11:17.507688</dc:date>
    <dc:format>image/svg+xml</dc:format>
    <dc:creator>
     <cc:Agent>
      <dc:title>Matplotlib v3.8.4, https://matplotlib.org/</dc:title>
     </cc:Agent>
    </dc:creator>
   </cc:Work>
  </rdf:RDF>
 </metadata>
 <defs>
  <style type="text/css">*{stroke-linejoin: round; stroke-linecap: butt}</style>
 </defs>
 <g id="figure_1">
  <g id="patch_1">
   <path d="M 0 360 
L 720 360 
L 720 0 
L 0 0 
z
" style="fill: #ffffff"/>
  </g>
  <g id="axes_1">
   <g id="patch_2">
    <path d="M 90 320.4 
L 648 320.4 
L 648 43.2 
L 90 43.2 
z
" style="fill: #ffffff"/>
   </g>
   <g id="matplotlib.axis_1">
    <g id="xtick_1">
     <g id="line2d_1">
      <defs>
       <path id="m253df5c87b" d="M 0 0 
L 0 3.5 
" style="stroke: #000000; stroke-width: 0.8"/>
      </defs>
      <g>
       <use xlink:href="#m253df5c87b" x="115.363636" y="320.4" style="stroke: #000000; stroke-width: 0.8"/>
      </g>
     </g>
     <g id="text_1">
      <!-- 0 -->
      <g transform="translate(110.591761 338.797656) scale(0.15 -0.15)">
       <defs>
        <path id="DejaVuSans-30" d="M 2034 4250 
Q 1547 4250 1301 3770 
Q 1056 3291 1056 2328 
Q 1056 1369 1301 889 
Q 1547 409 2034 409 
Q 2525 409 2770 889 
Q 3016 1369 3016 2328 
Q 3016 3291 2770 3770 
Q 2525 4250 2034 4250 
z
M 2034 4750 
Q 2819 4750 3233 4129 
Q 3647 3509 3647 2328 
Q 3647 1150 3233 529 
Q 2819 -91 2034 -91 
Q 1250 -91 836 529 
Q 422 1150 422 2328 
Q 422 3509 836 4129 
Q 1250 4750 2034 4750 
z
" transform="scale(0.015625)"/>
       </defs>
       <use xlink:href="#DejaVuSans-30"/>
      </g>
     </g>
    </g>
    <g id="xtick_2">
     <g id="line2d_2">
      <g>
       <use xlink:href="#m253df5c87b" x="200.191852" y="320.4" style="stroke: #000000; stroke-width: 0.8"/>
      </g>
     </g>
     <g id="text_2">
      <!-- 50 -->
      <g transform="translate(190.648102 338.797656) scale(0.15 -0.15)">
       <defs>
        <path id="DejaVuSans-35" d="M 691 4666 
L 3169 4666 
L 3169 4134 
L 1269 4134 
L 1269 2991 
Q 1406 3038 1543 3061 
Q 1681 3084 1819 3084 
Q 2600 3084 3056 2656 
Q 3513 2228 3513 1497 
Q 3513 744 3044 326 
Q 2575 -91 1722 -91 
Q 1428 -91 1123 -41 
Q 819 9 494 109 
L 494 744 
Q 775 591 1075 516 
Q 1375 441 1709 441 
Q 2250 441 2565 725 
Q 2881 1009 2881 1497 
Q 2881 1984 2565 2268 
Q 2250 2553 1709 2553 
Q 1456 2553 1204 2497 
Q 953 2441 691 2322 
L 691 4666 
z
" transform="scale(0.015625)"/>
       </defs>
       <use xlink:href="#DejaVuSans-35"/>
       <use xlink:href="#DejaVuSans-30" x="63.623047"/>
      </g>
     </g>
    </g>
    <g id="xtick_3">
     <g id="line2d_3">
      <g>
       <use xlink:href="#m253df5c87b" x="285.020067" y="320.4" style="stroke: #000000; stroke-width: 0.8"/>
      </g>
     </g>
     <g id="text_3">
      <!-- 100 -->
      <g transform="translate(270.704442 338.797656) scale(0.15 -0.15)">
       <defs>
        <path id="DejaVuSans-31" d="M 794 531 
L 1825 531 
L 1825 4091 
L 703 3866 
L 703 4441 
L 1819 4666 
L 2450 4666 
L 2450 531 
L 3481 531 
L 3481 0 
L 794 0 
L 794 531 
z
" transform="scale(0.015625)"/>
       </defs>
       <use xlink:href="#DejaVuSans-31"/>
       <use xlink:href="#DejaVuSans-30" x="63.623047"/>
       <use xlink:href="#DejaVuSans-30" x="127.246094"/>
      </g>
     </g>
    </g>
    <g id="xtick_4">
     <g id="line2d_4">
      <g>
       <use xlink:href="#m253df5c87b" x="369.848282" y="320.4" style="stroke: #000000; stroke-width: 0.8"/>
      </g>
     </g>
     <g id="text_4">
      <!-- 150 -->
      <g transform="translate(355.532657 338.797656) scale(0.15 -0.15)">
       <use xlink:href="#DejaVuSans-31"/>
       <use xlink:href="#DejaVuSans-35" x="63.623047"/>
       <use xlink:href="#DejaVuSans-30" x="127.246094"/>
      </g>
     </g>
    </g>
    <g id="xtick_5">
     <g id="line2d_5">
      <g>
       <use xlink:href="#m253df5c87b" x="454.676497" y="320.4" style="stroke: #000000; stroke-width: 0.8"/>
      </g>
     </g>
     <g id="text_5">
      <!-- 200 -->
      <g transform="translate(440.360872 338.797656) scale(0.15 -0.15)">
       <defs>
        <path id="DejaVuSans-32" d="M 1228 531 
L 3431 531 
L 3431 0 
L 469 0 
L 469 531 
Q 828 903 1448 1529 
Q 2069 2156 2228 2338 
Q 2531 2678 2651 2914 
Q 2772 3150 2772 3378 
Q 2772 3750 2511 3984 
Q 2250 4219 1831 4219 
Q 1534 4219 1204 4116 
Q 875 4013 500 3803 
L 500 4441 
Q 881 4594 1212 4672 
Q 1544 4750 1819 4750 
Q 2544 4750 2975 4387 
Q 3406 4025 3406 3419 
Q 3406 3131 3298 2873 
Q 3191 2616 2906 2266 
Q 2828 2175 2409 1742 
Q 1991 1309 1228 531 
z
" transform="scale(0.015625)"/>
       </defs>
       <use xlink:href="#DejaVuSans-32"/>
       <use xlink:href="#DejaVuSans-30" x="63.623047"/>
       <use xlink:href="#DejaVuSans-30" x="127.246094"/>
      </g>
     </g>
    </g>
    <g id="xtick_6">
     <g id="line2d_6">
      <g>
       <use xlink:href="#m253df5c87b" x="539.504713" y="320.4" style="stroke: #000000; stroke-width: 0.8"/>
      </g>
     </g>
     <g id="text_6">
      <!-- 250 -->
      <g transform="translate(525.189088 338.797656) scale(0.15 -0.15)">
       <use xlink:href="#DejaVuSans-32"/>
       <use xlink:href="#DejaVuSans-35" x="63.623047"/>
       <use xlink:href="#DejaVuSans-30" x="127.246094"/>
      </g>
     </g>
    </g>
    <g id="xtick_7">
     <g id="line2d_7">
      <g>
       <use xlink:href="#m253df5c87b" x="624.332928" y="320.4" style="stroke: #000000; stroke-width: 0.8"/>
      </g>
     </g>
     <g id="text_7">
      <!-- 300 -->
      <g transform="translate(610.017303 338.797656) scale(0.15 -0.15)">
       <defs>
        <path id="DejaVuSans-33" d="M 2597 2516 
Q 3050 2419 3304 2112 
Q 3559 1806 3559 1356 
Q 3559 666 3084 287 
Q 2609 -91 1734 -91 
Q 1441 -91 1130 -33 
Q 819 25 488 141 
L 488 750 
Q 750 597 1062 519 
Q 1375 441 1716 441 
Q 2309 441 2620 675 
Q 2931 909 2931 1356 
Q 2931 1769 2642 2001 
Q 2353 2234 1838 2234 
L 1294 2234 
L 1294 2753 
L 1863 2753 
Q 2328 2753 2575 2939 
Q 2822 3125 2822 3475 
Q 2822 3834 2567 4026 
Q 2313 4219 1838 4219 
Q 1578 4219 1281 4162 
Q 984 4106 628 3988 
L 628 4550 
Q 988 4650 1302 4700 
Q 1616 4750 1894 4750 
Q 2613 4750 3031 4423 
Q 3450 4097 3450 3541 
Q 3450 3153 3228 2886 
Q 3006 2619 2597 2516 
z
" transform="scale(0.015625)"/>
       </defs>
       <use xlink:href="#DejaVuSans-33"/>
       <use xlink:href="#DejaVuSans-30" x="63.623047"/>
       <use xlink:href="#DejaVuSans-30" x="127.246094"/>
      </g>
     </g>
    </g>
    <g id="text_8">
     <!-- Time-steps -->
     <g transform="translate(327.813281 357.314844) scale(0.15 -0.15)">
      <defs>
       <path id="DejaVuSans-54" d="M -19 4666 
L 3928 4666 
L 3928 4134 
L 2272 4134 
L 2272 0 
L 1638 0 
L 1638 4134 
L -19 4134 
L -19 4666 
z
" transform="scale(0.015625)"/>
       <path id="DejaVuSans-69" d="M 603 3500 
L 1178 3500 
L 1178 0 
L 603 0 
L 603 3500 
z
M 603 4863 
L 1178 4863 
L 1178 4134 
L 603 4134 
L 603 4863 
z
" transform="scale(0.015625)"/>
       <path id="DejaVuSans-6d" d="M 3328 2828 
Q 3544 3216 3844 3400 
Q 4144 3584 4550 3584 
Q 5097 3584 5394 3201 
Q 5691 2819 5691 2113 
L 5691 0 
L 5113 0 
L 5113 2094 
Q 5113 2597 4934 2840 
Q 4756 3084 4391 3084 
Q 3944 3084 3684 2787 
Q 3425 2491 3425 1978 
L 3425 0 
L 2847 0 
L 2847 2094 
Q 2847 2600 2669 2842 
Q 2491 3084 2119 3084 
Q 1678 3084 1418 2786 
Q 1159 2488 1159 1978 
L 1159 0 
L 581 0 
L 581 3500 
L 1159 3500 
L 1159 2956 
Q 1356 3278 1631 3431 
Q 1906 3584 2284 3584 
Q 2666 3584 2933 3390 
Q 3200 3197 3328 2828 
z
" transform="scale(0.015625)"/>
       <path id="DejaVuSans-65" d="M 3597 1894 
L 3597 1613 
L 953 1613 
Q 991 1019 1311 708 
Q 1631 397 2203 397 
Q 2534 397 2845 478 
Q 3156 559 3463 722 
L 3463 178 
Q 3153 47 2828 -22 
Q 2503 -91 2169 -91 
Q 1331 -91 842 396 
Q 353 884 353 1716 
Q 353 2575 817 3079 
Q 1281 3584 2069 3584 
Q 2775 3584 3186 3129 
Q 3597 2675 3597 1894 
z
M 3022 2063 
Q 3016 2534 2758 2815 
Q 2500 3097 2075 3097 
Q 1594 3097 1305 2825 
Q 1016 2553 972 2059 
L 3022 2063 
z
" transform="scale(0.015625)"/>
       <path id="DejaVuSans-2d" d="M 313 2009 
L 1997 2009 
L 1997 1497 
L 313 1497 
L 313 2009 
z
" transform="scale(0.015625)"/>
       <path id="DejaVuSans-73" d="M 2834 3397 
L 2834 2853 
Q 2591 2978 2328 3040 
Q 2066 3103 1784 3103 
Q 1356 3103 1142 2972 
Q 928 2841 928 2578 
Q 928 2378 1081 2264 
Q 1234 2150 1697 2047 
L 1894 2003 
Q 2506 1872 2764 1633 
Q 3022 1394 3022 966 
Q 3022 478 2636 193 
Q 2250 -91 1575 -91 
Q 1294 -91 989 -36 
Q 684 19 347 128 
L 347 722 
Q 666 556 975 473 
Q 1284 391 1588 391 
Q 1994 391 2212 530 
Q 2431 669 2431 922 
Q 2431 1156 2273 1281 
Q 2116 1406 1581 1522 
L 1381 1569 
Q 847 1681 609 1914 
Q 372 2147 372 2553 
Q 372 3047 722 3315 
Q 1072 3584 1716 3584 
Q 2034 3584 2315 3537 
Q 2597 3491 2834 3397 
z
" transform="scale(0.015625)"/>
       <path id="DejaVuSans-74" d="M 1172 4494 
L 1172 3500 
L 2356 3500 
L 2356 3053 
L 1172 3053 
L 1172 1153 
Q 1172 725 1289 603 
Q 1406 481 1766 481 
L 2356 481 
L 2356 0 
L 1766 0 
Q 1100 0 847 248 
Q 594 497 594 1153 
L 594 3053 
L 172 3053 
L 172 3500 
L 594 3500 
L 594 4494 
L 1172 4494 
z
" transform="scale(0.015625)"/>
       <path id="DejaVuSans-70" d="M 1159 525 
L 1159 -1331 
L 581 -1331 
L 581 3500 
L 1159 3500 
L 1159 2969 
Q 1341 3281 1617 3432 
Q 1894 3584 2278 3584 
Q 2916 3584 3314 3078 
Q 3713 2572 3713 1747 
Q 3713 922 3314 415 
Q 2916 -91 2278 -91 
Q 1894 -91 1617 61 
Q 1341 213 1159 525 
z
M 3116 1747 
Q 3116 2381 2855 2742 
Q 2594 3103 2138 3103 
Q 1681 3103 1420 2742 
Q 1159 2381 1159 1747 
Q 1159 1113 1420 752 
Q 1681 391 2138 391 
Q 2594 391 2855 752 
Q 3116 1113 3116 1747 
z
" transform="scale(0.015625)"/>
      </defs>
      <use xlink:href="#DejaVuSans-54"/>
      <use xlink:href="#DejaVuSans-69" x="57.958984"/>
      <use xlink:href="#DejaVuSans-6d" x="85.742188"/>
      <use xlink:href="#DejaVuSans-65" x="183.154297"/>
      <use xlink:href="#DejaVuSans-2d" x="244.677734"/>
      <use xlink:href="#DejaVuSans-73" x="280.761719"/>
      <use xlink:href="#DejaVuSans-74" x="332.861328"/>
      <use xlink:href="#DejaVuSans-65" x="372.070312"/>
      <use xlink:href="#DejaVuSans-70" x="433.59375"/>
      <use xlink:href="#DejaVuSans-73" x="497.070312"/>
     </g>
    </g>
   </g>
   <g id="matplotlib.axis_2">
    <g id="ytick_1">
     <g id="line2d_8">
      <defs>
       <path id="m250220751a" d="M 0 0 
L -3.5 0 
" style="stroke: #000000; stroke-width: 0.8"/>
      </defs>
      <g>
       <use xlink:href="#m250220751a" x="90" y="309.608915" style="stroke: #000000; stroke-width: 0.8"/>
      </g>
     </g>
     <g id="text_9">
      <!-- 0 -->
      <g transform="translate(73.45625 315.307743) scale(0.15 -0.15)">
       <use xlink:href="#DejaVuSans-30"/>
      </g>
     </g>
    </g>
    <g id="ytick_2">
     <g id="line2d_9">
      <g>
       <use xlink:href="#m250220751a" x="90" y="256.99774" style="stroke: #000000; stroke-width: 0.8"/>
      </g>
     </g>
     <g id="text_10">
      <!-- 1 -->
      <g transform="translate(73.45625 262.696568) scale(0.15 -0.15)">
       <use xlink:href="#DejaVuSans-31"/>
      </g>
     </g>
    </g>
    <g id="ytick_3">
     <g id="line2d_10">
      <g>
       <use xlink:href="#m250220751a" x="90" y="204.386564" style="stroke: #000000; stroke-width: 0.8"/>
      </g>
     </g>
     <g id="text_11">
      <!-- 2 -->
      <g transform="translate(73.45625 210.085392) scale(0.15 -0.15)">
       <use xlink:href="#DejaVuSans-32"/>
      </g>
     </g>
    </g>
    <g id="ytick_4">
     <g id="line2d_11">
      <g>
       <use xlink:href="#m250220751a" x="90" y="151.775389" style="stroke: #000000; stroke-width: 0.8"/>
      </g>
     </g>
     <g id="text_12">
      <!-- 3 -->
      <g transform="translate(73.45625 157.474217) scale(0.15 -0.15)">
       <use xlink:href="#DejaVuSans-33"/>
      </g>
     </g>
    </g>
    <g id="ytick_5">
     <g id="line2d_12">
      <g>
       <use xlink:href="#m250220751a" x="90" y="99.164213" style="stroke: #000000; stroke-width: 0.8"/>
      </g>
     </g>
     <g id="text_13">
      <!-- 4 -->
      <g transform="translate(73.45625 104.863041) scale(0.15 -0.15)">
       <defs>
        <path id="DejaVuSans-34" d="M 2419 4116 
L 825 1625 
L 2419 1625 
L 2419 4116 
z
M 2253 4666 
L 3047 4666 
L 3047 1625 
L 3713 1625 
L 3713 1100 
L 3047 1100 
L 3047 0 
L 2419 0 
L 2419 1100 
L 313 1100 
L 313 1709 
L 2253 4666 
z
" transform="scale(0.015625)"/>
       </defs>
       <use xlink:href="#DejaVuSans-34"/>
      </g>
     </g>
    </g>
    <g id="ytick_6">
     <g id="line2d_13">
      <g>
       <use xlink:href="#m250220751a" x="90" y="46.553038" style="stroke: #000000; stroke-width: 0.8"/>
      </g>
     </g>
     <g id="text_14">
      <!-- 5 -->
      <g transform="translate(73.45625 52.251866) scale(0.15 -0.15)">
       <use xlink:href="#DejaVuSans-35"/>
      </g>
     </g>
    </g>
    <g id="text_15">
     <!-- Error -->
     <g transform="translate(66.336719 200.077734) rotate(-90) scale(0.15 -0.15)">
      <defs>
       <path id="DejaVuSans-45" d="M 628 4666 
L 3578 4666 
L 3578 4134 
L 1259 4134 
L 1259 2753 
L 3481 2753 
L 3481 2222 
L 1259 2222 
L 1259 531 
L 3634 531 
L 3634 0 
L 628 0 
L 628 4666 
z
" transform="scale(0.015625)"/>
       <path id="DejaVuSans-72" d="M 2631 2963 
Q 2534 3019 2420 3045 
Q 2306 3072 2169 3072 
Q 1681 3072 1420 2755 
Q 1159 2438 1159 1844 
L 1159 0 
L 581 0 
L 581 3500 
L 1159 3500 
L 1159 2956 
Q 1341 3275 1631 3429 
Q 1922 3584 2338 3584 
Q 2397 3584 2469 3576 
Q 2541 3569 2628 3553 
L 2631 2963 
z
" transform="scale(0.015625)"/>
       <path id="DejaVuSans-6f" d="M 1959 3097 
Q 1497 3097 1228 2736 
Q 959 2375 959 1747 
Q 959 1119 1226 758 
Q 1494 397 1959 397 
Q 2419 397 2687 759 
Q 2956 1122 2956 1747 
Q 2956 2369 2687 2733 
Q 2419 3097 1959 3097 
z
M 1959 3584 
Q 2709 3584 3137 3096 
Q 3566 2609 3566 1747 
Q 3566 888 3137 398 
Q 2709 -91 1959 -91 
Q 1206 -91 779 398 
Q 353 888 353 1747 
Q 353 2609 779 3096 
Q 1206 3584 1959 3584 
z
" transform="scale(0.015625)"/>
      </defs>
      <use xlink:href="#DejaVuSans-45"/>
      <use xlink:href="#DejaVuSans-72" x="63.183594"/>
      <use xlink:href="#DejaVuSans-72" x="102.546875"/>
      <use xlink:href="#DejaVuSans-6f" x="141.410156"/>
      <use xlink:href="#DejaVuSans-72" x="202.591797"/>
     </g>
    </g>
   </g>
   <g id="line2d_14">
    <path d="M 115.363636 55.8 
L 117.060201 116.572454 
L 118.756765 256.201706 
L 120.453329 295.311519 
L 122.149894 284.328789 
L 123.846458 285.470022 
L 125.543022 293.468123 
L 127.239587 282.847806 
L 128.936151 298.701585 
L 130.632715 301.068575 
L 132.329279 292.856385 
L 134.025844 295.289137 
L 135.722408 298.005942 
L 137.418972 304.499315 
L 139.115537 302.592862 
L 140.812101 297.147908 
L 142.508665 294.600867 
L 144.20523 304.929836 
L 145.901794 304.440033 
L 147.598358 298.918343 
L 149.294922 298.588104 
L 150.991487 296.632741 
L 152.688051 296.96995 
L 154.384615 294.035855 
L 156.08118 289.293403 
L 157.777744 289.71212 
L 159.474308 292.334871 
L 161.170873 295.19329 
L 162.867437 299.163848 
L 164.564001 296.291208 
L 166.260566 297.82503 
L 167.95713 297.348116 
L 169.653694 300.73898 
L 171.350258 294.677135 
L 173.046823 291.403495 
L 174.743387 287.076408 
L 176.439951 279.05187 
L 178.136516 288.3851 
L 179.83308 289.756797 
L 181.529644 293.514049 
L 183.226209 286.344601 
L 184.922773 284.148042 
L 186.619337 297.368272 
L 188.315901 296.752926 
L 190.012466 291.940873 
L 191.70903 293.676809 
L 193.405594 302.358923 
L 195.102159 284.69453 
L 196.798723 286.793467 
L 198.495287 299.981549 
L 200.191852 305.015731 
L 201.888416 300.542514 
L 203.58498 299.014426 
L 205.281545 290.792775 
L 206.978109 293.629735 
L 208.674673 295.926729 
L 210.371237 299.229001 
L 212.067802 293.740268 
L 213.764366 295.581433 
L 215.46093 298.032018 
L 217.157495 297.552304 
L 218.854059 295.410409 
L 220.550623 297.679132 
L 222.247188 296.830535 
L 223.943752 298.884491 
L 225.640316 302.728252 
L 227.336881 301.706294 
L 229.033445 301.132611 
L 230.730009 302.53993 
L 232.426573 296.065544 
L 234.123138 302.925277 
L 235.819702 302.276886 
L 237.516266 298.458478 
L 239.212831 296.908742 
L 240.909395 290.223201 
L 242.605959 274.107846 
L 244.302524 282.234556 
L 245.999088 284.191991 
L 247.695652 300.274074 
L 249.392216 304.045897 
L 251.088781 303.529812 
L 252.785345 301.715627 
L 254.481909 289.269992 
L 256.178474 289.137976 
L 257.875038 286.54629 
L 259.571602 289.742146 
L 261.268167 292.463271 
L 262.964731 297.110344 
L 264.661295 298.852045 
L 266.35786 299.38115 
L 268.054424 286.975663 
L 269.750988 293.543784 
L 273.144117 300.597098 
L 274.840681 305.310623 
L 276.537245 300.951619 
L 278.23381 298.55744 
L 279.930374 295.050397 
L 281.626938 282.535316 
L 283.323503 290.211609 
L 285.020067 298.725138 
L 286.716631 298.444781 
L 288.413196 300.685924 
L 290.10976 302.567837 
L 291.806324 300.995357 
L 293.502888 297.828668 
L 295.199453 301.781378 
L 296.896017 300.251591 
L 298.592581 298.275142 
L 300.289146 303.562672 
L 301.98571 294.643587 
L 303.682274 289.655446 
L 305.378839 292.388271 
L 307.075403 293.828452 
L 308.771967 290.728932 
L 310.468531 294.058703 
L 312.165096 291.852509 
L 313.86166 295.030769 
L 315.558224 294.078985 
L 317.254789 295.687693 
L 318.951353 293.905737 
L 320.647917 301.224987 
L 322.344482 300.579378 
L 324.041046 290.807206 
L 325.73761 289.779201 
L 327.434175 295.553092 
L 329.130739 305.744564 
L 330.827303 307.221203 
L 332.523867 306.217157 
L 334.220432 299.745769 
L 335.916996 296.037153 
L 337.61356 293.553921 
L 339.310125 293.021098 
L 341.006689 288.135183 
L 342.703253 292.638451 
L 344.399818 302.83025 
L 346.096382 298.864648 
L 347.792946 301.920858 
L 349.48951 303.894458 
L 351.186075 307.521561 
L 352.882639 301.942723 
L 354.579203 301.467769 
L 356.275768 296.751078 
L 357.972332 297.229833 
L 359.668896 300.978739 
L 361.365461 297.199431 
L 364.758589 295.961598 
L 366.455154 304.077295 
L 368.151718 296.225109 
L 369.848282 287.3966 
L 371.544846 293.212764 
L 373.241411 298.061305 
L 374.937975 300.772866 
L 376.634539 300.894857 
L 378.331104 292.63413 
L 380.027668 291.60579 
L 381.724232 298.438742 
L 383.420797 297.233459 
L 385.117361 300.357101 
L 386.813925 303.851906 
L 388.51049 296.942812 
L 390.207054 296.923695 
L 391.903618 301.662618 
L 393.600182 299.618624 
L 395.296747 300.199314 
L 396.993311 294.058663 
L 398.689875 296.767369 
L 400.38644 301.526081 
L 402.083004 292.812575 
L 403.779568 286.838154 
L 405.476133 295.034979 
L 407.172697 301.494327 
L 408.869261 297.909616 
L 410.565825 296.536093 
L 412.26239 296.07878 
L 413.958954 298.190935 
L 415.655518 287.993034 
L 417.352083 297.068462 
L 419.048647 292.747642 
L 420.745211 296.141762 
L 422.441776 302.813122 
L 424.13834 303.683453 
L 425.834904 296.481365 
L 427.531469 294.132189 
L 429.228033 298.998592 
L 430.924597 300.516241 
L 432.621161 297.166731 
L 434.317726 299.828987 
L 436.01429 297.92813 
L 437.710854 292.933407 
L 439.407419 295.988338 
L 441.103983 288.169125 
L 442.800547 295.586054 
L 444.497112 298.399783 
L 446.193676 297.139405 
L 447.89024 305.440588 
L 449.586804 302.141582 
L 451.283369 287.306426 
L 452.979933 286.742913 
L 454.676497 297.350933 
L 456.373062 305.155993 
L 458.069626 301.306789 
L 459.76619 301.99253 
L 461.462755 297.996809 
L 463.159319 294.765466 
L 464.855883 304.337051 
L 466.552448 302.339848 
L 468.249012 295.608631 
L 469.945576 299.429415 
L 471.64214 297.568687 
L 473.338705 294.506501 
L 475.035269 295.733673 
L 476.731833 297.405986 
L 478.428398 299.874553 
L 480.124962 305.328017 
L 481.821526 297.617621 
L 483.518091 299.847909 
L 485.214655 298.05401 
L 486.911219 298.934323 
L 488.607784 302.08943 
L 490.304348 296.35942 
L 492.000912 301.920198 
L 493.697476 304.325488 
L 495.394041 298.789691 
L 497.090605 303.59295 
L 498.787169 301.828919 
L 500.483734 294.849649 
L 502.180298 297.104828 
L 503.876862 301.345138 
L 505.573427 300.634323 
L 507.269991 298.90766 
L 508.966555 297.725857 
L 510.663119 297.567788 
L 512.359684 300.62217 
L 514.056248 299.936915 
L 515.752812 300.849337 
L 517.449377 302.531068 
L 519.145941 301.87832 
L 520.842505 302.418561 
L 522.53907 296.58526 
L 524.235634 304.158642 
L 525.932198 296.794511 
L 527.628763 298.529095 
L 529.325327 293.284266 
L 531.021891 291.751079 
L 532.718455 304.237163 
L 534.41502 302.515035 
L 536.111584 290.469841 
L 537.808148 289.340864 
L 539.504713 294.913226 
L 541.201277 289.093792 
L 542.897841 285.87454 
L 544.594406 288.041285 
L 547.987534 305.466477 
L 549.684099 292.572048 
L 551.380663 285.207075 
L 553.077227 291.925492 
L 554.773791 302.857941 
L 556.470356 293.476626 
L 559.863484 300.596155 
L 561.560049 297.766921 
L 563.256613 301.922999 
L 564.953177 300.362545 
L 566.649742 301.622693 
L 568.346306 296.166449 
L 570.04287 292.490661 
L 571.739434 292.63173 
L 573.435999 297.73958 
L 575.132563 299.801005 
L 576.829127 299.355821 
L 578.525692 297.715467 
L 580.222256 301.172035 
L 581.91882 298.692123 
L 583.615385 295.445648 
L 585.311949 292.753233 
L 587.008513 287.450539 
L 588.705078 297.653298 
L 590.401642 299.167283 
L 592.098206 288.00843 
L 593.79477 283.113618 
L 595.491335 289.665283 
L 597.187899 293.944509 
L 598.884463 295.370742 
L 600.581028 288.78371 
L 602.277592 291.81586 
L 603.974156 301.334607 
L 605.670721 303.179224 
L 607.367285 300.141004 
L 609.063849 295.022572 
L 610.760413 301.056138 
L 612.456978 293.032981 
L 614.153542 289.06987 
L 615.850106 291.397303 
L 617.546671 297.648491 
L 619.243235 296.066203 
L 620.939799 299.875652 
L 622.636364 294.28428 
L 622.636364 294.28428 
" clip-path="url(#pe7c7237127)" style="fill: none; stroke-dasharray: 5.55,2.4; stroke-dashoffset: 0; stroke: #1f77b4; stroke-width: 1.5"/>
   </g>
   <g id="line2d_15">
    <path d="M 115.363636 123.863052 
L 117.060201 150.305756 
L 118.756765 266.395399 
L 120.453329 294.434543 
L 122.149894 285.11523 
L 123.846458 287.96019 
L 125.543022 295.813164 
L 127.239587 283.324195 
L 128.936151 298.927579 
L 130.632715 301.967749 
L 132.329279 294.063524 
L 134.025844 295.489304 
L 135.722408 297.634095 
L 137.418972 304.732279 
L 139.115537 302.754938 
L 140.812101 297.212472 
L 142.508665 294.86887 
L 144.20523 305.071302 
L 145.901794 304.406896 
L 147.598358 299.270477 
L 149.294922 299.027301 
L 150.991487 296.644423 
L 152.688051 296.77247 
L 154.384615 294.129371 
L 156.08118 290.030264 
L 157.777744 290.159073 
L 159.474308 292.133649 
L 161.170873 295.562924 
L 162.867437 300.077157 
L 164.564001 297.039499 
L 166.260566 298.674943 
L 167.95713 298.074966 
L 169.653694 301.11982 
L 171.350258 294.228576 
L 174.743387 287.195757 
L 176.439951 278.866343 
L 178.136516 288.521729 
L 179.83308 289.857093 
L 181.529644 294.090786 
L 183.226209 286.14849 
L 184.922773 284.507945 
L 186.619337 298.57673 
L 188.315901 297.343357 
L 190.012466 292.705891 
L 191.70903 294.117809 
L 193.405594 303.044216 
L 195.102159 286.139021 
L 196.798723 287.844989 
L 198.495287 300.818524 
L 200.191852 305.519981 
L 201.888416 301.381757 
L 203.58498 299.878178 
L 205.281545 291.189946 
L 206.978109 293.998818 
L 208.674673 296.141647 
L 210.371237 300.046101 
L 212.067802 294.615446 
L 213.764366 295.964244 
L 215.46093 298.038299 
L 217.157495 297.798402 
L 218.854059 295.973921 
L 220.550623 298.348313 
L 222.247188 296.711875 
L 223.943752 298.555989 
L 225.640316 302.46511 
L 229.033445 300.738712 
L 230.730009 302.080968 
L 232.426573 295.678662 
L 234.123138 303.248646 
L 235.819702 302.455945 
L 237.516266 298.085871 
L 239.212831 296.852495 
L 240.909395 291.505243 
L 242.605959 276.264124 
L 244.302524 283.607257 
L 245.999088 284.4136 
L 247.695652 300.912455 
L 249.392216 304.429368 
L 251.088781 303.80705 
L 252.785345 302.258213 
L 254.481909 289.766482 
L 256.178474 289.207714 
L 257.875038 286.421862 
L 261.268167 292.527253 
L 262.964731 297.411515 
L 264.661295 299.253192 
L 266.35786 299.021101 
L 268.054424 287.855826 
L 269.750988 294.478944 
L 271.447552 297.471719 
L 273.144117 300.727463 
L 274.840681 305.115869 
L 276.537245 301.24409 
L 278.23381 299.447161 
L 279.930374 295.540021 
L 281.626938 283.499356 
L 285.020067 299.011832 
L 286.716631 298.273926 
L 288.413196 300.934526 
L 290.10976 303.083928 
L 291.806324 301.366849 
L 293.502888 297.971712 
L 295.199453 302.115334 
L 296.896017 300.816093 
L 298.592581 298.085269 
L 300.289146 304.092649 
L 301.98571 296.34949 
L 303.682274 290.385477 
L 307.075403 293.480674 
L 308.771967 290.948576 
L 310.468531 294.031818 
L 312.165096 291.565828 
L 313.86166 295.03878 
L 315.558224 294.075472 
L 317.254789 295.81467 
L 318.951353 293.9855 
L 320.647917 301.287613 
L 322.344482 300.906563 
L 324.041046 291.052621 
L 325.73761 289.906363 
L 327.434175 295.97899 
L 329.130739 306.47691 
L 330.827303 307.8 
L 332.523867 306.809717 
L 334.220432 299.975315 
L 335.916996 295.717477 
L 337.61356 293.892444 
L 339.310125 293.229808 
L 341.006689 288.915276 
L 342.703253 293.58315 
L 344.399818 302.601216 
L 346.096382 298.589004 
L 347.792946 302.547296 
L 349.48951 304.454137 
L 351.186075 307.582222 
L 352.882639 301.956689 
L 354.579203 301.799126 
L 356.275768 297.033304 
L 357.972332 297.533594 
L 359.668896 301.829756 
L 361.365461 297.913571 
L 364.758589 296.473173 
L 366.455154 304.444027 
L 368.151718 296.379983 
L 369.848282 287.473802 
L 371.544846 293.321312 
L 373.241411 298.471355 
L 374.937975 301.481489 
L 376.634539 301.077358 
L 378.331104 292.708088 
L 380.027668 291.772162 
L 381.724232 298.220138 
L 383.420797 296.5146 
L 386.813925 303.575249 
L 388.51049 296.302647 
L 390.207054 296.655573 
L 391.903618 301.973241 
L 393.600182 300.07896 
L 395.296747 300.719854 
L 396.993311 293.806965 
L 398.689875 296.587559 
L 400.38644 301.688518 
L 402.083004 292.592025 
L 403.779568 287.211467 
L 405.476133 295.517906 
L 407.172697 301.507805 
L 408.869261 297.819522 
L 410.565825 296.248573 
L 412.26239 295.975678 
L 413.958954 298.643695 
L 415.655518 288.670177 
L 417.352083 297.582896 
L 419.048647 293.57887 
L 420.745211 296.746463 
L 422.441776 302.774896 
L 424.13834 304.26949 
L 425.834904 297.270341 
L 427.531469 294.364076 
L 429.228033 299.363053 
L 430.924597 301.113082 
L 432.621161 298.409569 
L 434.317726 301.037686 
L 436.01429 298.67449 
L 437.710854 293.833925 
L 439.407419 297.851937 
L 441.103983 289.37115 
L 442.800547 295.927687 
L 444.497112 298.350105 
L 446.193676 296.818102 
L 447.89024 305.848614 
L 449.586804 302.273063 
L 451.283369 287.361022 
L 452.979933 287.246364 
L 454.676497 298.093222 
L 456.373062 305.566475 
L 458.069626 301.778032 
L 459.76619 302.348973 
L 461.462755 298.19608 
L 463.159319 295.894552 
L 464.855883 305.322996 
L 466.552448 302.878267 
L 468.249012 296.090837 
L 469.945576 299.917342 
L 471.64214 298.974061 
L 473.338705 296.003265 
L 476.731833 297.681617 
L 478.428398 300.238366 
L 480.124962 306.207211 
L 481.821526 298.313405 
L 483.518091 300.257612 
L 485.214655 298.441445 
L 486.911219 298.799946 
L 488.607784 302.477897 
L 490.304348 297.60748 
L 492.000912 302.452897 
L 493.697476 304.035693 
L 495.394041 298.767869 
L 497.090605 304.72812 
L 498.787169 302.907039 
L 500.483734 295.378962 
L 502.180298 296.975297 
L 503.876862 301.765389 
L 505.573427 301.822247 
L 508.966555 297.560439 
L 510.663119 297.631674 
L 512.359684 300.376417 
L 514.056248 299.800762 
L 515.752812 301.087615 
L 517.449377 303.169407 
L 519.145941 302.713898 
L 520.842505 303.573938 
L 522.53907 297.335149 
L 524.235634 304.322909 
L 525.932198 296.721191 
L 527.628763 298.745285 
L 529.325327 293.739555 
L 531.021891 292.472486 
L 532.718455 304.658644 
L 534.41502 302.333135 
L 536.111584 290.772053 
L 537.808148 289.515756 
L 539.504713 295.321633 
L 541.201277 290.178526 
L 542.897841 286.008454 
L 544.594406 288.373703 
L 546.29097 297.972172 
L 547.987534 305.98246 
L 549.684099 292.460162 
L 551.380663 285.65802 
L 553.077227 292.164423 
L 554.773791 303.064399 
L 556.470356 293.214369 
L 559.863484 301.66976 
L 561.560049 298.721067 
L 563.256613 302.349401 
L 564.953177 300.734077 
L 566.649742 301.19513 
L 568.346306 295.898889 
L 570.04287 292.855338 
L 571.739434 293.22827 
L 573.435999 297.924483 
L 575.132563 299.67854 
L 576.829127 299.554135 
L 578.525692 298.540436 
L 580.222256 301.757888 
L 581.91882 299.056573 
L 583.615385 295.752081 
L 585.311949 293.452975 
L 587.008513 288.217173 
L 588.705078 297.759299 
L 590.401642 299.601444 
L 592.098206 288.779899 
L 593.79477 283.462493 
L 595.491335 290.473839 
L 597.187899 294.984644 
L 598.884463 296.160908 
L 600.581028 288.291388 
L 602.277592 291.882214 
L 603.974156 301.558656 
L 605.670721 303.414262 
L 607.367285 300.85564 
L 609.063849 296.190081 
L 610.760413 301.62121 
L 612.456978 292.44348 
L 614.153542 288.825151 
L 615.850106 292.638633 
L 617.546671 298.195909 
L 619.243235 296.053631 
L 620.939799 299.865956 
L 622.636364 293.987322 
L 622.636364 293.987322 
" clip-path="url(#pe7c7237127)" style="fill: none; stroke: #ff7f0e; stroke-width: 1.5; stroke-linecap: square"/>
   </g>
   <g id="patch_3">
    <path d="M 90 320.4 
L 90 43.2 
" style="fill: none; stroke: #000000; stroke-width: 0.8; stroke-linejoin: miter; stroke-linecap: square"/>
   </g>
   <g id="patch_4">
    <path d="M 648 320.4 
L 648 43.2 
" style="fill: none; stroke: #000000; stroke-width: 0.8; stroke-linejoin: miter; stroke-linecap: square"/>
   </g>
   <g id="patch_5">
    <path d="M 90 320.4 
L 648 320.4 
" style="fill: none; stroke: #000000; stroke-width: 0.8; stroke-linejoin: miter; stroke-linecap: square"/>
   </g>
   <g id="patch_6">
    <path d="M 90 43.2 
L 648 43.2 
" style="fill: none; stroke: #000000; stroke-width: 0.8; stroke-linejoin: miter; stroke-linecap: square"/>
   </g>
   <g id="legend_1">
    <g id="patch_7">
     <path d="M 522.35625 99.234375 
L 637.5 99.234375 
Q 640.5 99.234375 640.5 96.234375 
L 640.5 53.7 
Q 640.5 50.7 637.5 50.7 
L 522.35625 50.7 
Q 519.35625 50.7 519.35625 53.7 
L 519.35625 96.234375 
Q 519.35625 99.234375 522.35625 99.234375 
z
" style="fill: #ffffff; opacity: 0.8; stroke: #cccccc; stroke-linejoin: miter"/>
    </g>
    <g id="line2d_16">
     <path d="M 525.35625 62.847656 
L 540.35625 62.847656 
L 555.35625 62.847656 
" style="fill: none; stroke-dasharray: 5.55,2.4; stroke-dashoffset: 0; stroke: #1f77b4; stroke-width: 1.5"/>
    </g>
    <g id="text_16">
     <!-- JRN error -->
     <g transform="translate(567.35625 68.097656) scale(0.15 -0.15)">
      <defs>
       <path id="DejaVuSans-4a" d="M 628 4666 
L 1259 4666 
L 1259 325 
Q 1259 -519 939 -900 
Q 619 -1281 -91 -1281 
L -331 -1281 
L -331 -750 
L -134 -750 
Q 284 -750 456 -515 
Q 628 -281 628 325 
L 628 4666 
z
" transform="scale(0.015625)"/>
       <path id="DejaVuSans-52" d="M 2841 2188 
Q 3044 2119 3236 1894 
Q 3428 1669 3622 1275 
L 4263 0 
L 3584 0 
L 2988 1197 
Q 2756 1666 2539 1819 
Q 2322 1972 1947 1972 
L 1259 1972 
L 1259 0 
L 628 0 
L 628 4666 
L 2053 4666 
Q 2853 4666 3247 4331 
Q 3641 3997 3641 3322 
Q 3641 2881 3436 2590 
Q 3231 2300 2841 2188 
z
M 1259 4147 
L 1259 2491 
L 2053 2491 
Q 2509 2491 2742 2702 
Q 2975 2913 2975 3322 
Q 2975 3731 2742 3939 
Q 2509 4147 2053 4147 
L 1259 4147 
z
" transform="scale(0.015625)"/>
       <path id="DejaVuSans-4e" d="M 628 4666 
L 1478 4666 
L 3547 763 
L 3547 4666 
L 4159 4666 
L 4159 0 
L 3309 0 
L 1241 3903 
L 1241 0 
L 628 0 
L 628 4666 
z
" transform="scale(0.015625)"/>
       <path id="DejaVuSans-20" transform="scale(0.015625)"/>
      </defs>
      <use xlink:href="#DejaVuSans-4a"/>
      <use xlink:href="#DejaVuSans-52" x="29.492188"/>
      <use xlink:href="#DejaVuSans-4e" x="98.974609"/>
      <use xlink:href="#DejaVuSans-20" x="173.779297"/>
      <use xlink:href="#DejaVuSans-65" x="205.566406"/>
      <use xlink:href="#DejaVuSans-72" x="267.089844"/>
      <use xlink:href="#DejaVuSans-72" x="306.453125"/>
      <use xlink:href="#DejaVuSans-6f" x="345.316406"/>
      <use xlink:href="#DejaVuSans-72" x="406.498047"/>
     </g>
    </g>
    <g id="line2d_17">
     <path d="M 525.35625 84.864844 
L 540.35625 84.864844 
L 555.35625 84.864844 
" style="fill: none; stroke: #ff7f0e; stroke-width: 1.5; stroke-linecap: square"/>
    </g>
    <g id="text_17">
     <!-- KF error -->
     <g transform="translate(567.35625 90.114844) scale(0.15 -0.15)">
      <defs>
       <path id="DejaVuSans-4b" d="M 628 4666 
L 1259 4666 
L 1259 2694 
L 3353 4666 
L 4166 4666 
L 1850 2491 
L 4331 0 
L 3500 0 
L 1259 2247 
L 1259 0 
L 628 0 
L 628 4666 
z
" transform="scale(0.015625)"/>
       <path id="DejaVuSans-46" d="M 628 4666 
L 3309 4666 
L 3309 4134 
L 1259 4134 
L 1259 2759 
L 3109 2759 
L 3109 2228 
L 1259 2228 
L 1259 0 
L 628 0 
L 628 4666 
z
" transform="scale(0.015625)"/>
      </defs>
      <use xlink:href="#DejaVuSans-4b"/>
      <use xlink:href="#DejaVuSans-46" x="65.576172"/>
      <use xlink:href="#DejaVuSans-20" x="123.095703"/>
      <use xlink:href="#DejaVuSans-65" x="154.882812"/>
      <use xlink:href="#DejaVuSans-72" x="216.40625"/>
      <use xlink:href="#DejaVuSans-72" x="255.769531"/>
      <use xlink:href="#DejaVuSans-6f" x="294.632812"/>
      <use xlink:href="#DejaVuSans-72" x="355.814453"/>
     </g>
    </g>
   </g>
  </g>
 </g>
 <defs>
  <clipPath id="pe7c7237127">
   <rect x="90" y="43.2" width="558" height="277.2"/>
  </clipPath>
 </defs>
</svg>
