<?xml version="1.0" encoding="utf-8" standalone="no"?>
<!DOCTYPE svg PUBLIC "-//W3C//DTD SVG 1.1//EN"
  "http://www.w3.org/Graphics/SVG/1.1/DTD/svg11.dtd">
<svg xmlns:xlink="http://www.w3.org/1999/xlink" width="720pt" height="360pt" viewBox="0 0 720 360" xmlns="http://www.w3.org/2000/svg" version="1.1">
 <metadata>
  <rdf:RDF xmlns:dc="http://purl.org/dc/elements/1.1/" xmlns:cc="http://creativecommons.org/ns#" xmlns:rdf="http://www.w3.org/1999/02/22-rdf-syntax-ns#">
   <cc:Work>
    <dc:type rdf:resource="http://purl.org/dc/dcmitype/StillImage"/>
    <dc:date>2025-06-27T16:50:21.044953</dc:date>
    <dc:format>image/svg+xml</dc:format>
    <dc:creator>
     <cc:Agent>
      <dc:title>Matplotlib v3.8.4, https://matplotlib.org/</dc:title>
     </cc:Agent>
    </dc:creator>
   </cc:Work>
  </rdf:RDF>
 </metadata>
 <defs>
  <style type="text/css">*{stroke-linejoin: round; stroke-linecap: butt}</style>
 </defs>
 <g id="figure_1">
  <g id="patch_1">
   <path d="M 0 360 
L 720 360 
L 720 0 
L 0 0 
z
" style="fill: #ffffff"/>
  </g>
  <g id="axes_1">
   <g id="patch_2">
    <path d="M 90 320.4 
L 648 320.4 
L 648 43.2 
L 90 43.2 
z
" style="fill: #ffffff"/>
   </g>
   <g id="matplotlib.axis_1">
    <g id="xtick_1">
     <g id="line2d_1">
      <defs>
       <path id="me316027ce1" d="M 0 0 
L 0 3.5 
" style="stroke: #000000; stroke-width: 0.8"/>
      </defs>
      <g>
       <use xlink:href="#me316027ce1" x="115.363636" y="320.4" style="stroke: #000000; stroke-width: 0.8"/>
      </g>
     </g>
     <g id="text_1">
      <!-- 0 -->
      <g transform="translate(110.591761 338.797656) scale(0.15 -0.15)">
       <defs>
        <path id="DejaVuSans-30" d="M 2034 4250 
Q 1547 4250 1301 3770 
Q 1056 3291 1056 2328 
Q 1056 1369 1301 889 
Q 1547 409 2034 409 
Q 2525 409 2770 889 
Q 3016 1369 3016 2328 
Q 3016 3291 2770 3770 
Q 2525 4250 2034 4250 
z
M 2034 4750 
Q 2819 4750 3233 4129 
Q 3647 3509 3647 2328 
Q 3647 1150 3233 529 
Q 2819 -91 2034 -91 
Q 1250 -91 836 529 
Q 422 1150 422 2328 
Q 422 3509 836 4129 
Q 1250 4750 2034 4750 
z
" transform="scale(0.015625)"/>
       </defs>
       <use xlink:href="#DejaVuSans-30"/>
      </g>
     </g>
    </g>
    <g id="xtick_2">
     <g id="line2d_2">
      <g>
       <use xlink:href="#me316027ce1" x="200.191852" y="320.4" style="stroke: #000000; stroke-width: 0.8"/>
      </g>
     </g>
     <g id="text_2">
      <!-- 50 -->
      <g transform="translate(190.648102 338.797656) scale(0.15 -0.15)">
       <defs>
        <path id="DejaVuSans-35" d="M 691 4666 
L 3169 4666 
L 3169 4134 
L 1269 4134 
L 1269 2991 
Q 1406 3038 1543 3061 
Q 1681 3084 1819 3084 
Q 2600 3084 3056 2656 
Q 3513 2228 3513 1497 
Q 3513 744 3044 326 
Q 2575 -91 1722 -91 
Q 1428 -91 1123 -41 
Q 819 9 494 109 
L 494 744 
Q 775 591 1075 516 
Q 1375 441 1709 441 
Q 2250 441 2565 725 
Q 2881 1009 2881 1497 
Q 2881 1984 2565 2268 
Q 2250 2553 1709 2553 
Q 1456 2553 1204 2497 
Q 953 2441 691 2322 
L 691 4666 
z
" transform="scale(0.015625)"/>
       </defs>
       <use xlink:href="#DejaVuSans-35"/>
       <use xlink:href="#DejaVuSans-30" x="63.623047"/>
      </g>
     </g>
    </g>
    <g id="xtick_3">
     <g id="line2d_3">
      <g>
       <use xlink:href="#me316027ce1" x="285.020067" y="320.4" style="stroke: #000000; stroke-width: 0.8"/>
      </g>
     </g>
     <g id="text_3">
      <!-- 100 -->
      <g transform="translate(270.704442 338.797656) scale(0.15 -0.15)">
       <defs>
        <path id="DejaVuSans-31" d="M 794 531 
L 1825 531 
L 1825 4091 
L 703 3866 
L 703 4441 
L 1819 4666 
L 2450 4666 
L 2450 531 
L 3481 531 
L 3481 0 
L 794 0 
L 794 531 
z
" transform="scale(0.015625)"/>
       </defs>
       <use xlink:href="#DejaVuSans-31"/>
       <use xlink:href="#DejaVuSans-30" x="63.623047"/>
       <use xlink:href="#DejaVuSans-30" x="127.246094"/>
      </g>
     </g>
    </g>
    <g id="xtick_4">
     <g id="line2d_4">
      <g>
       <use xlink:href="#me316027ce1" x="369.848282" y="320.4" style="stroke: #000000; stroke-width: 0.8"/>
      </g>
     </g>
     <g id="text_4">
      <!-- 150 -->
      <g transform="translate(355.532657 338.797656) scale(0.15 -0.15)">
       <use xlink:href="#DejaVuSans-31"/>
       <use xlink:href="#DejaVuSans-35" x="63.623047"/>
       <use xlink:href="#DejaVuSans-30" x="127.246094"/>
      </g>
     </g>
    </g>
    <g id="xtick_5">
     <g id="line2d_5">
      <g>
       <use xlink:href="#me316027ce1" x="454.676497" y="320.4" style="stroke: #000000; stroke-width: 0.8"/>
      </g>
     </g>
     <g id="text_5">
      <!-- 200 -->
      <g transform="translate(440.360872 338.797656) scale(0.15 -0.15)">
       <defs>
        <path id="DejaVuSans-32" d="M 1228 531 
L 3431 531 
L 3431 0 
L 469 0 
L 469 531 
Q 828 903 1448 1529 
Q 2069 2156 2228 2338 
Q 2531 2678 2651 2914 
Q 2772 3150 2772 3378 
Q 2772 3750 2511 3984 
Q 2250 4219 1831 4219 
Q 1534 4219 1204 4116 
Q 875 4013 500 3803 
L 500 4441 
Q 881 4594 1212 4672 
Q 1544 4750 1819 4750 
Q 2544 4750 2975 4387 
Q 3406 4025 3406 3419 
Q 3406 3131 3298 2873 
Q 3191 2616 2906 2266 
Q 2828 2175 2409 1742 
Q 1991 1309 1228 531 
z
" transform="scale(0.015625)"/>
       </defs>
       <use xlink:href="#DejaVuSans-32"/>
       <use xlink:href="#DejaVuSans-30" x="63.623047"/>
       <use xlink:href="#DejaVuSans-30" x="127.246094"/>
      </g>
     </g>
    </g>
    <g id="xtick_6">
     <g id="line2d_6">
      <g>
       <use xlink:href="#me316027ce1" x="539.504713" y="320.4" style="stroke: #000000; stroke-width: 0.8"/>
      </g>
     </g>
     <g id="text_6">
      <!-- 250 -->
      <g transform="translate(525.189088 338.797656) scale(0.15 -0.15)">
       <use xlink:href="#DejaVuSans-32"/>
       <use xlink:href="#DejaVuSans-35" x="63.623047"/>
       <use xlink:href="#DejaVuSans-30" x="127.246094"/>
      </g>
     </g>
    </g>
    <g id="xtick_7">
     <g id="line2d_7">
      <g>
       <use xlink:href="#me316027ce1" x="624.332928" y="320.4" style="stroke: #000000; stroke-width: 0.8"/>
      </g>
     </g>
     <g id="text_7">
      <!-- 300 -->
      <g transform="translate(610.017303 338.797656) scale(0.15 -0.15)">
       <defs>
        <path id="DejaVuSans-33" d="M 2597 2516 
Q 3050 2419 3304 2112 
Q 3559 1806 3559 1356 
Q 3559 666 3084 287 
Q 2609 -91 1734 -91 
Q 1441 -91 1130 -33 
Q 819 25 488 141 
L 488 750 
Q 750 597 1062 519 
Q 1375 441 1716 441 
Q 2309 441 2620 675 
Q 2931 909 2931 1356 
Q 2931 1769 2642 2001 
Q 2353 2234 1838 2234 
L 1294 2234 
L 1294 2753 
L 1863 2753 
Q 2328 2753 2575 2939 
Q 2822 3125 2822 3475 
Q 2822 3834 2567 4026 
Q 2313 4219 1838 4219 
Q 1578 4219 1281 4162 
Q 984 4106 628 3988 
L 628 4550 
Q 988 4650 1302 4700 
Q 1616 4750 1894 4750 
Q 2613 4750 3031 4423 
Q 3450 4097 3450 3541 
Q 3450 3153 3228 2886 
Q 3006 2619 2597 2516 
z
" transform="scale(0.015625)"/>
       </defs>
       <use xlink:href="#DejaVuSans-33"/>
       <use xlink:href="#DejaVuSans-30" x="63.623047"/>
       <use xlink:href="#DejaVuSans-30" x="127.246094"/>
      </g>
     </g>
    </g>
    <g id="text_8">
     <!-- Time(in sec) -->
     <g transform="translate(322.93125 357.314844) scale(0.15 -0.15)">
      <defs>
       <path id="DejaVuSans-54" d="M -19 4666 
L 3928 4666 
L 3928 4134 
L 2272 4134 
L 2272 0 
L 1638 0 
L 1638 4134 
L -19 4134 
L -19 4666 
z
" transform="scale(0.015625)"/>
       <path id="DejaVuSans-69" d="M 603 3500 
L 1178 3500 
L 1178 0 
L 603 0 
L 603 3500 
z
M 603 4863 
L 1178 4863 
L 1178 4134 
L 603 4134 
L 603 4863 
z
" transform="scale(0.015625)"/>
       <path id="DejaVuSans-6d" d="M 3328 2828 
Q 3544 3216 3844 3400 
Q 4144 3584 4550 3584 
Q 5097 3584 5394 3201 
Q 5691 2819 5691 2113 
L 5691 0 
L 5113 0 
L 5113 2094 
Q 5113 2597 4934 2840 
Q 4756 3084 4391 3084 
Q 3944 3084 3684 2787 
Q 3425 2491 3425 1978 
L 3425 0 
L 2847 0 
L 2847 2094 
Q 2847 2600 2669 2842 
Q 2491 3084 2119 3084 
Q 1678 3084 1418 2786 
Q 1159 2488 1159 1978 
L 1159 0 
L 581 0 
L 581 3500 
L 1159 3500 
L 1159 2956 
Q 1356 3278 1631 3431 
Q 1906 3584 2284 3584 
Q 2666 3584 2933 3390 
Q 3200 3197 3328 2828 
z
" transform="scale(0.015625)"/>
       <path id="DejaVuSans-65" d="M 3597 1894 
L 3597 1613 
L 953 1613 
Q 991 1019 1311 708 
Q 1631 397 2203 397 
Q 2534 397 2845 478 
Q 3156 559 3463 722 
L 3463 178 
Q 3153 47 2828 -22 
Q 2503 -91 2169 -91 
Q 1331 -91 842 396 
Q 353 884 353 1716 
Q 353 2575 817 3079 
Q 1281 3584 2069 3584 
Q 2775 3584 3186 3129 
Q 3597 2675 3597 1894 
z
M 3022 2063 
Q 3016 2534 2758 2815 
Q 2500 3097 2075 3097 
Q 1594 3097 1305 2825 
Q 1016 2553 972 2059 
L 3022 2063 
z
" transform="scale(0.015625)"/>
       <path id="DejaVuSans-28" d="M 1984 4856 
Q 1566 4138 1362 3434 
Q 1159 2731 1159 2009 
Q 1159 1288 1364 580 
Q 1569 -128 1984 -844 
L 1484 -844 
Q 1016 -109 783 600 
Q 550 1309 550 2009 
Q 550 2706 781 3412 
Q 1013 4119 1484 4856 
L 1984 4856 
z
" transform="scale(0.015625)"/>
       <path id="DejaVuSans-6e" d="M 3513 2113 
L 3513 0 
L 2938 0 
L 2938 2094 
Q 2938 2591 2744 2837 
Q 2550 3084 2163 3084 
Q 1697 3084 1428 2787 
Q 1159 2491 1159 1978 
L 1159 0 
L 581 0 
L 581 3500 
L 1159 3500 
L 1159 2956 
Q 1366 3272 1645 3428 
Q 1925 3584 2291 3584 
Q 2894 3584 3203 3211 
Q 3513 2838 3513 2113 
z
" transform="scale(0.015625)"/>
       <path id="DejaVuSans-20" transform="scale(0.015625)"/>
       <path id="DejaVuSans-73" d="M 2834 3397 
L 2834 2853 
Q 2591 2978 2328 3040 
Q 2066 3103 1784 3103 
Q 1356 3103 1142 2972 
Q 928 2841 928 2578 
Q 928 2378 1081 2264 
Q 1234 2150 1697 2047 
L 1894 2003 
Q 2506 1872 2764 1633 
Q 3022 1394 3022 966 
Q 3022 478 2636 193 
Q 2250 -91 1575 -91 
Q 1294 -91 989 -36 
Q 684 19 347 128 
L 347 722 
Q 666 556 975 473 
Q 1284 391 1588 391 
Q 1994 391 2212 530 
Q 2431 669 2431 922 
Q 2431 1156 2273 1281 
Q 2116 1406 1581 1522 
L 1381 1569 
Q 847 1681 609 1914 
Q 372 2147 372 2553 
Q 372 3047 722 3315 
Q 1072 3584 1716 3584 
Q 2034 3584 2315 3537 
Q 2597 3491 2834 3397 
z
" transform="scale(0.015625)"/>
       <path id="DejaVuSans-63" d="M 3122 3366 
L 3122 2828 
Q 2878 2963 2633 3030 
Q 2388 3097 2138 3097 
Q 1578 3097 1268 2742 
Q 959 2388 959 1747 
Q 959 1106 1268 751 
Q 1578 397 2138 397 
Q 2388 397 2633 464 
Q 2878 531 3122 666 
L 3122 134 
Q 2881 22 2623 -34 
Q 2366 -91 2075 -91 
Q 1284 -91 818 406 
Q 353 903 353 1747 
Q 353 2603 823 3093 
Q 1294 3584 2113 3584 
Q 2378 3584 2631 3529 
Q 2884 3475 3122 3366 
z
" transform="scale(0.015625)"/>
       <path id="DejaVuSans-29" d="M 513 4856 
L 1013 4856 
Q 1481 4119 1714 3412 
Q 1947 2706 1947 2009 
Q 1947 1309 1714 600 
Q 1481 -109 1013 -844 
L 513 -844 
Q 928 -128 1133 580 
Q 1338 1288 1338 2009 
Q 1338 2731 1133 3434 
Q 928 4138 513 4856 
z
" transform="scale(0.015625)"/>
      </defs>
      <use xlink:href="#DejaVuSans-54"/>
      <use xlink:href="#DejaVuSans-69" x="57.958984"/>
      <use xlink:href="#DejaVuSans-6d" x="85.742188"/>
      <use xlink:href="#DejaVuSans-65" x="183.154297"/>
      <use xlink:href="#DejaVuSans-28" x="244.677734"/>
      <use xlink:href="#DejaVuSans-69" x="283.691406"/>
      <use xlink:href="#DejaVuSans-6e" x="311.474609"/>
      <use xlink:href="#DejaVuSans-20" x="374.853516"/>
      <use xlink:href="#DejaVuSans-73" x="406.640625"/>
      <use xlink:href="#DejaVuSans-65" x="458.740234"/>
      <use xlink:href="#DejaVuSans-63" x="520.263672"/>
      <use xlink:href="#DejaVuSans-29" x="575.244141"/>
     </g>
    </g>
   </g>
   <g id="matplotlib.axis_2">
    <g id="ytick_1">
     <g id="line2d_8">
      <defs>
       <path id="m9ce8819f84" d="M 0 0 
L -3.5 0 
" style="stroke: #000000; stroke-width: 0.8"/>
      </defs>
      <g>
       <use xlink:href="#m9ce8819f84" x="90" y="307.815238" style="stroke: #000000; stroke-width: 0.8"/>
      </g>
     </g>
     <g id="text_9">
      <!-- 0 -->
      <g transform="translate(73.45625 313.514066) scale(0.15 -0.15)">
       <use xlink:href="#DejaVuSans-30"/>
      </g>
     </g>
    </g>
    <g id="ytick_2">
     <g id="line2d_9">
      <g>
       <use xlink:href="#m9ce8819f84" x="90" y="263.320672" style="stroke: #000000; stroke-width: 0.8"/>
      </g>
     </g>
     <g id="text_10">
      <!-- 1 -->
      <g transform="translate(73.45625 269.0195) scale(0.15 -0.15)">
       <use xlink:href="#DejaVuSans-31"/>
      </g>
     </g>
    </g>
    <g id="ytick_3">
     <g id="line2d_10">
      <g>
       <use xlink:href="#m9ce8819f84" x="90" y="218.826106" style="stroke: #000000; stroke-width: 0.8"/>
      </g>
     </g>
     <g id="text_11">
      <!-- 2 -->
      <g transform="translate(73.45625 224.524934) scale(0.15 -0.15)">
       <use xlink:href="#DejaVuSans-32"/>
      </g>
     </g>
    </g>
    <g id="ytick_4">
     <g id="line2d_11">
      <g>
       <use xlink:href="#m9ce8819f84" x="90" y="174.33154" style="stroke: #000000; stroke-width: 0.8"/>
      </g>
     </g>
     <g id="text_12">
      <!-- 3 -->
      <g transform="translate(73.45625 180.030368) scale(0.15 -0.15)">
       <use xlink:href="#DejaVuSans-33"/>
      </g>
     </g>
    </g>
    <g id="ytick_5">
     <g id="line2d_12">
      <g>
       <use xlink:href="#m9ce8819f84" x="90" y="129.836974" style="stroke: #000000; stroke-width: 0.8"/>
      </g>
     </g>
     <g id="text_13">
      <!-- 4 -->
      <g transform="translate(73.45625 135.535802) scale(0.15 -0.15)">
       <defs>
        <path id="DejaVuSans-34" d="M 2419 4116 
L 825 1625 
L 2419 1625 
L 2419 4116 
z
M 2253 4666 
L 3047 4666 
L 3047 1625 
L 3713 1625 
L 3713 1100 
L 3047 1100 
L 3047 0 
L 2419 0 
L 2419 1100 
L 313 1100 
L 313 1709 
L 2253 4666 
z
" transform="scale(0.015625)"/>
       </defs>
       <use xlink:href="#DejaVuSans-34"/>
      </g>
     </g>
    </g>
    <g id="ytick_6">
     <g id="line2d_13">
      <g>
       <use xlink:href="#m9ce8819f84" x="90" y="85.342408" style="stroke: #000000; stroke-width: 0.8"/>
      </g>
     </g>
     <g id="text_14">
      <!-- 5 -->
      <g transform="translate(73.45625 91.041236) scale(0.15 -0.15)">
       <use xlink:href="#DejaVuSans-35"/>
      </g>
     </g>
    </g>
    <g id="text_15">
     <!-- Error -->
     <g transform="translate(66.336719 200.077734) rotate(-90) scale(0.15 -0.15)">
      <defs>
       <path id="DejaVuSans-45" d="M 628 4666 
L 3578 4666 
L 3578 4134 
L 1259 4134 
L 1259 2753 
L 3481 2753 
L 3481 2222 
L 1259 2222 
L 1259 531 
L 3634 531 
L 3634 0 
L 628 0 
L 628 4666 
z
" transform="scale(0.015625)"/>
       <path id="DejaVuSans-72" d="M 2631 2963 
Q 2534 3019 2420 3045 
Q 2306 3072 2169 3072 
Q 1681 3072 1420 2755 
Q 1159 2438 1159 1844 
L 1159 0 
L 581 0 
L 581 3500 
L 1159 3500 
L 1159 2956 
Q 1341 3275 1631 3429 
Q 1922 3584 2338 3584 
Q 2397 3584 2469 3576 
Q 2541 3569 2628 3553 
L 2631 2963 
z
" transform="scale(0.015625)"/>
       <path id="DejaVuSans-6f" d="M 1959 3097 
Q 1497 3097 1228 2736 
Q 959 2375 959 1747 
Q 959 1119 1226 758 
Q 1494 397 1959 397 
Q 2419 397 2687 759 
Q 2956 1122 2956 1747 
Q 2956 2369 2687 2733 
Q 2419 3097 1959 3097 
z
M 1959 3584 
Q 2709 3584 3137 3096 
Q 3566 2609 3566 1747 
Q 3566 888 3137 398 
Q 2709 -91 1959 -91 
Q 1206 -91 779 398 
Q 353 888 353 1747 
Q 353 2609 779 3096 
Q 1206 3584 1959 3584 
z
" transform="scale(0.015625)"/>
      </defs>
      <use xlink:href="#DejaVuSans-45"/>
      <use xlink:href="#DejaVuSans-72" x="63.183594"/>
      <use xlink:href="#DejaVuSans-72" x="102.546875"/>
      <use xlink:href="#DejaVuSans-6f" x="141.410156"/>
      <use xlink:href="#DejaVuSans-72" x="202.591797"/>
     </g>
    </g>
   </g>
   <g id="line2d_14">
    <path d="M 115.363636 55.8 
L 117.060201 205.245908 
L 118.756765 276.605846 
L 120.453329 297.146899 
L 122.149894 301.691999 
L 123.846458 302.72685 
L 125.543022 307.009941 
L 127.239587 307.316001 
L 128.936151 306.914073 
L 130.632715 307.357842 
L 132.329279 307.506632 
L 134.025844 305.902879 
L 135.722408 306.868906 
L 137.418972 307.652655 
L 142.508665 307.235472 
L 144.20523 307.648907 
L 145.901794 306.86663 
L 147.598358 307.413018 
L 149.294922 307.200548 
L 150.991487 307.347028 
L 156.08118 307.387038 
L 157.777744 307.002614 
L 159.474308 307.467439 
L 161.170873 307.18363 
L 162.867437 307.623749 
L 164.564001 307.469726 
L 166.260566 307.443685 
L 169.653694 307.663487 
L 171.350258 307.55994 
L 173.046823 307.250625 
L 181.529644 307.618596 
L 188.315901 307.263382 
L 190.012466 307.565308 
L 193.405594 307.427496 
L 198.495287 307.284534 
L 200.191852 307.583255 
L 203.58498 307.581591 
L 208.674673 307.455536 
L 210.371237 307.400321 
L 212.067802 307.528479 
L 213.764366 307.539923 
L 215.46093 307.396064 
L 218.854059 307.420432 
L 222.247188 307.675115 
L 223.943752 307.676275 
L 227.336881 307.310745 
L 229.033445 307.425263 
L 230.730009 307.677444 
L 235.819702 307.494079 
L 237.516266 307.286546 
L 239.212831 307.439868 
L 240.909395 307.476892 
L 242.605959 307.694495 
L 245.999088 307.548783 
L 247.695652 307.156502 
L 249.392216 307.147758 
L 252.785345 307.367827 
L 254.481909 307.077461 
L 256.178474 307.123765 
L 259.571602 307.418356 
L 268.054424 307.717895 
L 269.750988 307.622701 
L 271.447552 307.691041 
L 273.144117 307.513432 
L 276.537245 307.726422 
L 278.23381 307.660583 
L 279.930374 307.482779 
L 281.626938 307.57242 
L 285.020067 307.56311 
L 286.716631 307.691451 
L 288.413196 307.571991 
L 290.10976 307.685229 
L 293.502888 307.440321 
L 296.896017 307.495541 
L 301.98571 307.694867 
L 305.378839 307.508857 
L 313.86166 307.631549 
L 317.254789 307.37982 
L 320.647917 307.609403 
L 322.344482 307.566841 
L 324.041046 307.715601 
L 325.73761 307.69486 
L 327.434175 307.544164 
L 330.827303 307.648247 
L 332.523867 307.372702 
L 335.916996 307.628884 
L 337.61356 307.595881 
L 339.310125 307.27022 
L 341.006689 307.387857 
L 342.703253 307.287857 
L 346.096382 307.69743 
L 352.882639 307.605207 
L 354.579203 307.308871 
L 357.972332 307.582208 
L 363.062025 307.6389 
L 369.848282 307.467836 
L 371.544846 307.594575 
L 373.241411 307.594152 
L 374.937975 307.400549 
L 378.331104 307.548745 
L 381.724232 307.50289 
L 383.420797 307.633465 
L 388.51049 307.569067 
L 390.207054 307.266674 
L 391.903618 307.458911 
L 396.993311 307.578958 
L 402.083004 307.387597 
L 408.869261 307.625094 
L 410.565825 307.298126 
L 412.26239 307.484474 
L 413.958954 307.520124 
L 415.655518 307.255808 
L 424.13834 307.454735 
L 425.834904 307.169231 
L 427.531469 307.248379 
L 429.228033 307.542729 
L 432.621161 307.616332 
L 436.01429 307.206731 
L 437.710854 307.40287 
L 439.407419 307.336689 
L 441.103983 307.559909 
L 446.193676 307.595537 
L 449.586804 307.656917 
L 451.283369 307.330437 
L 452.979933 307.328418 
L 456.373062 307.748707 
L 463.159319 307.539256 
L 464.855883 307.61687 
L 466.552448 307.440756 
L 475.035269 307.628579 
L 478.428398 307.472722 
L 483.518091 307.677264 
L 486.911219 307.457925 
L 488.607784 307.60543 
L 490.304348 307.532918 
L 492.000912 307.655414 
L 493.697476 307.472375 
L 497.090605 307.390148 
L 498.787169 307.562048 
L 500.483734 307.380795 
L 502.180298 307.566421 
L 503.876862 307.569971 
L 507.269991 307.228713 
L 508.966555 307.575898 
L 510.663119 307.388633 
L 512.359684 307.365347 
L 514.056248 307.215346 
L 515.752812 307.45655 
L 519.145941 307.660334 
L 520.842505 307.493172 
L 527.628763 307.641415 
L 534.41502 307.634295 
L 539.504713 307.72655 
L 541.201277 307.593917 
L 542.897841 307.643498 
L 544.594406 307.558949 
L 546.29097 307.616964 
L 547.987534 307.353747 
L 549.684099 307.440509 
L 551.380663 307.307243 
L 553.077227 307.633935 
L 556.470356 307.721599 
L 559.863484 307.299243 
L 561.560049 307.45037 
L 563.256613 307.434893 
L 566.649742 307.541812 
L 568.346306 307.500577 
L 570.04287 307.69095 
L 575.132563 307.393208 
L 576.829127 307.618366 
L 580.222256 307.476442 
L 583.615385 307.39789 
L 592.098206 307.703882 
L 595.491335 307.441777 
L 597.187899 307.5924 
L 598.884463 307.518652 
L 600.581028 307.629611 
L 607.367285 307.428029 
L 609.063849 307.198349 
L 612.456978 307.375536 
L 619.243235 307.664706 
L 622.636364 307.474177 
L 622.636364 307.474177 
" clip-path="url(#p2f2213a146)" style="fill: none; stroke-dasharray: 5.55,2.4; stroke-dashoffset: 0; stroke: #1f77b4; stroke-width: 1.5"/>
   </g>
   <g id="line2d_15">
    <path d="M 115.363636 61.829569 
L 117.060201 111.117899 
L 118.756765 277.255331 
L 120.453329 307.478236 
L 122.149894 303.344228 
L 123.846458 305.182191 
L 125.543022 307.392227 
L 127.239587 307.737914 
L 128.936151 307.638926 
L 130.632715 307.735687 
L 135.722408 307.740945 
L 139.115537 307.755773 
L 149.294922 307.664414 
L 150.991487 307.725711 
L 152.688051 307.637417 
L 162.867437 307.742259 
L 166.260566 307.725435 
L 171.350258 307.76026 
L 174.743387 307.736964 
L 178.136516 307.736246 
L 184.922773 307.693319 
L 186.619337 307.578195 
L 191.70903 307.758386 
L 195.102159 307.687825 
L 208.674673 307.757809 
L 213.764366 307.758642 
L 239.212831 307.730378 
L 242.605959 307.729606 
L 244.302524 307.550367 
L 245.999088 307.641143 
L 249.392216 307.615047 
L 256.178474 307.714638 
L 262.964731 307.631701 
L 266.35786 307.775217 
L 307.075403 307.750851 
L 308.771967 307.78961 
L 312.165096 307.686904 
L 317.254789 307.748809 
L 320.647917 307.734778 
L 325.73761 307.71161 
L 332.523867 307.787215 
L 339.310125 307.597554 
L 342.703253 307.721177 
L 349.48951 307.784802 
L 359.668896 307.744914 
L 366.455154 307.732352 
L 368.151718 307.764759 
L 371.544846 307.61259 
L 373.241411 307.768354 
L 376.634539 307.736357 
L 380.027668 307.74797 
L 385.117361 307.65415 
L 395.296747 307.775001 
L 398.689875 307.723337 
L 403.779568 307.658619 
L 408.869261 307.763214 
L 412.26239 307.757943 
L 419.048647 307.66663 
L 420.745211 307.765649 
L 427.531469 307.665008 
L 434.317726 307.774493 
L 437.710854 307.705866 
L 454.676497 307.686961 
L 458.069626 307.782118 
L 471.64214 307.759383 
L 473.338705 307.771324 
L 475.035269 307.667558 
L 476.731833 307.704638 
L 478.428398 307.603263 
L 481.821526 307.775166 
L 483.518091 307.659648 
L 485.214655 307.672977 
L 486.911219 307.560698 
L 488.607784 307.69583 
L 495.394041 307.692665 
L 500.483734 307.60844 
L 502.180298 307.556874 
L 505.573427 307.689997 
L 510.663119 307.674741 
L 559.863484 307.653109 
L 561.560049 307.607583 
L 566.649742 307.744415 
L 575.132563 307.604839 
L 576.829127 307.735318 
L 583.615385 307.677602 
L 592.098206 307.787275 
L 595.491335 307.637515 
L 597.187899 307.737913 
L 600.581028 307.628753 
L 603.974156 307.755926 
L 607.367285 307.72878 
L 609.063849 307.619928 
L 615.850106 307.682389 
L 622.636364 307.681528 
L 622.636364 307.681528 
" clip-path="url(#p2f2213a146)" style="fill: none; stroke: #ff7f0e; stroke-width: 1.5; stroke-linecap: square"/>
   </g>
   <g id="patch_3">
    <path d="M 90 320.4 
L 90 43.2 
" style="fill: none; stroke: #000000; stroke-width: 0.8; stroke-linejoin: miter; stroke-linecap: square"/>
   </g>
   <g id="patch_4">
    <path d="M 648 320.4 
L 648 43.2 
" style="fill: none; stroke: #000000; stroke-width: 0.8; stroke-linejoin: miter; stroke-linecap: square"/>
   </g>
   <g id="patch_5">
    <path d="M 90 320.4 
L 648 320.4 
" style="fill: none; stroke: #000000; stroke-width: 0.8; stroke-linejoin: miter; stroke-linecap: square"/>
   </g>
   <g id="patch_6">
    <path d="M 90 43.2 
L 648 43.2 
" style="fill: none; stroke: #000000; stroke-width: 0.8; stroke-linejoin: miter; stroke-linecap: square"/>
   </g>
   <g id="legend_1">
    <g id="patch_7">
     <path d="M 522.35625 99.234375 
L 637.5 99.234375 
Q 640.5 99.234375 640.5 96.234375 
L 640.5 53.7 
Q 640.5 50.7 637.5 50.7 
L 522.35625 50.7 
Q 519.35625 50.7 519.35625 53.7 
L 519.35625 96.234375 
Q 519.35625 99.234375 522.35625 99.234375 
z
" style="fill: #ffffff; opacity: 0.8; stroke: #cccccc; stroke-linejoin: miter"/>
    </g>
    <g id="line2d_16">
     <path d="M 525.35625 62.847656 
L 540.35625 62.847656 
L 555.35625 62.847656 
" style="fill: none; stroke-dasharray: 5.55,2.4; stroke-dashoffset: 0; stroke: #1f77b4; stroke-width: 1.5"/>
    </g>
    <g id="text_16">
     <!-- JRN error -->
     <g transform="translate(567.35625 68.097656) scale(0.15 -0.15)">
      <defs>
       <path id="DejaVuSans-4a" d="M 628 4666 
L 1259 4666 
L 1259 325 
Q 1259 -519 939 -900 
Q 619 -1281 -91 -1281 
L -331 -1281 
L -331 -750 
L -134 -750 
Q 284 -750 456 -515 
Q 628 -281 628 325 
L 628 4666 
z
" transform="scale(0.015625)"/>
       <path id="DejaVuSans-52" d="M 2841 2188 
Q 3044 2119 3236 1894 
Q 3428 1669 3622 1275 
L 4263 0 
L 3584 0 
L 2988 1197 
Q 2756 1666 2539 1819 
Q 2322 1972 1947 1972 
L 1259 1972 
L 1259 0 
L 628 0 
L 628 4666 
L 2053 4666 
Q 2853 4666 3247 4331 
Q 3641 3997 3641 3322 
Q 3641 2881 3436 2590 
Q 3231 2300 2841 2188 
z
M 1259 4147 
L 1259 2491 
L 2053 2491 
Q 2509 2491 2742 2702 
Q 2975 2913 2975 3322 
Q 2975 3731 2742 3939 
Q 2509 4147 2053 4147 
L 1259 4147 
z
" transform="scale(0.015625)"/>
       <path id="DejaVuSans-4e" d="M 628 4666 
L 1478 4666 
L 3547 763 
L 3547 4666 
L 4159 4666 
L 4159 0 
L 3309 0 
L 1241 3903 
L 1241 0 
L 628 0 
L 628 4666 
z
" transform="scale(0.015625)"/>
      </defs>
      <use xlink:href="#DejaVuSans-4a"/>
      <use xlink:href="#DejaVuSans-52" x="29.492188"/>
      <use xlink:href="#DejaVuSans-4e" x="98.974609"/>
      <use xlink:href="#DejaVuSans-20" x="173.779297"/>
      <use xlink:href="#DejaVuSans-65" x="205.566406"/>
      <use xlink:href="#DejaVuSans-72" x="267.089844"/>
      <use xlink:href="#DejaVuSans-72" x="306.453125"/>
      <use xlink:href="#DejaVuSans-6f" x="345.316406"/>
      <use xlink:href="#DejaVuSans-72" x="406.498047"/>
     </g>
    </g>
    <g id="line2d_17">
     <path d="M 525.35625 84.864844 
L 540.35625 84.864844 
L 555.35625 84.864844 
" style="fill: none; stroke: #ff7f0e; stroke-width: 1.5; stroke-linecap: square"/>
    </g>
    <g id="text_17">
     <!-- KF error -->
     <g transform="translate(567.35625 90.114844) scale(0.15 -0.15)">
      <defs>
       <path id="DejaVuSans-4b" d="M 628 4666 
L 1259 4666 
L 1259 2694 
L 3353 4666 
L 4166 4666 
L 1850 2491 
L 4331 0 
L 3500 0 
L 1259 2247 
L 1259 0 
L 628 0 
L 628 4666 
z
" transform="scale(0.015625)"/>
       <path id="DejaVuSans-46" d="M 628 4666 
L 3309 4666 
L 3309 4134 
L 1259 4134 
L 1259 2759 
L 3109 2759 
L 3109 2228 
L 1259 2228 
L 1259 0 
L 628 0 
L 628 4666 
z
" transform="scale(0.015625)"/>
      </defs>
      <use xlink:href="#DejaVuSans-4b"/>
      <use xlink:href="#DejaVuSans-46" x="65.576172"/>
      <use xlink:href="#DejaVuSans-20" x="123.095703"/>
      <use xlink:href="#DejaVuSans-65" x="154.882812"/>
      <use xlink:href="#DejaVuSans-72" x="216.40625"/>
      <use xlink:href="#DejaVuSans-72" x="255.769531"/>
      <use xlink:href="#DejaVuSans-6f" x="294.632812"/>
      <use xlink:href="#DejaVuSans-72" x="355.814453"/>
     </g>
    </g>
   </g>
  </g>
 </g>
 <defs>
  <clipPath id="p2f2213a146">
   <rect x="90" y="43.2" width="558" height="277.2"/>
  </clipPath>
 </defs>
</svg>
