<?xml version="1.0" encoding="utf-8" standalone="no"?>
<!DOCTYPE svg PUBLIC "-//W3C//DTD SVG 1.1//EN"
  "http://www.w3.org/Graphics/SVG/1.1/DTD/svg11.dtd">
<svg xmlns:xlink="http://www.w3.org/1999/xlink" width="720pt" height="360pt" viewBox="0 0 720 360" xmlns="http://www.w3.org/2000/svg" version="1.1">
 <metadata>
  <rdf:RDF xmlns:dc="http://purl.org/dc/elements/1.1/" xmlns:cc="http://creativecommons.org/ns#" xmlns:rdf="http://www.w3.org/1999/02/22-rdf-syntax-ns#">
   <cc:Work>
    <dc:type rdf:resource="http://purl.org/dc/dcmitype/StillImage"/>
    <dc:date>2025-06-27T15:46:38.516536</dc:date>
    <dc:format>image/svg+xml</dc:format>
    <dc:creator>
     <cc:Agent>
      <dc:title>Matplotlib v3.8.4, https://matplotlib.org/</dc:title>
     </cc:Agent>
    </dc:creator>
   </cc:Work>
  </rdf:RDF>
 </metadata>
 <defs>
  <style type="text/css">*{stroke-linejoin: round; stroke-linecap: butt}</style>
 </defs>
 <g id="figure_1">
  <g id="patch_1">
   <path d="M 0 360 
L 720 360 
L 720 0 
L 0 0 
z
" style="fill: #ffffff"/>
  </g>
  <g id="axes_1">
   <g id="patch_2">
    <path d="M 90 320.4 
L 648 320.4 
L 648 43.2 
L 90 43.2 
z
" style="fill: #ffffff"/>
   </g>
   <g id="matplotlib.axis_1">
    <g id="xtick_1">
     <g id="line2d_1">
      <defs>
       <path id="m1b3e3ff7a7" d="M 0 0 
L 0 3.5 
" style="stroke: #000000; stroke-width: 0.8"/>
      </defs>
      <g>
       <use xlink:href="#m1b3e3ff7a7" x="115.363636" y="320.4" style="stroke: #000000; stroke-width: 0.8"/>
      </g>
     </g>
     <g id="text_1">
      <!-- 0 -->
      <g transform="translate(110.591761 338.797656) scale(0.15 -0.15)">
       <defs>
        <path id="DejaVuSans-30" d="M 2034 4250 
Q 1547 4250 1301 3770 
Q 1056 3291 1056 2328 
Q 1056 1369 1301 889 
Q 1547 409 2034 409 
Q 2525 409 2770 889 
Q 3016 1369 3016 2328 
Q 3016 3291 2770 3770 
Q 2525 4250 2034 4250 
z
M 2034 4750 
Q 2819 4750 3233 4129 
Q 3647 3509 3647 2328 
Q 3647 1150 3233 529 
Q 2819 -91 2034 -91 
Q 1250 -91 836 529 
Q 422 1150 422 2328 
Q 422 3509 836 4129 
Q 1250 4750 2034 4750 
z
" transform="scale(0.015625)"/>
       </defs>
       <use xlink:href="#DejaVuSans-30"/>
      </g>
     </g>
    </g>
    <g id="xtick_2">
     <g id="line2d_2">
      <g>
       <use xlink:href="#m1b3e3ff7a7" x="200.191852" y="320.4" style="stroke: #000000; stroke-width: 0.8"/>
      </g>
     </g>
     <g id="text_2">
      <!-- 50 -->
      <g transform="translate(190.648102 338.797656) scale(0.15 -0.15)">
       <defs>
        <path id="DejaVuSans-35" d="M 691 4666 
L 3169 4666 
L 3169 4134 
L 1269 4134 
L 1269 2991 
Q 1406 3038 1543 3061 
Q 1681 3084 1819 3084 
Q 2600 3084 3056 2656 
Q 3513 2228 3513 1497 
Q 3513 744 3044 326 
Q 2575 -91 1722 -91 
Q 1428 -91 1123 -41 
Q 819 9 494 109 
L 494 744 
Q 775 591 1075 516 
Q 1375 441 1709 441 
Q 2250 441 2565 725 
Q 2881 1009 2881 1497 
Q 2881 1984 2565 2268 
Q 2250 2553 1709 2553 
Q 1456 2553 1204 2497 
Q 953 2441 691 2322 
L 691 4666 
z
" transform="scale(0.015625)"/>
       </defs>
       <use xlink:href="#DejaVuSans-35"/>
       <use xlink:href="#DejaVuSans-30" x="63.623047"/>
      </g>
     </g>
    </g>
    <g id="xtick_3">
     <g id="line2d_3">
      <g>
       <use xlink:href="#m1b3e3ff7a7" x="285.020067" y="320.4" style="stroke: #000000; stroke-width: 0.8"/>
      </g>
     </g>
     <g id="text_3">
      <!-- 100 -->
      <g transform="translate(270.704442 338.797656) scale(0.15 -0.15)">
       <defs>
        <path id="DejaVuSans-31" d="M 794 531 
L 1825 531 
L 1825 4091 
L 703 3866 
L 703 4441 
L 1819 4666 
L 2450 4666 
L 2450 531 
L 3481 531 
L 3481 0 
L 794 0 
L 794 531 
z
" transform="scale(0.015625)"/>
       </defs>
       <use xlink:href="#DejaVuSans-31"/>
       <use xlink:href="#DejaVuSans-30" x="63.623047"/>
       <use xlink:href="#DejaVuSans-30" x="127.246094"/>
      </g>
     </g>
    </g>
    <g id="xtick_4">
     <g id="line2d_4">
      <g>
       <use xlink:href="#m1b3e3ff7a7" x="369.848282" y="320.4" style="stroke: #000000; stroke-width: 0.8"/>
      </g>
     </g>
     <g id="text_4">
      <!-- 150 -->
      <g transform="translate(355.532657 338.797656) scale(0.15 -0.15)">
       <use xlink:href="#DejaVuSans-31"/>
       <use xlink:href="#DejaVuSans-35" x="63.623047"/>
       <use xlink:href="#DejaVuSans-30" x="127.246094"/>
      </g>
     </g>
    </g>
    <g id="xtick_5">
     <g id="line2d_5">
      <g>
       <use xlink:href="#m1b3e3ff7a7" x="454.676497" y="320.4" style="stroke: #000000; stroke-width: 0.8"/>
      </g>
     </g>
     <g id="text_5">
      <!-- 200 -->
      <g transform="translate(440.360872 338.797656) scale(0.15 -0.15)">
       <defs>
        <path id="DejaVuSans-32" d="M 1228 531 
L 3431 531 
L 3431 0 
L 469 0 
L 469 531 
Q 828 903 1448 1529 
Q 2069 2156 2228 2338 
Q 2531 2678 2651 2914 
Q 2772 3150 2772 3378 
Q 2772 3750 2511 3984 
Q 2250 4219 1831 4219 
Q 1534 4219 1204 4116 
Q 875 4013 500 3803 
L 500 4441 
Q 881 4594 1212 4672 
Q 1544 4750 1819 4750 
Q 2544 4750 2975 4387 
Q 3406 4025 3406 3419 
Q 3406 3131 3298 2873 
Q 3191 2616 2906 2266 
Q 2828 2175 2409 1742 
Q 1991 1309 1228 531 
z
" transform="scale(0.015625)"/>
       </defs>
       <use xlink:href="#DejaVuSans-32"/>
       <use xlink:href="#DejaVuSans-30" x="63.623047"/>
       <use xlink:href="#DejaVuSans-30" x="127.246094"/>
      </g>
     </g>
    </g>
    <g id="xtick_6">
     <g id="line2d_6">
      <g>
       <use xlink:href="#m1b3e3ff7a7" x="539.504713" y="320.4" style="stroke: #000000; stroke-width: 0.8"/>
      </g>
     </g>
     <g id="text_6">
      <!-- 250 -->
      <g transform="translate(525.189088 338.797656) scale(0.15 -0.15)">
       <use xlink:href="#DejaVuSans-32"/>
       <use xlink:href="#DejaVuSans-35" x="63.623047"/>
       <use xlink:href="#DejaVuSans-30" x="127.246094"/>
      </g>
     </g>
    </g>
    <g id="xtick_7">
     <g id="line2d_7">
      <g>
       <use xlink:href="#m1b3e3ff7a7" x="624.332928" y="320.4" style="stroke: #000000; stroke-width: 0.8"/>
      </g>
     </g>
     <g id="text_7">
      <!-- 300 -->
      <g transform="translate(610.017303 338.797656) scale(0.15 -0.15)">
       <defs>
        <path id="DejaVuSans-33" d="M 2597 2516 
Q 3050 2419 3304 2112 
Q 3559 1806 3559 1356 
Q 3559 666 3084 287 
Q 2609 -91 1734 -91 
Q 1441 -91 1130 -33 
Q 819 25 488 141 
L 488 750 
Q 750 597 1062 519 
Q 1375 441 1716 441 
Q 2309 441 2620 675 
Q 2931 909 2931 1356 
Q 2931 1769 2642 2001 
Q 2353 2234 1838 2234 
L 1294 2234 
L 1294 2753 
L 1863 2753 
Q 2328 2753 2575 2939 
Q 2822 3125 2822 3475 
Q 2822 3834 2567 4026 
Q 2313 4219 1838 4219 
Q 1578 4219 1281 4162 
Q 984 4106 628 3988 
L 628 4550 
Q 988 4650 1302 4700 
Q 1616 4750 1894 4750 
Q 2613 4750 3031 4423 
Q 3450 4097 3450 3541 
Q 3450 3153 3228 2886 
Q 3006 2619 2597 2516 
z
" transform="scale(0.015625)"/>
       </defs>
       <use xlink:href="#DejaVuSans-33"/>
       <use xlink:href="#DejaVuSans-30" x="63.623047"/>
       <use xlink:href="#DejaVuSans-30" x="127.246094"/>
      </g>
     </g>
    </g>
    <g id="text_8">
     <!-- Time-steps -->
     <g transform="translate(327.813281 357.314844) scale(0.15 -0.15)">
      <defs>
       <path id="DejaVuSans-54" d="M -19 4666 
L 3928 4666 
L 3928 4134 
L 2272 4134 
L 2272 0 
L 1638 0 
L 1638 4134 
L -19 4134 
L -19 4666 
z
" transform="scale(0.015625)"/>
       <path id="DejaVuSans-69" d="M 603 3500 
L 1178 3500 
L 1178 0 
L 603 0 
L 603 3500 
z
M 603 4863 
L 1178 4863 
L 1178 4134 
L 603 4134 
L 603 4863 
z
" transform="scale(0.015625)"/>
       <path id="DejaVuSans-6d" d="M 3328 2828 
Q 3544 3216 3844 3400 
Q 4144 3584 4550 3584 
Q 5097 3584 5394 3201 
Q 5691 2819 5691 2113 
L 5691 0 
L 5113 0 
L 5113 2094 
Q 5113 2597 4934 2840 
Q 4756 3084 4391 3084 
Q 3944 3084 3684 2787 
Q 3425 2491 3425 1978 
L 3425 0 
L 2847 0 
L 2847 2094 
Q 2847 2600 2669 2842 
Q 2491 3084 2119 3084 
Q 1678 3084 1418 2786 
Q 1159 2488 1159 1978 
L 1159 0 
L 581 0 
L 581 3500 
L 1159 3500 
L 1159 2956 
Q 1356 3278 1631 3431 
Q 1906 3584 2284 3584 
Q 2666 3584 2933 3390 
Q 3200 3197 3328 2828 
z
" transform="scale(0.015625)"/>
       <path id="DejaVuSans-65" d="M 3597 1894 
L 3597 1613 
L 953 1613 
Q 991 1019 1311 708 
Q 1631 397 2203 397 
Q 2534 397 2845 478 
Q 3156 559 3463 722 
L 3463 178 
Q 3153 47 2828 -22 
Q 2503 -91 2169 -91 
Q 1331 -91 842 396 
Q 353 884 353 1716 
Q 353 2575 817 3079 
Q 1281 3584 2069 3584 
Q 2775 3584 3186 3129 
Q 3597 2675 3597 1894 
z
M 3022 2063 
Q 3016 2534 2758 2815 
Q 2500 3097 2075 3097 
Q 1594 3097 1305 2825 
Q 1016 2553 972 2059 
L 3022 2063 
z
" transform="scale(0.015625)"/>
       <path id="DejaVuSans-2d" d="M 313 2009 
L 1997 2009 
L 1997 1497 
L 313 1497 
L 313 2009 
z
" transform="scale(0.015625)"/>
       <path id="DejaVuSans-73" d="M 2834 3397 
L 2834 2853 
Q 2591 2978 2328 3040 
Q 2066 3103 1784 3103 
Q 1356 3103 1142 2972 
Q 928 2841 928 2578 
Q 928 2378 1081 2264 
Q 1234 2150 1697 2047 
L 1894 2003 
Q 2506 1872 2764 1633 
Q 3022 1394 3022 966 
Q 3022 478 2636 193 
Q 2250 -91 1575 -91 
Q 1294 -91 989 -36 
Q 684 19 347 128 
L 347 722 
Q 666 556 975 473 
Q 1284 391 1588 391 
Q 1994 391 2212 530 
Q 2431 669 2431 922 
Q 2431 1156 2273 1281 
Q 2116 1406 1581 1522 
L 1381 1569 
Q 847 1681 609 1914 
Q 372 2147 372 2553 
Q 372 3047 722 3315 
Q 1072 3584 1716 3584 
Q 2034 3584 2315 3537 
Q 2597 3491 2834 3397 
z
" transform="scale(0.015625)"/>
       <path id="DejaVuSans-74" d="M 1172 4494 
L 1172 3500 
L 2356 3500 
L 2356 3053 
L 1172 3053 
L 1172 1153 
Q 1172 725 1289 603 
Q 1406 481 1766 481 
L 2356 481 
L 2356 0 
L 1766 0 
Q 1100 0 847 248 
Q 594 497 594 1153 
L 594 3053 
L 172 3053 
L 172 3500 
L 594 3500 
L 594 4494 
L 1172 4494 
z
" transform="scale(0.015625)"/>
       <path id="DejaVuSans-70" d="M 1159 525 
L 1159 -1331 
L 581 -1331 
L 581 3500 
L 1159 3500 
L 1159 2969 
Q 1341 3281 1617 3432 
Q 1894 3584 2278 3584 
Q 2916 3584 3314 3078 
Q 3713 2572 3713 1747 
Q 3713 922 3314 415 
Q 2916 -91 2278 -91 
Q 1894 -91 1617 61 
Q 1341 213 1159 525 
z
M 3116 1747 
Q 3116 2381 2855 2742 
Q 2594 3103 2138 3103 
Q 1681 3103 1420 2742 
Q 1159 2381 1159 1747 
Q 1159 1113 1420 752 
Q 1681 391 2138 391 
Q 2594 391 2855 752 
Q 3116 1113 3116 1747 
z
" transform="scale(0.015625)"/>
      </defs>
      <use xlink:href="#DejaVuSans-54"/>
      <use xlink:href="#DejaVuSans-69" x="57.958984"/>
      <use xlink:href="#DejaVuSans-6d" x="85.742188"/>
      <use xlink:href="#DejaVuSans-65" x="183.154297"/>
      <use xlink:href="#DejaVuSans-2d" x="244.677734"/>
      <use xlink:href="#DejaVuSans-73" x="280.761719"/>
      <use xlink:href="#DejaVuSans-74" x="332.861328"/>
      <use xlink:href="#DejaVuSans-65" x="372.070312"/>
      <use xlink:href="#DejaVuSans-70" x="433.59375"/>
      <use xlink:href="#DejaVuSans-73" x="497.070312"/>
     </g>
    </g>
   </g>
   <g id="matplotlib.axis_2">
    <g id="ytick_1">
     <g id="line2d_8">
      <defs>
       <path id="me6cd9d53f6" d="M 0 0 
L -3.5 0 
" style="stroke: #000000; stroke-width: 0.8"/>
      </defs>
      <g>
       <use xlink:href="#me6cd9d53f6" x="90" y="309.366603" style="stroke: #000000; stroke-width: 0.8"/>
      </g>
     </g>
     <g id="text_9">
      <!-- 0.0 -->
      <g transform="translate(59.145313 315.065431) scale(0.15 -0.15)">
       <defs>
        <path id="DejaVuSans-2e" d="M 684 794 
L 1344 794 
L 1344 0 
L 684 0 
L 684 794 
z
" transform="scale(0.015625)"/>
       </defs>
       <use xlink:href="#DejaVuSans-30"/>
       <use xlink:href="#DejaVuSans-2e" x="63.623047"/>
       <use xlink:href="#DejaVuSans-30" x="95.410156"/>
      </g>
     </g>
    </g>
    <g id="ytick_2">
     <g id="line2d_9">
      <g>
       <use xlink:href="#me6cd9d53f6" x="90" y="261.410245" style="stroke: #000000; stroke-width: 0.8"/>
      </g>
     </g>
     <g id="text_10">
      <!-- 0.2 -->
      <g transform="translate(59.145313 267.109073) scale(0.15 -0.15)">
       <use xlink:href="#DejaVuSans-30"/>
       <use xlink:href="#DejaVuSans-2e" x="63.623047"/>
       <use xlink:href="#DejaVuSans-32" x="95.410156"/>
      </g>
     </g>
    </g>
    <g id="ytick_3">
     <g id="line2d_10">
      <g>
       <use xlink:href="#me6cd9d53f6" x="90" y="213.453886" style="stroke: #000000; stroke-width: 0.8"/>
      </g>
     </g>
     <g id="text_11">
      <!-- 0.4 -->
      <g transform="translate(59.145313 219.152715) scale(0.15 -0.15)">
       <defs>
        <path id="DejaVuSans-34" d="M 2419 4116 
L 825 1625 
L 2419 1625 
L 2419 4116 
z
M 2253 4666 
L 3047 4666 
L 3047 1625 
L 3713 1625 
L 3713 1100 
L 3047 1100 
L 3047 0 
L 2419 0 
L 2419 1100 
L 313 1100 
L 313 1709 
L 2253 4666 
z
" transform="scale(0.015625)"/>
       </defs>
       <use xlink:href="#DejaVuSans-30"/>
       <use xlink:href="#DejaVuSans-2e" x="63.623047"/>
       <use xlink:href="#DejaVuSans-34" x="95.410156"/>
      </g>
     </g>
    </g>
    <g id="ytick_4">
     <g id="line2d_11">
      <g>
       <use xlink:href="#me6cd9d53f6" x="90" y="165.497528" style="stroke: #000000; stroke-width: 0.8"/>
      </g>
     </g>
     <g id="text_12">
      <!-- 0.6 -->
      <g transform="translate(59.145313 171.196356) scale(0.15 -0.15)">
       <defs>
        <path id="DejaVuSans-36" d="M 2113 2584 
Q 1688 2584 1439 2293 
Q 1191 2003 1191 1497 
Q 1191 994 1439 701 
Q 1688 409 2113 409 
Q 2538 409 2786 701 
Q 3034 994 3034 1497 
Q 3034 2003 2786 2293 
Q 2538 2584 2113 2584 
z
M 3366 4563 
L 3366 3988 
Q 3128 4100 2886 4159 
Q 2644 4219 2406 4219 
Q 1781 4219 1451 3797 
Q 1122 3375 1075 2522 
Q 1259 2794 1537 2939 
Q 1816 3084 2150 3084 
Q 2853 3084 3261 2657 
Q 3669 2231 3669 1497 
Q 3669 778 3244 343 
Q 2819 -91 2113 -91 
Q 1303 -91 875 529 
Q 447 1150 447 2328 
Q 447 3434 972 4092 
Q 1497 4750 2381 4750 
Q 2619 4750 2861 4703 
Q 3103 4656 3366 4563 
z
" transform="scale(0.015625)"/>
       </defs>
       <use xlink:href="#DejaVuSans-30"/>
       <use xlink:href="#DejaVuSans-2e" x="63.623047"/>
       <use xlink:href="#DejaVuSans-36" x="95.410156"/>
      </g>
     </g>
    </g>
    <g id="ytick_5">
     <g id="line2d_12">
      <g>
       <use xlink:href="#me6cd9d53f6" x="90" y="117.54117" style="stroke: #000000; stroke-width: 0.8"/>
      </g>
     </g>
     <g id="text_13">
      <!-- 0.8 -->
      <g transform="translate(59.145313 123.239998) scale(0.15 -0.15)">
       <defs>
        <path id="DejaVuSans-38" d="M 2034 2216 
Q 1584 2216 1326 1975 
Q 1069 1734 1069 1313 
Q 1069 891 1326 650 
Q 1584 409 2034 409 
Q 2484 409 2743 651 
Q 3003 894 3003 1313 
Q 3003 1734 2745 1975 
Q 2488 2216 2034 2216 
z
M 1403 2484 
Q 997 2584 770 2862 
Q 544 3141 544 3541 
Q 544 4100 942 4425 
Q 1341 4750 2034 4750 
Q 2731 4750 3128 4425 
Q 3525 4100 3525 3541 
Q 3525 3141 3298 2862 
Q 3072 2584 2669 2484 
Q 3125 2378 3379 2068 
Q 3634 1759 3634 1313 
Q 3634 634 3220 271 
Q 2806 -91 2034 -91 
Q 1263 -91 848 271 
Q 434 634 434 1313 
Q 434 1759 690 2068 
Q 947 2378 1403 2484 
z
M 1172 3481 
Q 1172 3119 1398 2916 
Q 1625 2713 2034 2713 
Q 2441 2713 2670 2916 
Q 2900 3119 2900 3481 
Q 2900 3844 2670 4047 
Q 2441 4250 2034 4250 
Q 1625 4250 1398 4047 
Q 1172 3844 1172 3481 
z
" transform="scale(0.015625)"/>
       </defs>
       <use xlink:href="#DejaVuSans-30"/>
       <use xlink:href="#DejaVuSans-2e" x="63.623047"/>
       <use xlink:href="#DejaVuSans-38" x="95.410156"/>
      </g>
     </g>
    </g>
    <g id="ytick_6">
     <g id="line2d_13">
      <g>
       <use xlink:href="#me6cd9d53f6" x="90" y="69.584811" style="stroke: #000000; stroke-width: 0.8"/>
      </g>
     </g>
     <g id="text_14">
      <!-- 1.0 -->
      <g transform="translate(59.145313 75.283639) scale(0.15 -0.15)">
       <use xlink:href="#DejaVuSans-31"/>
       <use xlink:href="#DejaVuSans-2e" x="63.623047"/>
       <use xlink:href="#DejaVuSans-30" x="95.410156"/>
      </g>
     </g>
    </g>
    <g id="text_15">
     <!-- Error -->
     <g transform="translate(52.025781 200.077734) rotate(-90) scale(0.15 -0.15)">
      <defs>
       <path id="DejaVuSans-45" d="M 628 4666 
L 3578 4666 
L 3578 4134 
L 1259 4134 
L 1259 2753 
L 3481 2753 
L 3481 2222 
L 1259 2222 
L 1259 531 
L 3634 531 
L 3634 0 
L 628 0 
L 628 4666 
z
" transform="scale(0.015625)"/>
       <path id="DejaVuSans-72" d="M 2631 2963 
Q 2534 3019 2420 3045 
Q 2306 3072 2169 3072 
Q 1681 3072 1420 2755 
Q 1159 2438 1159 1844 
L 1159 0 
L 581 0 
L 581 3500 
L 1159 3500 
L 1159 2956 
Q 1341 3275 1631 3429 
Q 1922 3584 2338 3584 
Q 2397 3584 2469 3576 
Q 2541 3569 2628 3553 
L 2631 2963 
z
" transform="scale(0.015625)"/>
       <path id="DejaVuSans-6f" d="M 1959 3097 
Q 1497 3097 1228 2736 
Q 959 2375 959 1747 
Q 959 1119 1226 758 
Q 1494 397 1959 397 
Q 2419 397 2687 759 
Q 2956 1122 2956 1747 
Q 2956 2369 2687 2733 
Q 2419 3097 1959 3097 
z
M 1959 3584 
Q 2709 3584 3137 3096 
Q 3566 2609 3566 1747 
Q 3566 888 3137 398 
Q 2709 -91 1959 -91 
Q 1206 -91 779 398 
Q 353 888 353 1747 
Q 353 2609 779 3096 
Q 1206 3584 1959 3584 
z
" transform="scale(0.015625)"/>
      </defs>
      <use xlink:href="#DejaVuSans-45"/>
      <use xlink:href="#DejaVuSans-72" x="63.183594"/>
      <use xlink:href="#DejaVuSans-72" x="102.546875"/>
      <use xlink:href="#DejaVuSans-6f" x="141.410156"/>
      <use xlink:href="#DejaVuSans-72" x="202.591797"/>
     </g>
    </g>
   </g>
   <g id="line2d_14">
    <path d="M 115.363636 76.199744 
L 117.060201 61.107243 
L 118.756765 107.717203 
L 120.453329 149.45645 
L 122.149894 204.252624 
L 123.846458 248.823784 
L 125.543022 274.889328 
L 127.239587 285.973823 
L 128.936151 296.025596 
L 130.632715 295.840985 
L 132.329279 302.753055 
L 134.025844 305.840307 
L 135.722408 306.831383 
L 137.418972 304.964196 
L 139.115537 303.372452 
L 142.508665 305.056293 
L 144.20523 305.169045 
L 145.901794 304.190498 
L 147.598358 306.086868 
L 149.294922 304.870472 
L 150.991487 306.340845 
L 152.688051 305.991983 
L 154.384615 304.934714 
L 156.08118 304.779158 
L 157.777744 303.163438 
L 159.474308 298.838957 
L 161.170873 304.231787 
L 162.867437 302.517481 
L 164.564001 303.275969 
L 166.260566 303.047876 
L 167.95713 305.822715 
L 171.350258 303.855901 
L 173.046823 306.82888 
L 174.743387 306.554021 
L 176.439951 305.328741 
L 179.83308 305.738049 
L 181.529644 306.211144 
L 183.226209 305.868379 
L 184.922773 304.796898 
L 186.619337 307.674107 
L 188.315901 305.119969 
L 190.012466 305.43248 
L 191.70903 306.712462 
L 193.405594 304.925324 
L 195.102159 303.67678 
L 196.798723 305.021865 
L 198.495287 302.498773 
L 200.191852 302.972053 
L 201.888416 306.214642 
L 203.58498 305.303533 
L 205.281545 305.371817 
L 206.978109 306.511789 
L 208.674673 306.516508 
L 210.371237 306.65076 
L 212.067802 306.446371 
L 213.764366 305.789608 
L 215.46093 306.461362 
L 217.157495 307.403257 
L 218.854059 306.0944 
L 220.550623 305.526362 
L 222.247188 306.939141 
L 223.943752 305.431813 
L 225.640316 304.900868 
L 227.336881 305.044953 
L 229.033445 304.756634 
L 230.730009 306.572346 
L 232.426573 306.90778 
L 234.123138 306.102005 
L 235.819702 305.067992 
L 237.516266 305.354737 
L 239.212831 306.038817 
L 240.909395 306.313262 
L 242.605959 305.501874 
L 244.302524 303.786085 
L 245.999088 305.605961 
L 247.695652 305.934336 
L 249.392216 305.0322 
L 251.088781 307.582969 
L 252.785345 306.141453 
L 254.481909 304.435443 
L 256.178474 306.716233 
L 257.875038 304.509666 
L 259.571602 304.344916 
L 261.268167 305.488667 
L 262.964731 304.990232 
L 266.35786 306.666107 
L 268.054424 307.178939 
L 269.750988 306.25358 
L 273.144117 305.648457 
L 274.840681 306.919813 
L 276.537245 304.134574 
L 278.23381 305.376473 
L 279.930374 305.689711 
L 281.626938 306.247198 
L 283.323503 303.344229 
L 285.020067 304.382976 
L 286.716631 305.072748 
L 288.413196 305.200205 
L 290.10976 305.95632 
L 291.806324 305.001962 
L 293.502888 305.670167 
L 295.199453 306.68914 
L 296.896017 305.734897 
L 300.289146 305.840501 
L 301.98571 306.622405 
L 303.682274 306.853699 
L 305.378839 305.702611 
L 307.075403 307.192474 
L 308.771967 306.831329 
L 310.468531 306.591045 
L 312.165096 306.595476 
L 313.86166 307.026884 
L 315.558224 306.18408 
L 317.254789 306.726815 
L 318.951353 306.185472 
L 320.647917 306.206082 
L 322.344482 306.017464 
L 324.041046 306.26118 
L 325.73761 306.70118 
L 327.434175 306.987814 
L 329.130739 306.386385 
L 330.827303 304.825444 
L 332.523867 305.718805 
L 334.220432 305.734938 
L 335.916996 306.967037 
L 337.61356 306.060632 
L 339.310125 305.382507 
L 341.006689 306.518485 
L 344.399818 306.552514 
L 346.096382 305.723257 
L 347.792946 305.543605 
L 349.48951 307.031193 
L 351.186075 306.964667 
L 352.882639 306.716342 
L 354.579203 307.276567 
L 356.275768 305.805544 
L 357.972332 307.029122 
L 361.365461 306.483474 
L 363.062025 305.473538 
L 364.758589 304.786664 
L 366.455154 304.830291 
L 368.151718 305.926395 
L 369.848282 305.955346 
L 371.544846 307.312787 
L 373.241411 306.498637 
L 374.937975 306.974755 
L 376.634539 304.940799 
L 378.331104 303.950845 
L 380.027668 303.573698 
L 381.724232 306.136742 
L 383.420797 305.990402 
L 385.117361 306.124996 
L 386.813925 304.619643 
L 388.51049 306.246488 
L 390.207054 305.506872 
L 391.903618 306.148543 
L 393.600182 307.344482 
L 395.296747 306.427075 
L 396.993311 306.26811 
L 398.689875 305.620286 
L 400.38644 306.507557 
L 402.083004 306.45139 
L 403.779568 306.161426 
L 405.476133 306.203536 
L 407.172697 306.716381 
L 408.869261 306.963465 
L 410.565825 306.105075 
L 412.26239 306.157649 
L 413.958954 306.010781 
L 415.655518 306.883077 
L 417.352083 306.378752 
L 419.048647 306.865422 
L 420.745211 306.750238 
L 422.441776 307.568229 
L 424.13834 306.741285 
L 425.834904 306.466665 
L 427.531469 306.917037 
L 429.228033 306.044192 
L 430.924597 306.511139 
L 432.621161 305.90897 
L 434.317726 306.179454 
L 436.01429 305.821737 
L 437.710854 306.434108 
L 439.407419 306.60544 
L 441.103983 307.016663 
L 442.800547 305.30548 
L 444.497112 306.826439 
L 446.193676 306.142944 
L 447.89024 305.639343 
L 449.586804 306.494471 
L 451.283369 305.614597 
L 452.979933 306.962903 
L 454.676497 306.807704 
L 456.373062 305.240586 
L 458.069626 306.731145 
L 459.76619 306.735624 
L 461.462755 306.293469 
L 463.159319 306.753962 
L 464.855883 305.709889 
L 466.552448 307.12939 
L 468.249012 305.653174 
L 469.945576 306.2061 
L 471.64214 306.094611 
L 473.338705 305.84265 
L 475.035269 306.036825 
L 476.731833 305.813117 
L 478.428398 303.908083 
L 480.124962 305.633837 
L 481.821526 306.701221 
L 483.518091 306.130324 
L 485.214655 306.135369 
L 486.911219 306.503746 
L 488.607784 307.091144 
L 490.304348 307.05277 
L 492.000912 307.573542 
L 493.697476 305.977479 
L 495.394041 306.691412 
L 497.090605 306.595167 
L 498.787169 305.348712 
L 500.483734 306.963856 
L 502.180298 306.849621 
L 503.876862 307.663396 
L 505.573427 306.995343 
L 507.269991 307.24424 
L 508.966555 306.828187 
L 510.663119 307.638591 
L 512.359684 307.64483 
L 514.056248 306.188974 
L 515.752812 307.073929 
L 517.449377 306.315682 
L 519.145941 306.185801 
L 520.842505 306.929147 
L 522.53907 306.840296 
L 524.235634 307.8 
L 527.628763 305.304259 
L 532.718455 305.520623 
L 534.41502 305.046335 
L 536.111584 306.238796 
L 537.808148 305.847439 
L 539.504713 306.218524 
L 541.201277 307.066511 
L 542.897841 305.684382 
L 544.594406 304.916635 
L 546.29097 306.647169 
L 547.987534 305.231386 
L 549.684099 304.739477 
L 553.077227 306.892285 
L 554.773791 307.185991 
L 556.470356 305.944619 
L 558.16692 305.035968 
L 559.863484 306.069554 
L 561.560049 305.763483 
L 563.256613 307.397896 
L 564.953177 306.360323 
L 566.649742 306.825548 
L 568.346306 306.378958 
L 570.04287 305.739729 
L 571.739434 304.917925 
L 573.435999 306.535038 
L 575.132563 305.550474 
L 576.829127 304.99846 
L 578.525692 304.887879 
L 580.222256 306.193871 
L 581.91882 306.670559 
L 583.615385 307.030894 
L 585.311949 306.211533 
L 587.008513 306.871647 
L 588.705078 305.310863 
L 590.401642 307.043317 
L 592.098206 305.83195 
L 593.79477 306.995331 
L 595.491335 306.481223 
L 597.187899 306.896108 
L 598.884463 306.565563 
L 600.581028 307.434144 
L 602.277592 307.212606 
L 603.974156 307.190926 
L 605.670721 306.593193 
L 607.367285 307.735685 
L 609.063849 306.161411 
L 610.760413 307.641099 
L 612.456978 307.084741 
L 614.153542 307.231753 
L 615.850106 304.022216 
L 617.546671 306.31104 
L 619.243235 306.528269 
L 620.939799 305.60359 
L 622.636364 306.407356 
L 622.636364 306.407356 
" clip-path="url(#p6512c9afd7)" style="fill: none; stroke-dasharray: 5.55,2.4; stroke-dashoffset: 0; stroke: #1f77b4; stroke-width: 1.5"/>
   </g>
   <g id="line2d_15">
    <path d="M 115.363636 95.61964 
L 117.060201 93.262095 
L 118.756765 134.850758 
L 120.453329 160.865594 
L 122.149894 196.851074 
L 125.543022 246.231523 
L 127.239587 259.601984 
L 128.936151 277.194661 
L 130.632715 279.830857 
L 132.329279 287.189768 
L 134.025844 293.413992 
L 135.722408 294.64805 
L 137.418972 295.551595 
L 139.115537 298.401504 
L 140.812101 300.053484 
L 142.508665 303.028103 
L 145.901794 303.400756 
L 147.598358 305.299065 
L 149.294922 302.444003 
L 150.991487 305.658788 
L 152.688051 303.790661 
L 154.384615 302.470959 
L 156.08118 302.532339 
L 157.777744 301.290369 
L 159.474308 299.099063 
L 161.170873 305.151911 
L 162.867437 303.441042 
L 166.260566 303.354599 
L 167.95713 305.567439 
L 169.653694 304.527491 
L 171.350258 303.73896 
L 173.046823 305.402652 
L 174.743387 306.241838 
L 176.439951 306.332209 
L 178.136516 304.556525 
L 179.83308 305.537349 
L 181.529644 305.873633 
L 183.226209 304.8381 
L 184.922773 305.153823 
L 186.619337 307.66652 
L 188.315901 304.220974 
L 190.012466 304.303492 
L 191.70903 304.649969 
L 193.405594 304.833379 
L 195.102159 302.180446 
L 196.798723 303.238276 
L 198.495287 301.105279 
L 200.191852 300.830112 
L 201.888416 303.745699 
L 203.58498 302.441628 
L 205.281545 303.064548 
L 206.978109 304.510325 
L 208.674673 305.546547 
L 210.371237 305.053606 
L 212.067802 305.449307 
L 213.764366 305.172926 
L 215.46093 305.3252 
L 217.157495 306.538921 
L 218.854059 305.335103 
L 220.550623 303.51374 
L 222.247188 304.948871 
L 223.943752 303.128686 
L 225.640316 302.518622 
L 227.336881 302.982582 
L 229.033445 304.097668 
L 230.730009 306.106758 
L 232.426573 305.672329 
L 234.123138 303.98225 
L 235.819702 303.167568 
L 237.516266 303.18695 
L 239.212831 303.768784 
L 240.909395 305.190664 
L 242.605959 303.908475 
L 244.302524 303.976745 
L 245.999088 304.738816 
L 247.695652 305.654424 
L 249.392216 305.002896 
L 251.088781 307.212611 
L 252.785345 304.730179 
L 254.481909 303.267531 
L 256.178474 305.457008 
L 257.875038 303.675005 
L 259.571602 303.21008 
L 261.268167 303.552736 
L 262.964731 303.555156 
L 264.661295 304.286744 
L 266.35786 306.111702 
L 268.054424 306.390708 
L 269.750988 305.319056 
L 271.447552 303.956066 
L 273.144117 302.779293 
L 274.840681 304.684391 
L 276.537245 301.312156 
L 278.23381 303.637631 
L 279.930374 304.662873 
L 281.626938 305.427158 
L 283.323503 299.965574 
L 285.020067 302.046065 
L 286.716631 302.650371 
L 290.10976 302.9976 
L 291.806324 301.381382 
L 293.502888 301.87237 
L 295.199453 304.518398 
L 296.896017 302.129157 
L 298.592581 302.253612 
L 300.289146 302.497747 
L 301.98571 303.84916 
L 303.682274 304.761382 
L 305.378839 302.758161 
L 307.075403 305.267587 
L 308.771967 304.840972 
L 310.468531 305.485724 
L 312.165096 304.850153 
L 313.86166 305.748668 
L 315.558224 304.901107 
L 317.254789 305.509396 
L 320.647917 304.194983 
L 322.344482 304.340441 
L 324.041046 303.7598 
L 325.73761 304.619836 
L 327.434175 304.27293 
L 329.130739 302.810136 
L 330.827303 300.598861 
L 332.523867 302.941205 
L 334.220432 303.026295 
L 335.916996 304.871127 
L 337.61356 304.001325 
L 339.310125 303.73111 
L 341.006689 305.099072 
L 342.703253 304.976926 
L 344.399818 304.533325 
L 346.096382 303.104722 
L 347.792946 304.249296 
L 349.48951 305.921226 
L 351.186075 306.232146 
L 352.882639 305.932529 
L 354.579203 306.370221 
L 356.275768 303.771768 
L 357.972332 305.787825 
L 359.668896 305.694395 
L 361.365461 304.780914 
L 363.062025 302.889896 
L 366.455154 302.244208 
L 368.151718 303.621979 
L 369.848282 303.696983 
L 371.544846 305.804841 
L 373.241411 305.104948 
L 374.937975 304.943308 
L 376.634539 301.669867 
L 378.331104 301.460587 
L 380.027668 299.985669 
L 381.724232 303.719989 
L 383.420797 303.124363 
L 385.117361 303.27127 
L 386.813925 301.077559 
L 388.51049 303.676031 
L 390.207054 302.845904 
L 391.903618 303.184893 
L 393.600182 306.78441 
L 395.296747 304.061143 
L 396.993311 304.156246 
L 398.689875 303.625535 
L 400.38644 304.765084 
L 402.083004 304.51159 
L 403.779568 304.066637 
L 405.476133 304.063979 
L 408.869261 304.623451 
L 410.565825 303.511672 
L 413.958954 304.000951 
L 415.655518 306.094934 
L 417.352083 304.725014 
L 419.048647 306.259468 
L 420.745211 305.865133 
L 422.441776 306.437557 
L 424.13834 305.290643 
L 425.834904 305.108579 
L 427.531469 305.318053 
L 429.228033 304.0623 
L 430.924597 304.486894 
L 432.621161 304.106929 
L 434.317726 304.541895 
L 436.01429 304.57313 
L 437.710854 304.902793 
L 439.407419 304.915911 
L 441.103983 305.955925 
L 442.800547 303.39807 
L 444.497112 305.892667 
L 447.89024 304.573251 
L 449.586804 304.996167 
L 451.283369 304.10609 
L 452.979933 305.58083 
L 454.676497 305.603711 
L 456.373062 302.34671 
L 458.069626 304.252452 
L 459.76619 305.462675 
L 461.462755 304.431855 
L 463.159319 305.277764 
L 464.855883 304.312002 
L 466.552448 306.22486 
L 468.249012 304.828937 
L 469.945576 305.049193 
L 471.64214 304.106115 
L 473.338705 303.658716 
L 475.035269 303.508591 
L 476.731833 302.546301 
L 478.428398 299.448351 
L 480.124962 302.303159 
L 481.821526 303.736984 
L 483.518091 303.740821 
L 485.214655 304.535531 
L 486.911219 303.683724 
L 488.607784 304.549355 
L 490.304348 306.020087 
L 492.000912 305.98326 
L 493.697476 304.533322 
L 495.394041 305.126999 
L 497.090605 304.748143 
L 498.787169 303.860672 
L 500.483734 305.649247 
L 502.180298 305.444813 
L 503.876862 306.91693 
L 505.573427 306.157724 
L 507.269991 306.138219 
L 508.966555 306.365136 
L 512.359684 307.297454 
L 514.056248 306.132357 
L 515.752812 306.325575 
L 517.449377 306.085328 
L 519.145941 305.12536 
L 520.842505 306.054496 
L 522.53907 305.953454 
L 524.235634 307.183172 
L 525.932198 304.238016 
L 527.628763 302.986899 
L 529.325327 302.847418 
L 531.021891 303.224389 
L 532.718455 303.150264 
L 534.41502 302.039008 
L 536.111584 303.692972 
L 537.808148 302.332777 
L 539.504713 303.234758 
L 541.201277 305.241422 
L 542.897841 303.38594 
L 544.594406 303.202444 
L 546.29097 304.674659 
L 547.987534 302.665554 
L 549.684099 302.181048 
L 551.380663 304.520015 
L 553.077227 305.253105 
L 554.773791 306.689923 
L 556.470356 304.636674 
L 558.16692 303.015942 
L 559.863484 304.055605 
L 561.560049 303.408256 
L 563.256613 306.366779 
L 564.953177 305.040981 
L 566.649742 305.047318 
L 570.04287 303.278187 
L 571.739434 302.058635 
L 573.435999 304.266683 
L 575.132563 302.078523 
L 576.829127 301.803673 
L 578.525692 302.188225 
L 581.91882 304.001135 
L 583.615385 305.478342 
L 585.311949 306.351973 
L 587.008513 305.103562 
L 588.705078 303.094703 
L 590.401642 306.206012 
L 592.098206 304.501189 
L 593.79477 306.581658 
L 595.491335 304.63633 
L 597.187899 305.821143 
L 598.884463 304.756902 
L 600.581028 306.170653 
L 603.974156 305.346001 
L 605.670721 305.644651 
L 607.367285 306.893503 
L 609.063849 305.972523 
L 610.760413 306.645498 
L 612.456978 305.662888 
L 614.153542 305.246655 
L 615.850106 302.063787 
L 617.546671 305.007059 
L 619.243235 304.609514 
L 620.939799 302.90244 
L 622.636364 304.402069 
L 622.636364 304.402069 
" clip-path="url(#p6512c9afd7)" style="fill: none; stroke: #ff7f0e; stroke-width: 1.5; stroke-linecap: square"/>
   </g>
   <g id="line2d_16">
    <path d="M 115.363636 72.640696 
L 117.060201 55.8 
L 118.756765 109.324839 
L 120.453329 142.954439 
L 122.149894 183.626415 
L 125.543022 232.967324 
L 127.239587 250.497699 
L 128.936151 270.841211 
L 130.632715 275.080598 
L 132.329279 284.019027 
L 134.025844 290.583807 
L 135.722408 292.823387 
L 137.418972 294.282558 
L 139.115537 296.737139 
L 140.812101 298.620063 
L 142.508665 301.638328 
L 144.20523 301.317627 
L 145.901794 301.919806 
L 147.598358 304.055004 
L 149.294922 301.082557 
L 150.991487 304.838031 
L 152.688051 303.087823 
L 154.384615 301.985691 
L 156.08118 302.563445 
L 159.474308 299.240549 
L 161.170873 304.860681 
L 162.867437 303.131979 
L 166.260566 302.61956 
L 167.95713 305.108359 
L 169.653694 304.018577 
L 171.350258 303.328906 
L 173.046823 304.843865 
L 174.743387 305.909207 
L 176.439951 305.873765 
L 178.136516 303.819087 
L 179.83308 305.371987 
L 181.529644 305.5925 
L 183.226209 304.6008 
L 184.922773 305.249791 
L 186.619337 307.503435 
L 188.315901 303.989752 
L 191.70903 304.226308 
L 193.405594 304.663262 
L 195.102159 301.913748 
L 196.798723 302.765224 
L 198.495287 300.626856 
L 200.191852 299.827817 
L 201.888416 303.069322 
L 203.58498 302.021691 
L 205.281545 302.503351 
L 206.978109 304.023074 
L 208.674673 305.321642 
L 210.371237 304.634793 
L 212.067802 305.184904 
L 213.764366 304.698941 
L 215.46093 304.901456 
L 217.157495 306.136939 
L 218.854059 305.067844 
L 220.550623 302.856169 
L 222.247188 304.551807 
L 223.943752 302.60458 
L 225.640316 301.992524 
L 227.336881 302.662427 
L 229.033445 303.699983 
L 230.730009 305.834477 
L 232.426573 305.206289 
L 234.123138 303.35945 
L 235.819702 302.53477 
L 237.516266 302.550789 
L 239.212831 303.168612 
L 240.909395 304.841971 
L 242.605959 303.615192 
L 244.302524 303.748869 
L 245.999088 304.390694 
L 247.695652 305.467099 
L 249.392216 304.74692 
L 251.088781 306.946721 
L 252.785345 304.623741 
L 254.481909 302.987357 
L 256.178474 305.030165 
L 257.875038 303.395248 
L 259.571602 302.852245 
L 261.268167 303.244052 
L 262.964731 303.268838 
L 264.661295 304.201628 
L 266.35786 305.912358 
L 268.054424 306.01198 
L 269.750988 305.034881 
L 271.447552 303.347352 
L 273.144117 302.294009 
L 274.840681 304.246317 
L 276.537245 301.102099 
L 278.23381 303.347397 
L 279.930374 304.451702 
L 281.626938 305.173901 
L 283.323503 299.439538 
L 285.020067 301.40619 
L 286.716631 302.160208 
L 290.10976 302.43139 
L 291.806324 300.39065 
L 293.502888 301.307916 
L 295.199453 304.071544 
L 296.896017 301.369466 
L 298.592581 301.260544 
L 300.289146 301.810748 
L 301.98571 303.058289 
L 303.682274 304.077888 
L 305.378839 302.09149 
L 307.075403 304.7268 
L 308.771967 304.258317 
L 310.468531 304.950949 
L 312.165096 304.374571 
L 313.86166 305.411721 
L 315.558224 304.571158 
L 317.254789 305.161324 
L 318.951353 304.54855 
L 320.647917 303.576782 
L 322.344482 303.894104 
L 324.041046 302.902953 
L 325.73761 304.000111 
L 327.434175 303.420877 
L 329.130739 301.983541 
L 330.827303 299.832581 
L 332.523867 302.550167 
L 334.220432 302.546376 
L 335.916996 304.221058 
L 337.61356 303.525182 
L 339.310125 303.402901 
L 341.006689 304.749497 
L 342.703253 304.574217 
L 344.399818 304.010665 
L 346.096382 302.643783 
L 347.792946 303.991759 
L 349.48951 305.661013 
L 351.186075 305.981634 
L 352.882639 305.763302 
L 354.579203 306.120283 
L 356.275768 303.436335 
L 357.972332 305.638733 
L 359.668896 305.486914 
L 361.365461 304.310787 
L 363.062025 302.439282 
L 366.455154 301.815589 
L 368.151718 303.266691 
L 369.848282 303.386479 
L 371.544846 305.462776 
L 373.241411 304.820125 
L 374.937975 304.589627 
L 376.634539 301.09535 
L 378.331104 300.889428 
L 380.027668 299.50095 
L 381.724232 303.167704 
L 383.420797 302.451691 
L 385.117361 302.648819 
L 386.813925 300.626301 
L 388.51049 302.887633 
L 390.207054 302.245628 
L 391.903618 302.517239 
L 393.600182 306.396961 
L 395.296747 303.466628 
L 396.993311 303.626958 
L 398.689875 303.112965 
L 400.38644 304.354379 
L 402.083004 304.10977 
L 403.779568 303.579925 
L 405.476133 303.537172 
L 407.172697 303.657086 
L 408.869261 304.012023 
L 410.565825 303.06948 
L 412.26239 303.113754 
L 413.958954 303.522622 
L 415.655518 305.781924 
L 417.352083 304.460582 
L 419.048647 306.096705 
L 420.745211 305.747965 
L 422.441776 306.090809 
L 424.13834 305.018305 
L 425.834904 304.836416 
L 427.531469 304.782029 
L 429.228033 303.636388 
L 430.924597 304.066734 
L 432.621161 303.861076 
L 436.01429 304.463362 
L 437.710854 304.578266 
L 439.407419 304.524819 
L 441.103983 305.801034 
L 442.800547 303.180433 
L 444.497112 305.767094 
L 447.89024 304.369828 
L 449.586804 304.654875 
L 451.283369 303.878077 
L 452.979933 305.213619 
L 454.676497 305.326289 
L 456.373062 301.681291 
L 458.069626 303.822281 
L 459.76619 305.297624 
L 461.462755 304.22191 
L 463.159319 304.943825 
L 464.855883 304.269305 
L 466.552448 306.106686 
L 468.249012 304.791494 
L 469.945576 304.861666 
L 471.64214 303.838148 
L 473.338705 303.153443 
L 475.035269 302.966089 
L 476.731833 301.925378 
L 478.428398 298.832168 
L 480.124962 301.781559 
L 481.821526 303.249887 
L 483.518091 303.369391 
L 485.214655 304.15068 
L 486.911219 303.093548 
L 488.607784 304.079003 
L 490.304348 305.828988 
L 492.000912 305.55438 
L 493.697476 304.339839 
L 495.394041 304.900748 
L 498.787169 303.652361 
L 500.483734 305.370758 
L 502.180298 305.106929 
L 503.876862 306.699515 
L 505.573427 305.89155 
L 507.269991 305.94554 
L 508.966555 306.415905 
L 510.663119 306.591803 
L 512.359684 307.200479 
L 514.056248 306.155342 
L 517.449377 306.055929 
L 519.145941 305.016921 
L 520.842505 305.891943 
L 522.53907 305.842896 
L 524.235634 307.024533 
L 525.932198 303.82373 
L 527.628763 302.956663 
L 529.325327 302.592287 
L 531.021891 302.836783 
L 532.718455 302.663704 
L 534.41502 301.559541 
L 536.111584 302.982179 
L 537.808148 301.541297 
L 539.504713 302.800608 
L 541.201277 305.009107 
L 542.897841 302.761842 
L 544.594406 302.767487 
L 546.29097 304.13593 
L 547.987534 302.289015 
L 549.684099 301.762695 
L 551.380663 304.328551 
L 553.077227 304.936916 
L 554.773791 306.392774 
L 556.470356 304.225785 
L 558.16692 302.623756 
L 559.863484 303.660013 
L 561.560049 303.053745 
L 563.256613 306.209573 
L 564.953177 304.752655 
L 566.649742 304.683585 
L 570.04287 302.771637 
L 571.739434 301.515388 
L 573.435999 303.476611 
L 575.132563 301.314063 
L 576.829127 301.291692 
L 578.525692 301.718157 
L 580.222256 302.536666 
L 581.91882 303.50724 
L 583.615385 305.114308 
L 585.311949 306.152079 
L 587.008513 304.586348 
L 588.705078 302.74577 
L 590.401642 305.994247 
L 592.098206 304.177964 
L 593.79477 306.339164 
L 595.491335 304.160303 
L 597.187899 305.437823 
L 598.884463 304.342637 
L 600.581028 305.847526 
L 602.277592 305.351364 
L 603.974156 304.973933 
L 605.670721 305.438875 
L 607.367285 306.697022 
L 609.063849 305.981345 
L 610.760413 306.353952 
L 612.456978 305.133204 
L 614.153542 304.968864 
L 615.850106 301.938304 
L 617.546671 304.723258 
L 619.243235 304.151443 
L 620.939799 302.581103 
L 622.636364 303.959144 
L 622.636364 303.959144 
" clip-path="url(#p6512c9afd7)" style="fill: none; stroke: #2ca02c; stroke-width: 1.5; stroke-linecap: square"/>
   </g>
   <g id="patch_3">
    <path d="M 90 320.4 
L 90 43.2 
" style="fill: none; stroke: #000000; stroke-width: 0.8; stroke-linejoin: miter; stroke-linecap: square"/>
   </g>
   <g id="patch_4">
    <path d="M 648 320.4 
L 648 43.2 
" style="fill: none; stroke: #000000; stroke-width: 0.8; stroke-linejoin: miter; stroke-linecap: square"/>
   </g>
   <g id="patch_5">
    <path d="M 90 320.4 
L 648 320.4 
" style="fill: none; stroke: #000000; stroke-width: 0.8; stroke-linejoin: miter; stroke-linecap: square"/>
   </g>
   <g id="patch_6">
    <path d="M 90 43.2 
L 648 43.2 
" style="fill: none; stroke: #000000; stroke-width: 0.8; stroke-linejoin: miter; stroke-linecap: square"/>
   </g>
   <g id="legend_1">
    <g id="patch_7">
     <path d="M 518.983594 121.251562 
L 637.5 121.251562 
Q 640.5 121.251562 640.5 118.251562 
L 640.5 53.7 
Q 640.5 50.7 637.5 50.7 
L 518.983594 50.7 
Q 515.983594 50.7 515.983594 53.7 
L 515.983594 118.251562 
Q 515.983594 121.251562 518.983594 121.251562 
z
" style="fill: #ffffff; opacity: 0.8; stroke: #cccccc; stroke-linejoin: miter"/>
    </g>
    <g id="line2d_17">
     <path d="M 521.983594 62.847656 
L 536.983594 62.847656 
L 551.983594 62.847656 
" style="fill: none; stroke-dasharray: 5.55,2.4; stroke-dashoffset: 0; stroke: #1f77b4; stroke-width: 1.5"/>
    </g>
    <g id="text_16">
     <!-- JRN error -->
     <g transform="translate(563.983594 68.097656) scale(0.15 -0.15)">
      <defs>
       <path id="DejaVuSans-4a" d="M 628 4666 
L 1259 4666 
L 1259 325 
Q 1259 -519 939 -900 
Q 619 -1281 -91 -1281 
L -331 -1281 
L -331 -750 
L -134 -750 
Q 284 -750 456 -515 
Q 628 -281 628 325 
L 628 4666 
z
" transform="scale(0.015625)"/>
       <path id="DejaVuSans-52" d="M 2841 2188 
Q 3044 2119 3236 1894 
Q 3428 1669 3622 1275 
L 4263 0 
L 3584 0 
L 2988 1197 
Q 2756 1666 2539 1819 
Q 2322 1972 1947 1972 
L 1259 1972 
L 1259 0 
L 628 0 
L 628 4666 
L 2053 4666 
Q 2853 4666 3247 4331 
Q 3641 3997 3641 3322 
Q 3641 2881 3436 2590 
Q 3231 2300 2841 2188 
z
M 1259 4147 
L 1259 2491 
L 2053 2491 
Q 2509 2491 2742 2702 
Q 2975 2913 2975 3322 
Q 2975 3731 2742 3939 
Q 2509 4147 2053 4147 
L 1259 4147 
z
" transform="scale(0.015625)"/>
       <path id="DejaVuSans-4e" d="M 628 4666 
L 1478 4666 
L 3547 763 
L 3547 4666 
L 4159 4666 
L 4159 0 
L 3309 0 
L 1241 3903 
L 1241 0 
L 628 0 
L 628 4666 
z
" transform="scale(0.015625)"/>
       <path id="DejaVuSans-20" transform="scale(0.015625)"/>
      </defs>
      <use xlink:href="#DejaVuSans-4a"/>
      <use xlink:href="#DejaVuSans-52" x="29.492188"/>
      <use xlink:href="#DejaVuSans-4e" x="98.974609"/>
      <use xlink:href="#DejaVuSans-20" x="173.779297"/>
      <use xlink:href="#DejaVuSans-65" x="205.566406"/>
      <use xlink:href="#DejaVuSans-72" x="267.089844"/>
      <use xlink:href="#DejaVuSans-72" x="306.453125"/>
      <use xlink:href="#DejaVuSans-6f" x="345.316406"/>
      <use xlink:href="#DejaVuSans-72" x="406.498047"/>
     </g>
    </g>
    <g id="line2d_18">
     <path d="M 521.983594 84.864844 
L 536.983594 84.864844 
L 551.983594 84.864844 
" style="fill: none; stroke: #ff7f0e; stroke-width: 1.5; stroke-linecap: square"/>
    </g>
    <g id="text_17">
     <!-- EKF error -->
     <g transform="translate(563.983594 90.114844) scale(0.15 -0.15)">
      <defs>
       <path id="DejaVuSans-4b" d="M 628 4666 
L 1259 4666 
L 1259 2694 
L 3353 4666 
L 4166 4666 
L 1850 2491 
L 4331 0 
L 3500 0 
L 1259 2247 
L 1259 0 
L 628 0 
L 628 4666 
z
" transform="scale(0.015625)"/>
       <path id="DejaVuSans-46" d="M 628 4666 
L 3309 4666 
L 3309 4134 
L 1259 4134 
L 1259 2759 
L 3109 2759 
L 3109 2228 
L 1259 2228 
L 1259 0 
L 628 0 
L 628 4666 
z
" transform="scale(0.015625)"/>
      </defs>
      <use xlink:href="#DejaVuSans-45"/>
      <use xlink:href="#DejaVuSans-4b" x="63.183594"/>
      <use xlink:href="#DejaVuSans-46" x="128.759766"/>
      <use xlink:href="#DejaVuSans-20" x="186.279297"/>
      <use xlink:href="#DejaVuSans-65" x="218.066406"/>
      <use xlink:href="#DejaVuSans-72" x="279.589844"/>
      <use xlink:href="#DejaVuSans-72" x="318.953125"/>
      <use xlink:href="#DejaVuSans-6f" x="357.816406"/>
      <use xlink:href="#DejaVuSans-72" x="418.998047"/>
     </g>
    </g>
    <g id="line2d_19">
     <path d="M 521.983594 106.882031 
L 536.983594 106.882031 
L 551.983594 106.882031 
" style="fill: none; stroke: #2ca02c; stroke-width: 1.5; stroke-linecap: square"/>
    </g>
    <g id="text_18">
     <!-- UKF error -->
     <g transform="translate(563.983594 112.132031) scale(0.15 -0.15)">
      <defs>
       <path id="DejaVuSans-55" d="M 556 4666 
L 1191 4666 
L 1191 1831 
Q 1191 1081 1462 751 
Q 1734 422 2344 422 
Q 2950 422 3222 751 
Q 3494 1081 3494 1831 
L 3494 4666 
L 4128 4666 
L 4128 1753 
Q 4128 841 3676 375 
Q 3225 -91 2344 -91 
Q 1459 -91 1007 375 
Q 556 841 556 1753 
L 556 4666 
z
" transform="scale(0.015625)"/>
      </defs>
      <use xlink:href="#DejaVuSans-55"/>
      <use xlink:href="#DejaVuSans-4b" x="73.193359"/>
      <use xlink:href="#DejaVuSans-46" x="138.769531"/>
      <use xlink:href="#DejaVuSans-20" x="196.289062"/>
      <use xlink:href="#DejaVuSans-65" x="228.076172"/>
      <use xlink:href="#DejaVuSans-72" x="289.599609"/>
      <use xlink:href="#DejaVuSans-72" x="328.962891"/>
      <use xlink:href="#DejaVuSans-6f" x="367.826172"/>
      <use xlink:href="#DejaVuSans-72" x="429.007812"/>
     </g>
    </g>
   </g>
  </g>
 </g>
 <defs>
  <clipPath id="p6512c9afd7">
   <rect x="90" y="43.2" width="558" height="277.2"/>
  </clipPath>
 </defs>
</svg>
