<?xml version="1.0" encoding="utf-8" standalone="no"?>
<!DOCTYPE svg PUBLIC "-//W3C//DTD SVG 1.1//EN"
  "http://www.w3.org/Graphics/SVG/1.1/DTD/svg11.dtd">
<svg xmlns:xlink="http://www.w3.org/1999/xlink" width="720pt" height="360pt" viewBox="0 0 720 360" xmlns="http://www.w3.org/2000/svg" version="1.1">
 <metadata>
  <rdf:RDF xmlns:dc="http://purl.org/dc/elements/1.1/" xmlns:cc="http://creativecommons.org/ns#" xmlns:rdf="http://www.w3.org/1999/02/22-rdf-syntax-ns#">
   <cc:Work>
    <dc:type rdf:resource="http://purl.org/dc/dcmitype/StillImage"/>
    <dc:date>2025-06-28T15:06:49.929658</dc:date>
    <dc:format>image/svg+xml</dc:format>
    <dc:creator>
     <cc:Agent>
      <dc:title>Matplotlib v3.8.4, https://matplotlib.org/</dc:title>
     </cc:Agent>
    </dc:creator>
   </cc:Work>
  </rdf:RDF>
 </metadata>
 <defs>
  <style type="text/css">*{stroke-linejoin: round; stroke-linecap: butt}</style>
 </defs>
 <g id="figure_1">
  <g id="patch_1">
   <path d="M 0 360 
L 720 360 
L 720 0 
L 0 0 
z
" style="fill: #ffffff"/>
  </g>
  <g id="axes_1">
   <g id="patch_2">
    <path d="M 90 320.4 
L 648 320.4 
L 648 43.2 
L 90 43.2 
z
" style="fill: #ffffff"/>
   </g>
   <g id="matplotlib.axis_1">
    <g id="xtick_1">
     <g id="line2d_1">
      <defs>
       <path id="m8548d21e9e" d="M 0 0 
L 0 3.5 
" style="stroke: #000000; stroke-width: 0.8"/>
      </defs>
      <g>
       <use xlink:href="#m8548d21e9e" x="115.363636" y="320.4" style="stroke: #000000; stroke-width: 0.8"/>
      </g>
     </g>
     <g id="text_1">
      <!-- 0 -->
      <g transform="translate(110.591761 338.797656) scale(0.15 -0.15)">
       <defs>
        <path id="DejaVuSans-30" d="M 2034 4250 
Q 1547 4250 1301 3770 
Q 1056 3291 1056 2328 
Q 1056 1369 1301 889 
Q 1547 409 2034 409 
Q 2525 409 2770 889 
Q 3016 1369 3016 2328 
Q 3016 3291 2770 3770 
Q 2525 4250 2034 4250 
z
M 2034 4750 
Q 2819 4750 3233 4129 
Q 3647 3509 3647 2328 
Q 3647 1150 3233 529 
Q 2819 -91 2034 -91 
Q 1250 -91 836 529 
Q 422 1150 422 2328 
Q 422 3509 836 4129 
Q 1250 4750 2034 4750 
z
" transform="scale(0.015625)"/>
       </defs>
       <use xlink:href="#DejaVuSans-30"/>
      </g>
     </g>
    </g>
    <g id="xtick_2">
     <g id="line2d_2">
      <g>
       <use xlink:href="#m8548d21e9e" x="200.191852" y="320.4" style="stroke: #000000; stroke-width: 0.8"/>
      </g>
     </g>
     <g id="text_2">
      <!-- 50 -->
      <g transform="translate(190.648102 338.797656) scale(0.15 -0.15)">
       <defs>
        <path id="DejaVuSans-35" d="M 691 4666 
L 3169 4666 
L 3169 4134 
L 1269 4134 
L 1269 2991 
Q 1406 3038 1543 3061 
Q 1681 3084 1819 3084 
Q 2600 3084 3056 2656 
Q 3513 2228 3513 1497 
Q 3513 744 3044 326 
Q 2575 -91 1722 -91 
Q 1428 -91 1123 -41 
Q 819 9 494 109 
L 494 744 
Q 775 591 1075 516 
Q 1375 441 1709 441 
Q 2250 441 2565 725 
Q 2881 1009 2881 1497 
Q 2881 1984 2565 2268 
Q 2250 2553 1709 2553 
Q 1456 2553 1204 2497 
Q 953 2441 691 2322 
L 691 4666 
z
" transform="scale(0.015625)"/>
       </defs>
       <use xlink:href="#DejaVuSans-35"/>
       <use xlink:href="#DejaVuSans-30" x="63.623047"/>
      </g>
     </g>
    </g>
    <g id="xtick_3">
     <g id="line2d_3">
      <g>
       <use xlink:href="#m8548d21e9e" x="285.020067" y="320.4" style="stroke: #000000; stroke-width: 0.8"/>
      </g>
     </g>
     <g id="text_3">
      <!-- 100 -->
      <g transform="translate(270.704442 338.797656) scale(0.15 -0.15)">
       <defs>
        <path id="DejaVuSans-31" d="M 794 531 
L 1825 531 
L 1825 4091 
L 703 3866 
L 703 4441 
L 1819 4666 
L 2450 4666 
L 2450 531 
L 3481 531 
L 3481 0 
L 794 0 
L 794 531 
z
" transform="scale(0.015625)"/>
       </defs>
       <use xlink:href="#DejaVuSans-31"/>
       <use xlink:href="#DejaVuSans-30" x="63.623047"/>
       <use xlink:href="#DejaVuSans-30" x="127.246094"/>
      </g>
     </g>
    </g>
    <g id="xtick_4">
     <g id="line2d_4">
      <g>
       <use xlink:href="#m8548d21e9e" x="369.848282" y="320.4" style="stroke: #000000; stroke-width: 0.8"/>
      </g>
     </g>
     <g id="text_4">
      <!-- 150 -->
      <g transform="translate(355.532657 338.797656) scale(0.15 -0.15)">
       <use xlink:href="#DejaVuSans-31"/>
       <use xlink:href="#DejaVuSans-35" x="63.623047"/>
       <use xlink:href="#DejaVuSans-30" x="127.246094"/>
      </g>
     </g>
    </g>
    <g id="xtick_5">
     <g id="line2d_5">
      <g>
       <use xlink:href="#m8548d21e9e" x="454.676497" y="320.4" style="stroke: #000000; stroke-width: 0.8"/>
      </g>
     </g>
     <g id="text_5">
      <!-- 200 -->
      <g transform="translate(440.360872 338.797656) scale(0.15 -0.15)">
       <defs>
        <path id="DejaVuSans-32" d="M 1228 531 
L 3431 531 
L 3431 0 
L 469 0 
L 469 531 
Q 828 903 1448 1529 
Q 2069 2156 2228 2338 
Q 2531 2678 2651 2914 
Q 2772 3150 2772 3378 
Q 2772 3750 2511 3984 
Q 2250 4219 1831 4219 
Q 1534 4219 1204 4116 
Q 875 4013 500 3803 
L 500 4441 
Q 881 4594 1212 4672 
Q 1544 4750 1819 4750 
Q 2544 4750 2975 4387 
Q 3406 4025 3406 3419 
Q 3406 3131 3298 2873 
Q 3191 2616 2906 2266 
Q 2828 2175 2409 1742 
Q 1991 1309 1228 531 
z
" transform="scale(0.015625)"/>
       </defs>
       <use xlink:href="#DejaVuSans-32"/>
       <use xlink:href="#DejaVuSans-30" x="63.623047"/>
       <use xlink:href="#DejaVuSans-30" x="127.246094"/>
      </g>
     </g>
    </g>
    <g id="xtick_6">
     <g id="line2d_6">
      <g>
       <use xlink:href="#m8548d21e9e" x="539.504713" y="320.4" style="stroke: #000000; stroke-width: 0.8"/>
      </g>
     </g>
     <g id="text_6">
      <!-- 250 -->
      <g transform="translate(525.189088 338.797656) scale(0.15 -0.15)">
       <use xlink:href="#DejaVuSans-32"/>
       <use xlink:href="#DejaVuSans-35" x="63.623047"/>
       <use xlink:href="#DejaVuSans-30" x="127.246094"/>
      </g>
     </g>
    </g>
    <g id="xtick_7">
     <g id="line2d_7">
      <g>
       <use xlink:href="#m8548d21e9e" x="624.332928" y="320.4" style="stroke: #000000; stroke-width: 0.8"/>
      </g>
     </g>
     <g id="text_7">
      <!-- 300 -->
      <g transform="translate(610.017303 338.797656) scale(0.15 -0.15)">
       <defs>
        <path id="DejaVuSans-33" d="M 2597 2516 
Q 3050 2419 3304 2112 
Q 3559 1806 3559 1356 
Q 3559 666 3084 287 
Q 2609 -91 1734 -91 
Q 1441 -91 1130 -33 
Q 819 25 488 141 
L 488 750 
Q 750 597 1062 519 
Q 1375 441 1716 441 
Q 2309 441 2620 675 
Q 2931 909 2931 1356 
Q 2931 1769 2642 2001 
Q 2353 2234 1838 2234 
L 1294 2234 
L 1294 2753 
L 1863 2753 
Q 2328 2753 2575 2939 
Q 2822 3125 2822 3475 
Q 2822 3834 2567 4026 
Q 2313 4219 1838 4219 
Q 1578 4219 1281 4162 
Q 984 4106 628 3988 
L 628 4550 
Q 988 4650 1302 4700 
Q 1616 4750 1894 4750 
Q 2613 4750 3031 4423 
Q 3450 4097 3450 3541 
Q 3450 3153 3228 2886 
Q 3006 2619 2597 2516 
z
" transform="scale(0.015625)"/>
       </defs>
       <use xlink:href="#DejaVuSans-33"/>
       <use xlink:href="#DejaVuSans-30" x="63.623047"/>
       <use xlink:href="#DejaVuSans-30" x="127.246094"/>
      </g>
     </g>
    </g>
    <g id="text_8">
     <!-- Time-steps -->
     <g transform="translate(327.813281 357.314844) scale(0.15 -0.15)">
      <defs>
       <path id="DejaVuSans-54" d="M -19 4666 
L 3928 4666 
L 3928 4134 
L 2272 4134 
L 2272 0 
L 1638 0 
L 1638 4134 
L -19 4134 
L -19 4666 
z
" transform="scale(0.015625)"/>
       <path id="DejaVuSans-69" d="M 603 3500 
L 1178 3500 
L 1178 0 
L 603 0 
L 603 3500 
z
M 603 4863 
L 1178 4863 
L 1178 4134 
L 603 4134 
L 603 4863 
z
" transform="scale(0.015625)"/>
       <path id="DejaVuSans-6d" d="M 3328 2828 
Q 3544 3216 3844 3400 
Q 4144 3584 4550 3584 
Q 5097 3584 5394 3201 
Q 5691 2819 5691 2113 
L 5691 0 
L 5113 0 
L 5113 2094 
Q 5113 2597 4934 2840 
Q 4756 3084 4391 3084 
Q 3944 3084 3684 2787 
Q 3425 2491 3425 1978 
L 3425 0 
L 2847 0 
L 2847 2094 
Q 2847 2600 2669 2842 
Q 2491 3084 2119 3084 
Q 1678 3084 1418 2786 
Q 1159 2488 1159 1978 
L 1159 0 
L 581 0 
L 581 3500 
L 1159 3500 
L 1159 2956 
Q 1356 3278 1631 3431 
Q 1906 3584 2284 3584 
Q 2666 3584 2933 3390 
Q 3200 3197 3328 2828 
z
" transform="scale(0.015625)"/>
       <path id="DejaVuSans-65" d="M 3597 1894 
L 3597 1613 
L 953 1613 
Q 991 1019 1311 708 
Q 1631 397 2203 397 
Q 2534 397 2845 478 
Q 3156 559 3463 722 
L 3463 178 
Q 3153 47 2828 -22 
Q 2503 -91 2169 -91 
Q 1331 -91 842 396 
Q 353 884 353 1716 
Q 353 2575 817 3079 
Q 1281 3584 2069 3584 
Q 2775 3584 3186 3129 
Q 3597 2675 3597 1894 
z
M 3022 2063 
Q 3016 2534 2758 2815 
Q 2500 3097 2075 3097 
Q 1594 3097 1305 2825 
Q 1016 2553 972 2059 
L 3022 2063 
z
" transform="scale(0.015625)"/>
       <path id="DejaVuSans-2d" d="M 313 2009 
L 1997 2009 
L 1997 1497 
L 313 1497 
L 313 2009 
z
" transform="scale(0.015625)"/>
       <path id="DejaVuSans-73" d="M 2834 3397 
L 2834 2853 
Q 2591 2978 2328 3040 
Q 2066 3103 1784 3103 
Q 1356 3103 1142 2972 
Q 928 2841 928 2578 
Q 928 2378 1081 2264 
Q 1234 2150 1697 2047 
L 1894 2003 
Q 2506 1872 2764 1633 
Q 3022 1394 3022 966 
Q 3022 478 2636 193 
Q 2250 -91 1575 -91 
Q 1294 -91 989 -36 
Q 684 19 347 128 
L 347 722 
Q 666 556 975 473 
Q 1284 391 1588 391 
Q 1994 391 2212 530 
Q 2431 669 2431 922 
Q 2431 1156 2273 1281 
Q 2116 1406 1581 1522 
L 1381 1569 
Q 847 1681 609 1914 
Q 372 2147 372 2553 
Q 372 3047 722 3315 
Q 1072 3584 1716 3584 
Q 2034 3584 2315 3537 
Q 2597 3491 2834 3397 
z
" transform="scale(0.015625)"/>
       <path id="DejaVuSans-74" d="M 1172 4494 
L 1172 3500 
L 2356 3500 
L 2356 3053 
L 1172 3053 
L 1172 1153 
Q 1172 725 1289 603 
Q 1406 481 1766 481 
L 2356 481 
L 2356 0 
L 1766 0 
Q 1100 0 847 248 
Q 594 497 594 1153 
L 594 3053 
L 172 3053 
L 172 3500 
L 594 3500 
L 594 4494 
L 1172 4494 
z
" transform="scale(0.015625)"/>
       <path id="DejaVuSans-70" d="M 1159 525 
L 1159 -1331 
L 581 -1331 
L 581 3500 
L 1159 3500 
L 1159 2969 
Q 1341 3281 1617 3432 
Q 1894 3584 2278 3584 
Q 2916 3584 3314 3078 
Q 3713 2572 3713 1747 
Q 3713 922 3314 415 
Q 2916 -91 2278 -91 
Q 1894 -91 1617 61 
Q 1341 213 1159 525 
z
M 3116 1747 
Q 3116 2381 2855 2742 
Q 2594 3103 2138 3103 
Q 1681 3103 1420 2742 
Q 1159 2381 1159 1747 
Q 1159 1113 1420 752 
Q 1681 391 2138 391 
Q 2594 391 2855 752 
Q 3116 1113 3116 1747 
z
" transform="scale(0.015625)"/>
      </defs>
      <use xlink:href="#DejaVuSans-54"/>
      <use xlink:href="#DejaVuSans-69" x="57.958984"/>
      <use xlink:href="#DejaVuSans-6d" x="85.742188"/>
      <use xlink:href="#DejaVuSans-65" x="183.154297"/>
      <use xlink:href="#DejaVuSans-2d" x="244.677734"/>
      <use xlink:href="#DejaVuSans-73" x="280.761719"/>
      <use xlink:href="#DejaVuSans-74" x="332.861328"/>
      <use xlink:href="#DejaVuSans-65" x="372.070312"/>
      <use xlink:href="#DejaVuSans-70" x="433.59375"/>
      <use xlink:href="#DejaVuSans-73" x="497.070312"/>
     </g>
    </g>
   </g>
   <g id="matplotlib.axis_2">
    <g id="ytick_1">
     <g id="line2d_8">
      <defs>
       <path id="m5c49cf1987" d="M 0 0 
L -3.5 0 
" style="stroke: #000000; stroke-width: 0.8"/>
      </defs>
      <g>
       <use xlink:href="#m5c49cf1987" x="90" y="312.331875" style="stroke: #000000; stroke-width: 0.8"/>
      </g>
     </g>
     <g id="text_9">
      <!-- 0.00 -->
      <g transform="translate(49.601562 318.030703) scale(0.15 -0.15)">
       <defs>
        <path id="DejaVuSans-2e" d="M 684 794 
L 1344 794 
L 1344 0 
L 684 0 
L 684 794 
z
" transform="scale(0.015625)"/>
       </defs>
       <use xlink:href="#DejaVuSans-30"/>
       <use xlink:href="#DejaVuSans-2e" x="63.623047"/>
       <use xlink:href="#DejaVuSans-30" x="95.410156"/>
       <use xlink:href="#DejaVuSans-30" x="159.033203"/>
      </g>
     </g>
    </g>
    <g id="ytick_2">
     <g id="line2d_9">
      <g>
       <use xlink:href="#m5c49cf1987" x="90" y="273.951457" style="stroke: #000000; stroke-width: 0.8"/>
      </g>
     </g>
     <g id="text_10">
      <!-- 0.05 -->
      <g transform="translate(49.601562 279.650285) scale(0.15 -0.15)">
       <use xlink:href="#DejaVuSans-30"/>
       <use xlink:href="#DejaVuSans-2e" x="63.623047"/>
       <use xlink:href="#DejaVuSans-30" x="95.410156"/>
       <use xlink:href="#DejaVuSans-35" x="159.033203"/>
      </g>
     </g>
    </g>
    <g id="ytick_3">
     <g id="line2d_10">
      <g>
       <use xlink:href="#m5c49cf1987" x="90" y="235.571039" style="stroke: #000000; stroke-width: 0.8"/>
      </g>
     </g>
     <g id="text_11">
      <!-- 0.10 -->
      <g transform="translate(49.601562 241.269867) scale(0.15 -0.15)">
       <use xlink:href="#DejaVuSans-30"/>
       <use xlink:href="#DejaVuSans-2e" x="63.623047"/>
       <use xlink:href="#DejaVuSans-31" x="95.410156"/>
       <use xlink:href="#DejaVuSans-30" x="159.033203"/>
      </g>
     </g>
    </g>
    <g id="ytick_4">
     <g id="line2d_11">
      <g>
       <use xlink:href="#m5c49cf1987" x="90" y="197.190622" style="stroke: #000000; stroke-width: 0.8"/>
      </g>
     </g>
     <g id="text_12">
      <!-- 0.15 -->
      <g transform="translate(49.601562 202.88945) scale(0.15 -0.15)">
       <use xlink:href="#DejaVuSans-30"/>
       <use xlink:href="#DejaVuSans-2e" x="63.623047"/>
       <use xlink:href="#DejaVuSans-31" x="95.410156"/>
       <use xlink:href="#DejaVuSans-35" x="159.033203"/>
      </g>
     </g>
    </g>
    <g id="ytick_5">
     <g id="line2d_12">
      <g>
       <use xlink:href="#m5c49cf1987" x="90" y="158.810204" style="stroke: #000000; stroke-width: 0.8"/>
      </g>
     </g>
     <g id="text_13">
      <!-- 0.20 -->
      <g transform="translate(49.601562 164.509032) scale(0.15 -0.15)">
       <use xlink:href="#DejaVuSans-30"/>
       <use xlink:href="#DejaVuSans-2e" x="63.623047"/>
       <use xlink:href="#DejaVuSans-32" x="95.410156"/>
       <use xlink:href="#DejaVuSans-30" x="159.033203"/>
      </g>
     </g>
    </g>
    <g id="ytick_6">
     <g id="line2d_13">
      <g>
       <use xlink:href="#m5c49cf1987" x="90" y="120.429786" style="stroke: #000000; stroke-width: 0.8"/>
      </g>
     </g>
     <g id="text_14">
      <!-- 0.25 -->
      <g transform="translate(49.601562 126.128614) scale(0.15 -0.15)">
       <use xlink:href="#DejaVuSans-30"/>
       <use xlink:href="#DejaVuSans-2e" x="63.623047"/>
       <use xlink:href="#DejaVuSans-32" x="95.410156"/>
       <use xlink:href="#DejaVuSans-35" x="159.033203"/>
      </g>
     </g>
    </g>
    <g id="ytick_7">
     <g id="line2d_14">
      <g>
       <use xlink:href="#m5c49cf1987" x="90" y="82.049369" style="stroke: #000000; stroke-width: 0.8"/>
      </g>
     </g>
     <g id="text_15">
      <!-- 0.30 -->
      <g transform="translate(49.601562 87.748197) scale(0.15 -0.15)">
       <use xlink:href="#DejaVuSans-30"/>
       <use xlink:href="#DejaVuSans-2e" x="63.623047"/>
       <use xlink:href="#DejaVuSans-33" x="95.410156"/>
       <use xlink:href="#DejaVuSans-30" x="159.033203"/>
      </g>
     </g>
    </g>
    <g id="ytick_8">
     <g id="line2d_15">
      <g>
       <use xlink:href="#m5c49cf1987" x="90" y="43.668951" style="stroke: #000000; stroke-width: 0.8"/>
      </g>
     </g>
     <g id="text_16">
      <!-- 0.35 -->
      <g transform="translate(49.601562 49.367779) scale(0.15 -0.15)">
       <use xlink:href="#DejaVuSans-30"/>
       <use xlink:href="#DejaVuSans-2e" x="63.623047"/>
       <use xlink:href="#DejaVuSans-33" x="95.410156"/>
       <use xlink:href="#DejaVuSans-35" x="159.033203"/>
      </g>
     </g>
    </g>
    <g id="text_17">
     <!-- Error -->
     <g transform="translate(42.482031 200.077734) rotate(-90) scale(0.15 -0.15)">
      <defs>
       <path id="DejaVuSans-45" d="M 628 4666 
L 3578 4666 
L 3578 4134 
L 1259 4134 
L 1259 2753 
L 3481 2753 
L 3481 2222 
L 1259 2222 
L 1259 531 
L 3634 531 
L 3634 0 
L 628 0 
L 628 4666 
z
" transform="scale(0.015625)"/>
       <path id="DejaVuSans-72" d="M 2631 2963 
Q 2534 3019 2420 3045 
Q 2306 3072 2169 3072 
Q 1681 3072 1420 2755 
Q 1159 2438 1159 1844 
L 1159 0 
L 581 0 
L 581 3500 
L 1159 3500 
L 1159 2956 
Q 1341 3275 1631 3429 
Q 1922 3584 2338 3584 
Q 2397 3584 2469 3576 
Q 2541 3569 2628 3553 
L 2631 2963 
z
" transform="scale(0.015625)"/>
       <path id="DejaVuSans-6f" d="M 1959 3097 
Q 1497 3097 1228 2736 
Q 959 2375 959 1747 
Q 959 1119 1226 758 
Q 1494 397 1959 397 
Q 2419 397 2687 759 
Q 2956 1122 2956 1747 
Q 2956 2369 2687 2733 
Q 2419 3097 1959 3097 
z
M 1959 3584 
Q 2709 3584 3137 3096 
Q 3566 2609 3566 1747 
Q 3566 888 3137 398 
Q 2709 -91 1959 -91 
Q 1206 -91 779 398 
Q 353 888 353 1747 
Q 353 2609 779 3096 
Q 1206 3584 1959 3584 
z
" transform="scale(0.015625)"/>
      </defs>
      <use xlink:href="#DejaVuSans-45"/>
      <use xlink:href="#DejaVuSans-72" x="63.183594"/>
      <use xlink:href="#DejaVuSans-72" x="102.546875"/>
      <use xlink:href="#DejaVuSans-6f" x="141.410156"/>
      <use xlink:href="#DejaVuSans-72" x="202.591797"/>
     </g>
    </g>
   </g>
   <g id="line2d_16">
    <path d="M 115.363636 132.240915 
L 117.060201 148.131598 
L 118.756765 145.102852 
L 120.453329 161.403585 
L 122.149894 204.91873 
L 123.846458 224.182637 
L 125.543022 267.623712 
L 127.239587 275.253521 
L 128.936151 286.380743 
L 130.632715 280.551913 
L 132.329279 274.143416 
L 134.025844 261.290229 
L 135.722408 269.474968 
L 137.418972 279.168414 
L 139.115537 293.744989 
L 140.812101 299.006166 
L 142.508665 295.354312 
L 144.20523 300.53912 
L 145.901794 301.006984 
L 147.598358 296.657497 
L 149.294922 301.636972 
L 150.991487 297.316616 
L 152.688051 297.062812 
L 154.384615 303.35247 
L 156.08118 293.435555 
L 157.777744 298.130828 
L 159.474308 295.689223 
L 161.170873 296.566639 
L 162.867437 294.241878 
L 164.564001 300.465213 
L 166.260566 296.247755 
L 167.95713 299.163603 
L 169.653694 301.206573 
L 171.350258 299.834542 
L 173.046823 297.630626 
L 174.743387 298.368566 
L 176.439951 299.565776 
L 178.136516 302.780632 
L 179.83308 303.3359 
L 181.529644 298.074874 
L 183.226209 304.240088 
L 184.922773 297.505593 
L 186.619337 301.549648 
L 188.315901 301.365386 
L 190.012466 302.493544 
L 191.70903 303.252937 
L 193.405594 297.945076 
L 195.102159 301.875889 
L 196.798723 303.731662 
L 198.495287 302.088821 
L 200.191852 301.978148 
L 201.888416 298.166998 
L 203.58498 301.101106 
L 205.281545 301.307268 
L 206.978109 301.3663 
L 208.674673 299.806615 
L 210.371237 300.137257 
L 212.067802 302.795506 
L 213.764366 302.790182 
L 215.46093 306.182816 
L 217.157495 304.521406 
L 218.854059 303.908399 
L 220.550623 304.519736 
L 222.247188 302.117523 
L 223.943752 305.121649 
L 225.640316 304.402422 
L 227.336881 304.312836 
L 229.033445 301.381421 
L 230.730009 300.473062 
L 232.426573 303.101088 
L 234.123138 302.170075 
L 235.819702 304.425832 
L 237.516266 298.58389 
L 239.212831 303.646586 
L 240.909395 303.81344 
L 242.605959 303.235196 
L 244.302524 302.294306 
L 245.999088 303.998549 
L 247.695652 303.865654 
L 249.392216 301.990307 
L 251.088781 306.592431 
L 252.785345 301.337298 
L 254.481909 307.187264 
L 256.178474 300.792017 
L 257.875038 299.619335 
L 259.571602 306.268037 
L 261.268167 302.913731 
L 262.964731 304.5869 
L 264.661295 304.239131 
L 266.35786 307.8 
L 268.054424 305.0266 
L 269.750988 303.061753 
L 271.447552 303.345439 
L 273.144117 307.186488 
L 274.840681 305.576977 
L 276.537245 305.244272 
L 278.23381 305.231088 
L 279.930374 300.90779 
L 281.626938 301.05723 
L 283.323503 304.000244 
L 285.020067 300.158683 
L 286.716631 300.623525 
L 288.413196 303.450458 
L 290.10976 303.251148 
L 291.806324 301.647923 
L 293.502888 304.193659 
L 295.199453 305.706613 
L 296.896017 304.313645 
L 298.592581 304.367108 
L 300.289146 305.632572 
L 301.98571 302.974936 
L 303.682274 307.152269 
L 305.378839 300.460469 
L 307.075403 305.445609 
L 308.771967 299.69429 
L 310.468531 303.57409 
L 312.165096 299.89179 
L 313.86166 304.203443 
L 315.558224 303.682969 
L 317.254789 300.587391 
L 318.951353 303.661468 
L 320.647917 299.523112 
L 322.344482 304.461697 
L 324.041046 305.409616 
L 325.73761 300.705907 
L 327.434175 304.823496 
L 329.130739 303.240301 
L 330.827303 306.853772 
L 332.523867 304.819212 
L 334.220432 301.949531 
L 335.916996 305.115599 
L 337.61356 303.090032 
L 339.310125 305.89211 
L 341.006689 305.445172 
L 342.703253 298.748425 
L 344.399818 299.257995 
L 346.096382 306.069777 
L 347.792946 301.438198 
L 349.48951 300.799114 
L 351.186075 300.55388 
L 352.882639 302.263273 
L 354.579203 300.584726 
L 356.275768 305.390036 
L 357.972332 303.700462 
L 359.668896 300.219667 
L 361.365461 299.619634 
L 363.062025 303.664359 
L 364.758589 305.583727 
L 366.455154 302.575594 
L 368.151718 304.503205 
L 369.848282 306.904031 
L 371.544846 307.677427 
L 373.241411 298.509434 
L 374.937975 305.139736 
L 376.634539 304.472855 
L 378.331104 304.625188 
L 380.027668 305.602683 
L 381.724232 299.805532 
L 383.420797 304.431306 
L 385.117361 305.267339 
L 386.813925 302.691394 
L 388.51049 304.589633 
L 390.207054 304.773685 
L 391.903618 302.082248 
L 393.600182 304.521412 
L 395.296747 303.669953 
L 396.993311 303.602357 
L 398.689875 304.570597 
L 400.38644 304.733667 
L 402.083004 305.531724 
L 403.779568 301.709531 
L 405.476133 302.613897 
L 407.172697 305.731107 
L 408.869261 304.050888 
L 410.565825 302.981417 
L 412.26239 305.024901 
L 413.958954 305.76922 
L 415.655518 303.353351 
L 417.352083 306.538408 
L 419.048647 300.590225 
L 420.745211 307.071162 
L 422.441776 305.129709 
L 424.13834 303.612227 
L 425.834904 307.059878 
L 427.531469 300.720855 
L 429.228033 304.946212 
L 430.924597 297.504828 
L 432.621161 303.725075 
L 434.317726 305.586101 
L 436.01429 301.092592 
L 437.710854 300.817251 
L 439.407419 302.145215 
L 441.103983 303.293745 
L 442.800547 299.896425 
L 444.497112 300.283797 
L 446.193676 302.917344 
L 447.89024 300.221645 
L 449.586804 300.428224 
L 451.283369 304.351676 
L 452.979933 306.140879 
L 454.676497 305.472338 
L 456.373062 304.351077 
L 458.069626 302.675353 
L 459.76619 305.53583 
L 463.159319 301.446886 
L 464.855883 304.714236 
L 466.552448 305.733443 
L 468.249012 305.628457 
L 469.945576 303.276431 
L 471.64214 301.482368 
L 473.338705 302.19436 
L 475.035269 304.832348 
L 476.731833 303.658975 
L 478.428398 304.315515 
L 480.124962 301.272409 
L 481.821526 304.453588 
L 483.518091 304.630473 
L 485.214655 300.216205 
L 486.911219 303.585445 
L 488.607784 303.653665 
L 490.304348 302.787069 
L 492.000912 303.561956 
L 493.697476 304.974948 
L 495.394041 305.164633 
L 497.090605 302.749707 
L 498.787169 305.592168 
L 500.483734 305.442037 
L 502.180298 302.634779 
L 503.876862 305.631849 
L 505.573427 302.764945 
L 507.269991 303.028518 
L 508.966555 306.134546 
L 510.663119 305.319332 
L 512.359684 303.29291 
L 514.056248 302.915304 
L 515.752812 303.98658 
L 517.449377 301.025933 
L 519.145941 303.727886 
L 520.842505 303.812165 
L 522.53907 307.722245 
L 524.235634 301.711155 
L 525.932198 304.776628 
L 527.628763 305.059879 
L 529.325327 304.553227 
L 531.021891 301.367018 
L 532.718455 303.165788 
L 534.41502 300.605341 
L 536.111584 305.27033 
L 537.808148 301.154444 
L 539.504713 301.296546 
L 541.201277 303.06875 
L 542.897841 306.262328 
L 544.594406 302.809742 
L 546.29097 303.792902 
L 547.987534 306.523637 
L 549.684099 305.348189 
L 551.380663 306.114917 
L 553.077227 304.879249 
L 554.773791 305.726019 
L 556.470356 305.432913 
L 558.16692 301.11957 
L 559.863484 306.190451 
L 561.560049 302.025628 
L 563.256613 303.905887 
L 564.953177 302.841237 
L 566.649742 300.824262 
L 568.346306 299.036782 
L 570.04287 300.206502 
L 571.739434 302.416233 
L 573.435999 299.906306 
L 575.132563 302.497075 
L 576.829127 305.833472 
L 578.525692 303.105839 
L 580.222256 306.206595 
L 581.91882 302.599361 
L 583.615385 301.351402 
L 585.311949 303.506734 
L 587.008513 305.285172 
L 588.705078 297.623907 
L 590.401642 304.994319 
L 592.098206 301.480773 
L 595.491335 305.040145 
L 597.187899 305.052532 
L 598.884463 298.23912 
L 600.581028 296.152975 
L 602.277592 303.246046 
L 603.974156 300.199475 
L 605.670721 303.691463 
L 607.367285 299.483971 
L 609.063849 304.51054 
L 610.760413 303.241317 
L 612.456978 306.009672 
L 614.153542 306.529589 
L 615.850106 302.503683 
L 617.546671 302.913899 
L 619.243235 302.772526 
L 620.939799 304.137359 
L 622.636364 302.47943 
L 622.636364 302.47943 
" clip-path="url(#p8d860a59c3)" style="fill: none; stroke-dasharray: 5.55,2.4; stroke-dashoffset: 0; stroke: #1f77b4; stroke-width: 1.5"/>
   </g>
   <g id="line2d_17">
    <path d="M 115.363636 118.82 
L 117.060201 136.136451 
L 118.756765 151.22543 
L 120.453329 170.441599 
L 122.149894 204.810538 
L 123.846458 215.97702 
L 125.543022 240.636464 
L 127.239587 243.351251 
L 128.936151 257.504478 
L 130.632715 269.207922 
L 132.329279 274.490215 
L 134.025844 270.663256 
L 135.722408 279.846456 
L 137.418972 280.601642 
L 139.115537 284.761335 
L 140.812101 297.769226 
L 142.508665 294.728507 
L 144.20523 297.938742 
L 145.901794 295.544672 
L 147.598358 298.296608 
L 149.294922 305.292413 
L 150.991487 298.611937 
L 152.688051 296.794507 
L 154.384615 302.535066 
L 156.08118 291.051023 
L 157.777744 299.580344 
L 159.474308 294.568595 
L 161.170873 297.622491 
L 162.867437 293.508504 
L 164.564001 295.277808 
L 166.260566 296.637844 
L 167.95713 298.298375 
L 169.653694 299.260625 
L 171.350258 299.287712 
L 173.046823 300.635411 
L 174.743387 300.714296 
L 176.439951 301.077976 
L 178.136516 297.290811 
L 179.83308 303.43215 
L 181.529644 292.411515 
L 183.226209 298.504608 
L 184.922773 291.143808 
L 186.619337 291.084532 
L 188.315901 297.335575 
L 190.012466 298.396279 
L 191.70903 297.305336 
L 193.405594 291.695019 
L 195.102159 295.682912 
L 196.798723 289.895903 
L 198.495287 288.368936 
L 200.191852 286.423764 
L 201.888416 279.767515 
L 203.58498 293.244719 
L 205.281545 290.388616 
L 206.978109 294.19071 
L 208.674673 299.894779 
L 210.371237 297.961373 
L 212.067802 297.129354 
L 213.764366 298.871863 
L 215.46093 298.122801 
L 217.157495 295.424153 
L 218.854059 296.970846 
L 220.550623 289.652693 
L 222.247188 291.725425 
L 223.943752 291.26554 
L 225.640316 296.630884 
L 227.336881 295.343674 
L 229.033445 295.492768 
L 230.730009 291.116227 
L 232.426573 296.729746 
L 234.123138 295.750219 
L 235.819702 298.783749 
L 237.516266 286.923432 
L 239.212831 298.918995 
L 240.909395 295.269388 
L 242.605959 298.990617 
L 244.302524 292.400703 
L 245.999088 301.903629 
L 247.695652 301.184764 
L 249.392216 294.899113 
L 251.088781 300.856231 
L 252.785345 293.760992 
L 254.481909 299.86737 
L 256.178474 289.776363 
L 257.875038 290.749242 
L 259.571602 300.143529 
L 261.268167 292.230437 
L 266.35786 297.004116 
L 268.054424 298.210069 
L 269.750988 292.952822 
L 271.447552 294.109203 
L 273.144117 300.602455 
L 274.840681 302.948439 
L 276.537245 300.606795 
L 278.23381 302.227084 
L 279.930374 300.705391 
L 281.626938 291.109159 
L 283.323503 296.830135 
L 285.020067 288.087245 
L 286.716631 291.292951 
L 288.413196 298.860803 
L 290.10976 296.950327 
L 291.806324 296.737777 
L 293.502888 301.363329 
L 295.199453 298.542224 
L 296.896017 297.629479 
L 298.592581 293.990798 
L 300.289146 299.813283 
L 301.98571 300.103769 
L 303.682274 303.810708 
L 305.378839 301.119198 
L 307.075403 301.488559 
L 308.771967 292.605961 
L 310.468531 292.432678 
L 312.165096 289.82452 
L 313.86166 297.080772 
L 315.558224 295.031532 
L 317.254789 290.970973 
L 318.951353 288.360873 
L 320.647917 286.970741 
L 322.344482 298.080576 
L 324.041046 303.276452 
L 325.73761 294.440419 
L 327.434175 294.606972 
L 329.130739 291.962449 
L 330.827303 300.43731 
L 334.220432 293.001263 
L 335.916996 294.362153 
L 337.61356 296.348348 
L 339.310125 301.224079 
L 341.006689 296.676531 
L 342.703253 289.832955 
L 344.399818 291.318799 
L 346.096382 299.460598 
L 347.792946 297.438278 
L 349.48951 298.687359 
L 351.186075 295.137951 
L 352.882639 301.163157 
L 354.579203 294.557815 
L 356.275768 304.190183 
L 357.972332 303.135952 
L 359.668896 303.200833 
L 361.365461 299.149838 
L 363.062025 301.450262 
L 364.758589 298.05056 
L 366.455154 294.19496 
L 368.151718 304.715469 
L 369.848282 302.858161 
L 371.544846 305.970644 
L 373.241411 292.9082 
L 374.937975 295.782104 
L 376.634539 297.943369 
L 378.331104 297.012095 
L 380.027668 299.985809 
L 381.724232 295.474733 
L 383.420797 304.830042 
L 385.117361 303.843724 
L 386.813925 294.142849 
L 388.51049 294.741469 
L 390.207054 294.563973 
L 391.903618 292.167135 
L 393.600182 294.939793 
L 395.296747 292.227019 
L 396.993311 296.086536 
L 398.689875 290.518378 
L 400.38644 293.679632 
L 402.083004 297.758917 
L 403.779568 293.137218 
L 405.476133 286.812643 
L 407.172697 295.364799 
L 408.869261 291.868653 
L 410.565825 285.556696 
L 412.26239 290.482317 
L 413.958954 294.575716 
L 415.655518 291.790522 
L 417.352083 303.824998 
L 419.048647 294.371053 
L 420.745211 304.421889 
L 422.441776 300.252111 
L 424.13834 294.798801 
L 425.834904 302.758471 
L 427.531469 288.294981 
L 429.228033 290.639558 
L 430.924597 281.34068 
L 432.621161 297.835686 
L 434.317726 295.749171 
L 436.01429 289.181079 
L 437.710854 293.220896 
L 439.407419 292.24561 
L 441.103983 298.011325 
L 442.800547 290.537072 
L 444.497112 291.011593 
L 446.193676 299.46272 
L 447.89024 290.713736 
L 449.586804 293.73659 
L 451.283369 302.367137 
L 452.979933 300.396579 
L 454.676497 297.337298 
L 456.373062 303.133287 
L 458.069626 300.740481 
L 459.76619 299.160316 
L 461.462755 299.956063 
L 463.159319 294.937473 
L 464.855883 296.559865 
L 466.552448 295.922042 
L 468.249012 291.655648 
L 471.64214 296.338445 
L 473.338705 295.774957 
L 475.035269 295.444694 
L 476.731833 302.854478 
L 478.428398 297.915375 
L 480.124962 288.19854 
L 481.821526 292.693986 
L 483.518091 295.333226 
L 485.214655 292.859374 
L 486.911219 297.445162 
L 488.607784 297.250821 
L 490.304348 292.86158 
L 492.000912 293.875432 
L 493.697476 299.170068 
L 495.394041 298.283767 
L 497.090605 290.790011 
L 498.787169 292.764394 
L 503.876862 300.59017 
L 505.573427 302.621612 
L 507.269991 301.091163 
L 508.966555 304.00401 
L 510.663119 305.201756 
L 512.359684 296.337541 
L 514.056248 299.190848 
L 515.752812 296.63185 
L 517.449377 292.32409 
L 519.145941 301.785492 
L 520.842505 299.83238 
L 522.53907 301.795661 
L 524.235634 294.450063 
L 525.932198 294.760581 
L 527.628763 296.318356 
L 529.325327 295.24249 
L 531.021891 290.026407 
L 534.41502 283.909246 
L 536.111584 296.939229 
L 537.808148 293.61832 
L 539.504713 293.77039 
L 541.201277 294.793957 
L 542.897841 299.725976 
L 544.594406 290.190862 
L 546.29097 295.595258 
L 547.987534 301.729594 
L 551.380663 297.095912 
L 553.077227 300.308794 
L 556.470356 302.612009 
L 558.16692 298.316225 
L 559.863484 301.988392 
L 561.560049 291.749955 
L 563.256613 303.547633 
L 564.953177 298.602538 
L 566.649742 292.249598 
L 568.346306 296.861576 
L 570.04287 295.18267 
L 571.739434 298.062486 
L 573.435999 289.140478 
L 575.132563 298.137839 
L 578.525692 301.637716 
L 580.222256 303.964863 
L 581.91882 296.649462 
L 583.615385 296.816495 
L 585.311949 297.265274 
L 587.008513 303.399576 
L 588.705078 298.429335 
L 590.401642 300.384033 
L 592.098206 294.429831 
L 593.79477 299.123702 
L 595.491335 299.743632 
L 597.187899 298.30577 
L 598.884463 292.923554 
L 600.581028 288.584832 
L 602.277592 296.132145 
L 603.974156 289.174984 
L 605.670721 300.010322 
L 607.367285 292.163595 
L 609.063849 296.329303 
L 610.760413 292.832009 
L 612.456978 301.380955 
L 614.153542 304.538052 
L 615.850106 299.454133 
L 617.546671 300.883948 
L 619.243235 292.912475 
L 620.939799 298.800688 
L 622.636364 287.913191 
L 622.636364 287.913191 
" clip-path="url(#p8d860a59c3)" style="fill: none; stroke: #ff7f0e; stroke-width: 1.5; stroke-linecap: square"/>
   </g>
   <g id="line2d_18">
    <path d="M 115.363636 55.8 
L 117.060201 68.421248 
L 118.756765 84.298881 
L 120.453329 114.255168 
L 122.149894 168.981835 
L 123.846458 178.434354 
L 125.543022 215.947455 
L 127.239587 224.078552 
L 128.936151 239.758336 
L 130.632715 256.986077 
L 132.329279 263.824243 
L 134.025844 263.118555 
L 135.722408 271.463604 
L 137.418972 275.203619 
L 139.115537 279.907532 
L 140.812101 294.131046 
L 142.508665 290.823954 
L 144.20523 294.389315 
L 145.901794 293.055922 
L 147.598358 294.965187 
L 149.294922 303.267235 
L 150.991487 296.793584 
L 152.688051 294.889298 
L 154.384615 302.382666 
L 156.08118 291.139129 
L 157.777744 299.086053 
L 159.474308 292.795942 
L 161.170873 297.0036 
L 162.867437 292.662018 
L 164.564001 294.425222 
L 166.260566 295.831121 
L 167.95713 297.690902 
L 169.653694 298.428579 
L 171.350258 298.72044 
L 173.046823 299.941638 
L 174.743387 300.488643 
L 176.439951 299.608719 
L 178.136516 296.166622 
L 179.83308 302.291152 
L 181.529644 291.115494 
L 183.226209 296.663833 
L 184.922773 289.377469 
L 186.619337 290.186812 
L 188.315901 296.18585 
L 190.012466 297.46202 
L 191.70903 295.849517 
L 193.405594 290.859918 
L 195.102159 293.803321 
L 196.798723 288.560368 
L 198.495287 286.13647 
L 200.191852 284.332455 
L 201.888416 277.056382 
L 203.58498 291.291911 
L 205.281545 288.127728 
L 206.978109 292.140798 
L 208.674673 298.627716 
L 210.371237 296.166533 
L 212.067802 296.235481 
L 213.764366 297.628743 
L 215.46093 296.709616 
L 217.157495 293.81238 
L 218.854059 295.354214 
L 220.550623 287.424875 
L 222.247188 289.578815 
L 223.943752 289.405546 
L 225.640316 295.308564 
L 227.336881 294.155606 
L 229.033445 293.621918 
L 230.730009 289.236293 
L 232.426573 295.30675 
L 234.123138 294.133963 
L 235.819702 297.465619 
L 237.516266 285.705019 
L 239.212831 297.079637 
L 240.909395 294.26213 
L 242.605959 298.064171 
L 244.302524 291.316208 
L 245.999088 300.470296 
L 247.695652 299.970828 
L 249.392216 293.882304 
L 251.088781 299.676155 
L 252.785345 292.885266 
L 254.481909 299.110034 
L 256.178474 288.567823 
L 257.875038 289.317778 
L 259.571602 299.016949 
L 261.268167 290.568982 
L 262.964731 292.069997 
L 264.661295 294.397551 
L 268.054424 297.368868 
L 269.750988 291.705587 
L 271.447552 292.779506 
L 273.144117 299.652082 
L 274.840681 302.059884 
L 276.537245 299.255731 
L 278.23381 301.21399 
L 279.930374 299.926053 
L 281.626938 289.336592 
L 283.323503 295.781144 
L 285.020067 287.18386 
L 286.716631 290.303472 
L 288.413196 297.830805 
L 290.10976 295.302042 
L 291.806324 296.042858 
L 293.502888 300.482455 
L 295.199453 297.04981 
L 296.896017 296.168213 
L 298.592581 292.757803 
L 300.289146 298.809573 
L 301.98571 299.325753 
L 303.682274 303.061565 
L 305.378839 300.411766 
L 307.075403 300.615834 
L 308.771967 291.732873 
L 310.468531 291.201639 
L 312.165096 290.405872 
L 313.86166 295.651842 
L 315.558224 293.702385 
L 317.254789 289.384947 
L 318.951353 287.023752 
L 320.647917 286.17184 
L 322.344482 297.169595 
L 324.041046 302.007217 
L 325.73761 293.294762 
L 327.434175 292.573339 
L 329.130739 290.569233 
L 330.827303 299.077527 
L 332.523867 295.449496 
L 334.220432 291.494943 
L 335.916996 293.064466 
L 337.61356 295.255305 
L 339.310125 299.719449 
L 341.006689 295.865833 
L 342.703253 289.394826 
L 344.399818 290.505507 
L 346.096382 298.802071 
L 347.792946 296.182726 
L 349.48951 297.81512 
L 351.186075 294.033819 
L 352.882639 300.755613 
L 354.579203 294.147797 
L 356.275768 303.830016 
L 357.972332 302.469471 
L 359.668896 303.283666 
L 361.365461 298.801336 
L 363.062025 301.020026 
L 366.455154 293.90112 
L 368.151718 304.816096 
L 369.848282 302.148432 
L 371.544846 305.660765 
L 373.241411 292.002761 
L 376.634539 297.75899 
L 378.331104 296.606522 
L 380.027668 299.967632 
L 381.724232 294.807397 
L 383.420797 304.411821 
L 385.117361 303.229498 
L 386.813925 293.793684 
L 388.51049 294.396177 
L 390.207054 293.611467 
L 391.903618 290.876822 
L 393.600182 293.827951 
L 395.296747 290.71428 
L 396.993311 294.791741 
L 398.689875 288.675206 
L 400.38644 292.512407 
L 402.083004 295.939943 
L 403.779568 291.631531 
L 405.476133 284.641513 
L 407.172697 293.263096 
L 408.869261 289.204317 
L 410.565825 283.002349 
L 412.26239 288.279088 
L 413.958954 292.636414 
L 415.655518 290.192399 
L 417.352083 302.32079 
L 419.048647 293.067493 
L 420.745211 303.398116 
L 422.441776 299.024678 
L 424.13834 294.077425 
L 425.834904 301.551868 
L 427.531469 287.66264 
L 429.228033 290.056301 
L 430.924597 280.948906 
L 432.621161 296.702815 
L 434.317726 294.041072 
L 436.01429 287.719715 
L 437.710854 292.888825 
L 439.407419 291.378816 
L 441.103983 297.44858 
L 442.800547 289.847223 
L 444.497112 290.127065 
L 446.193676 298.983174 
L 447.89024 289.959156 
L 449.586804 292.7779 
L 451.283369 302.092242 
L 454.676497 296.61614 
L 456.373062 302.412961 
L 458.069626 300.219926 
L 459.76619 298.552723 
L 461.462755 298.940721 
L 463.159319 293.949326 
L 464.855883 294.825499 
L 466.552448 294.182507 
L 468.249012 290.330694 
L 469.945576 293.247999 
L 471.64214 295.134194 
L 473.338705 295.204814 
L 475.035269 294.31826 
L 476.731833 301.725124 
L 478.428398 296.647933 
L 480.124962 286.883998 
L 481.821526 291.436058 
L 483.518091 294.294449 
L 485.214655 291.956324 
L 486.911219 296.679874 
L 488.607784 296.898932 
L 490.304348 291.422564 
L 492.000912 292.464708 
L 493.697476 297.76665 
L 495.394041 296.420581 
L 497.090605 289.392491 
L 498.787169 291.192669 
L 500.483734 294.877615 
L 502.180298 296.660685 
L 503.876862 299.900822 
L 505.573427 301.668257 
L 507.269991 300.33091 
L 508.966555 303.642945 
L 510.663119 304.786826 
L 512.359684 296.01491 
L 514.056248 297.83786 
L 515.752812 295.935649 
L 517.449377 292.48373 
L 519.145941 301.129572 
L 520.842505 299.372731 
L 522.53907 301.16846 
L 524.235634 292.658883 
L 527.628763 294.772936 
L 529.325327 293.963878 
L 531.021891 288.163878 
L 534.41502 282.547835 
L 536.111584 295.986077 
L 537.808148 292.234431 
L 539.504713 292.052231 
L 541.201277 292.945827 
L 542.897841 298.117105 
L 544.594406 288.661833 
L 546.29097 294.224458 
L 547.987534 300.289732 
L 549.684099 298.040212 
L 551.380663 295.581536 
L 553.077227 299.646208 
L 554.773791 300.840763 
L 556.470356 302.44729 
L 558.16692 297.299182 
L 559.863484 301.560211 
L 561.560049 291.917637 
L 563.256613 303.249733 
L 564.953177 297.925253 
L 566.649742 291.373091 
L 568.346306 296.314042 
L 570.04287 294.727315 
L 571.739434 297.544508 
L 573.435999 288.8934 
L 575.132563 298.508761 
L 576.829127 299.704035 
L 578.525692 301.108936 
L 580.222256 303.148581 
L 581.91882 295.573783 
L 583.615385 296.182796 
L 585.311949 297.492727 
L 587.008513 302.874476 
L 588.705078 298.323475 
L 590.401642 299.665488 
L 592.098206 294.357706 
L 593.79477 299.044187 
L 595.491335 299.238691 
L 597.187899 297.3852 
L 598.884463 292.312817 
L 600.581028 288.014369 
L 602.277592 296.044215 
L 603.974156 287.970492 
L 605.670721 298.901064 
L 607.367285 290.561883 
L 609.063849 294.557594 
L 610.760413 291.649602 
L 612.456978 300.300762 
L 614.153542 304.077929 
L 615.850106 298.282919 
L 617.546671 300.017599 
L 619.243235 291.689002 
L 620.939799 297.376494 
L 622.636364 285.969176 
L 622.636364 285.969176 
" clip-path="url(#p8d860a59c3)" style="fill: none; stroke: #2ca02c; stroke-width: 1.5; stroke-linecap: square"/>
   </g>
   <g id="patch_3">
    <path d="M 90 320.4 
L 90 43.2 
" style="fill: none; stroke: #000000; stroke-width: 0.8; stroke-linejoin: miter; stroke-linecap: square"/>
   </g>
   <g id="patch_4">
    <path d="M 648 320.4 
L 648 43.2 
" style="fill: none; stroke: #000000; stroke-width: 0.8; stroke-linejoin: miter; stroke-linecap: square"/>
   </g>
   <g id="patch_5">
    <path d="M 90 320.4 
L 648 320.4 
" style="fill: none; stroke: #000000; stroke-width: 0.8; stroke-linejoin: miter; stroke-linecap: square"/>
   </g>
   <g id="patch_6">
    <path d="M 90 43.2 
L 648 43.2 
" style="fill: none; stroke: #000000; stroke-width: 0.8; stroke-linejoin: miter; stroke-linecap: square"/>
   </g>
   <g id="legend_1">
    <g id="patch_7">
     <path d="M 518.983594 121.251562 
L 637.5 121.251562 
Q 640.5 121.251562 640.5 118.251562 
L 640.5 53.7 
Q 640.5 50.7 637.5 50.7 
L 518.983594 50.7 
Q 515.983594 50.7 515.983594 53.7 
L 515.983594 118.251562 
Q 515.983594 121.251562 518.983594 121.251562 
z
" style="fill: #ffffff; opacity: 0.8; stroke: #cccccc; stroke-linejoin: miter"/>
    </g>
    <g id="line2d_19">
     <path d="M 521.983594 62.847656 
L 536.983594 62.847656 
L 551.983594 62.847656 
" style="fill: none; stroke-dasharray: 5.55,2.4; stroke-dashoffset: 0; stroke: #1f77b4; stroke-width: 1.5"/>
    </g>
    <g id="text_18">
     <!-- JRN error -->
     <g transform="translate(563.983594 68.097656) scale(0.15 -0.15)">
      <defs>
       <path id="DejaVuSans-4a" d="M 628 4666 
L 1259 4666 
L 1259 325 
Q 1259 -519 939 -900 
Q 619 -1281 -91 -1281 
L -331 -1281 
L -331 -750 
L -134 -750 
Q 284 -750 456 -515 
Q 628 -281 628 325 
L 628 4666 
z
" transform="scale(0.015625)"/>
       <path id="DejaVuSans-52" d="M 2841 2188 
Q 3044 2119 3236 1894 
Q 3428 1669 3622 1275 
L 4263 0 
L 3584 0 
L 2988 1197 
Q 2756 1666 2539 1819 
Q 2322 1972 1947 1972 
L 1259 1972 
L 1259 0 
L 628 0 
L 628 4666 
L 2053 4666 
Q 2853 4666 3247 4331 
Q 3641 3997 3641 3322 
Q 3641 2881 3436 2590 
Q 3231 2300 2841 2188 
z
M 1259 4147 
L 1259 2491 
L 2053 2491 
Q 2509 2491 2742 2702 
Q 2975 2913 2975 3322 
Q 2975 3731 2742 3939 
Q 2509 4147 2053 4147 
L 1259 4147 
z
" transform="scale(0.015625)"/>
       <path id="DejaVuSans-4e" d="M 628 4666 
L 1478 4666 
L 3547 763 
L 3547 4666 
L 4159 4666 
L 4159 0 
L 3309 0 
L 1241 3903 
L 1241 0 
L 628 0 
L 628 4666 
z
" transform="scale(0.015625)"/>
       <path id="DejaVuSans-20" transform="scale(0.015625)"/>
      </defs>
      <use xlink:href="#DejaVuSans-4a"/>
      <use xlink:href="#DejaVuSans-52" x="29.492188"/>
      <use xlink:href="#DejaVuSans-4e" x="98.974609"/>
      <use xlink:href="#DejaVuSans-20" x="173.779297"/>
      <use xlink:href="#DejaVuSans-65" x="205.566406"/>
      <use xlink:href="#DejaVuSans-72" x="267.089844"/>
      <use xlink:href="#DejaVuSans-72" x="306.453125"/>
      <use xlink:href="#DejaVuSans-6f" x="345.316406"/>
      <use xlink:href="#DejaVuSans-72" x="406.498047"/>
     </g>
    </g>
    <g id="line2d_20">
     <path d="M 521.983594 84.864844 
L 536.983594 84.864844 
L 551.983594 84.864844 
" style="fill: none; stroke: #ff7f0e; stroke-width: 1.5; stroke-linecap: square"/>
    </g>
    <g id="text_19">
     <!-- EKF error -->
     <g transform="translate(563.983594 90.114844) scale(0.15 -0.15)">
      <defs>
       <path id="DejaVuSans-4b" d="M 628 4666 
L 1259 4666 
L 1259 2694 
L 3353 4666 
L 4166 4666 
L 1850 2491 
L 4331 0 
L 3500 0 
L 1259 2247 
L 1259 0 
L 628 0 
L 628 4666 
z
" transform="scale(0.015625)"/>
       <path id="DejaVuSans-46" d="M 628 4666 
L 3309 4666 
L 3309 4134 
L 1259 4134 
L 1259 2759 
L 3109 2759 
L 3109 2228 
L 1259 2228 
L 1259 0 
L 628 0 
L 628 4666 
z
" transform="scale(0.015625)"/>
      </defs>
      <use xlink:href="#DejaVuSans-45"/>
      <use xlink:href="#DejaVuSans-4b" x="63.183594"/>
      <use xlink:href="#DejaVuSans-46" x="128.759766"/>
      <use xlink:href="#DejaVuSans-20" x="186.279297"/>
      <use xlink:href="#DejaVuSans-65" x="218.066406"/>
      <use xlink:href="#DejaVuSans-72" x="279.589844"/>
      <use xlink:href="#DejaVuSans-72" x="318.953125"/>
      <use xlink:href="#DejaVuSans-6f" x="357.816406"/>
      <use xlink:href="#DejaVuSans-72" x="418.998047"/>
     </g>
    </g>
    <g id="line2d_21">
     <path d="M 521.983594 106.882031 
L 536.983594 106.882031 
L 551.983594 106.882031 
" style="fill: none; stroke: #2ca02c; stroke-width: 1.5; stroke-linecap: square"/>
    </g>
    <g id="text_20">
     <!-- UKF error -->
     <g transform="translate(563.983594 112.132031) scale(0.15 -0.15)">
      <defs>
       <path id="DejaVuSans-55" d="M 556 4666 
L 1191 4666 
L 1191 1831 
Q 1191 1081 1462 751 
Q 1734 422 2344 422 
Q 2950 422 3222 751 
Q 3494 1081 3494 1831 
L 3494 4666 
L 4128 4666 
L 4128 1753 
Q 4128 841 3676 375 
Q 3225 -91 2344 -91 
Q 1459 -91 1007 375 
Q 556 841 556 1753 
L 556 4666 
z
" transform="scale(0.015625)"/>
      </defs>
      <use xlink:href="#DejaVuSans-55"/>
      <use xlink:href="#DejaVuSans-4b" x="73.193359"/>
      <use xlink:href="#DejaVuSans-46" x="138.769531"/>
      <use xlink:href="#DejaVuSans-20" x="196.289062"/>
      <use xlink:href="#DejaVuSans-65" x="228.076172"/>
      <use xlink:href="#DejaVuSans-72" x="289.599609"/>
      <use xlink:href="#DejaVuSans-72" x="328.962891"/>
      <use xlink:href="#DejaVuSans-6f" x="367.826172"/>
      <use xlink:href="#DejaVuSans-72" x="429.007812"/>
     </g>
    </g>
   </g>
  </g>
 </g>
 <defs>
  <clipPath id="p8d860a59c3">
   <rect x="90" y="43.2" width="558" height="277.2"/>
  </clipPath>
 </defs>
</svg>
