<?xml version="1.0" encoding="utf-8" standalone="no"?>
<!DOCTYPE svg PUBLIC "-//W3C//DTD SVG 1.1//EN"
  "http://www.w3.org/Graphics/SVG/1.1/DTD/svg11.dtd">
<svg xmlns:xlink="http://www.w3.org/1999/xlink" width="720pt" height="360pt" viewBox="0 0 720 360" xmlns="http://www.w3.org/2000/svg" version="1.1">
 <metadata>
  <rdf:RDF xmlns:dc="http://purl.org/dc/elements/1.1/" xmlns:cc="http://creativecommons.org/ns#" xmlns:rdf="http://www.w3.org/1999/02/22-rdf-syntax-ns#">
   <cc:Work>
    <dc:type rdf:resource="http://purl.org/dc/dcmitype/StillImage"/>
    <dc:date>2025-06-27T15:44:23.575279</dc:date>
    <dc:format>image/svg+xml</dc:format>
    <dc:creator>
     <cc:Agent>
      <dc:title>Matplotlib v3.8.4, https://matplotlib.org/</dc:title>
     </cc:Agent>
    </dc:creator>
   </cc:Work>
  </rdf:RDF>
 </metadata>
 <defs>
  <style type="text/css">*{stroke-linejoin: round; stroke-linecap: butt}</style>
 </defs>
 <g id="figure_1">
  <g id="patch_1">
   <path d="M 0 360 
L 720 360 
L 720 0 
L 0 0 
z
" style="fill: #ffffff"/>
  </g>
  <g id="axes_1">
   <g id="patch_2">
    <path d="M 90 320.4 
L 648 320.4 
L 648 43.2 
L 90 43.2 
z
" style="fill: #ffffff"/>
   </g>
   <g id="matplotlib.axis_1">
    <g id="xtick_1">
     <g id="line2d_1">
      <defs>
       <path id="m207eb9a1a8" d="M 0 0 
L 0 3.5 
" style="stroke: #000000; stroke-width: 0.8"/>
      </defs>
      <g>
       <use xlink:href="#m207eb9a1a8" x="115.363636" y="320.4" style="stroke: #000000; stroke-width: 0.8"/>
      </g>
     </g>
     <g id="text_1">
      <!-- 0 -->
      <g transform="translate(110.591761 338.797656) scale(0.15 -0.15)">
       <defs>
        <path id="DejaVuSans-30" d="M 2034 4250 
Q 1547 4250 1301 3770 
Q 1056 3291 1056 2328 
Q 1056 1369 1301 889 
Q 1547 409 2034 409 
Q 2525 409 2770 889 
Q 3016 1369 3016 2328 
Q 3016 3291 2770 3770 
Q 2525 4250 2034 4250 
z
M 2034 4750 
Q 2819 4750 3233 4129 
Q 3647 3509 3647 2328 
Q 3647 1150 3233 529 
Q 2819 -91 2034 -91 
Q 1250 -91 836 529 
Q 422 1150 422 2328 
Q 422 3509 836 4129 
Q 1250 4750 2034 4750 
z
" transform="scale(0.015625)"/>
       </defs>
       <use xlink:href="#DejaVuSans-30"/>
      </g>
     </g>
    </g>
    <g id="xtick_2">
     <g id="line2d_2">
      <g>
       <use xlink:href="#m207eb9a1a8" x="179.091366" y="320.4" style="stroke: #000000; stroke-width: 0.8"/>
      </g>
     </g>
     <g id="text_2">
      <!-- 25 -->
      <g transform="translate(169.547616 338.797656) scale(0.15 -0.15)">
       <defs>
        <path id="DejaVuSans-32" d="M 1228 531 
L 3431 531 
L 3431 0 
L 469 0 
L 469 531 
Q 828 903 1448 1529 
Q 2069 2156 2228 2338 
Q 2531 2678 2651 2914 
Q 2772 3150 2772 3378 
Q 2772 3750 2511 3984 
Q 2250 4219 1831 4219 
Q 1534 4219 1204 4116 
Q 875 4013 500 3803 
L 500 4441 
Q 881 4594 1212 4672 
Q 1544 4750 1819 4750 
Q 2544 4750 2975 4387 
Q 3406 4025 3406 3419 
Q 3406 3131 3298 2873 
Q 3191 2616 2906 2266 
Q 2828 2175 2409 1742 
Q 1991 1309 1228 531 
z
" transform="scale(0.015625)"/>
        <path id="DejaVuSans-35" d="M 691 4666 
L 3169 4666 
L 3169 4134 
L 1269 4134 
L 1269 2991 
Q 1406 3038 1543 3061 
Q 1681 3084 1819 3084 
Q 2600 3084 3056 2656 
Q 3513 2228 3513 1497 
Q 3513 744 3044 326 
Q 2575 -91 1722 -91 
Q 1428 -91 1123 -41 
Q 819 9 494 109 
L 494 744 
Q 775 591 1075 516 
Q 1375 441 1709 441 
Q 2250 441 2565 725 
Q 2881 1009 2881 1497 
Q 2881 1984 2565 2268 
Q 2250 2553 1709 2553 
Q 1456 2553 1204 2497 
Q 953 2441 691 2322 
L 691 4666 
z
" transform="scale(0.015625)"/>
       </defs>
       <use xlink:href="#DejaVuSans-32"/>
       <use xlink:href="#DejaVuSans-35" x="63.623047"/>
      </g>
     </g>
    </g>
    <g id="xtick_3">
     <g id="line2d_3">
      <g>
       <use xlink:href="#m207eb9a1a8" x="242.819095" y="320.4" style="stroke: #000000; stroke-width: 0.8"/>
      </g>
     </g>
     <g id="text_3">
      <!-- 50 -->
      <g transform="translate(233.275345 338.797656) scale(0.15 -0.15)">
       <use xlink:href="#DejaVuSans-35"/>
       <use xlink:href="#DejaVuSans-30" x="63.623047"/>
      </g>
     </g>
    </g>
    <g id="xtick_4">
     <g id="line2d_4">
      <g>
       <use xlink:href="#m207eb9a1a8" x="306.546825" y="320.4" style="stroke: #000000; stroke-width: 0.8"/>
      </g>
     </g>
     <g id="text_4">
      <!-- 75 -->
      <g transform="translate(297.003075 338.797656) scale(0.15 -0.15)">
       <defs>
        <path id="DejaVuSans-37" d="M 525 4666 
L 3525 4666 
L 3525 4397 
L 1831 0 
L 1172 0 
L 2766 4134 
L 525 4134 
L 525 4666 
z
" transform="scale(0.015625)"/>
       </defs>
       <use xlink:href="#DejaVuSans-37"/>
       <use xlink:href="#DejaVuSans-35" x="63.623047"/>
      </g>
     </g>
    </g>
    <g id="xtick_5">
     <g id="line2d_5">
      <g>
       <use xlink:href="#m207eb9a1a8" x="370.274555" y="320.4" style="stroke: #000000; stroke-width: 0.8"/>
      </g>
     </g>
     <g id="text_5">
      <!-- 100 -->
      <g transform="translate(355.95893 338.797656) scale(0.15 -0.15)">
       <defs>
        <path id="DejaVuSans-31" d="M 794 531 
L 1825 531 
L 1825 4091 
L 703 3866 
L 703 4441 
L 1819 4666 
L 2450 4666 
L 2450 531 
L 3481 531 
L 3481 0 
L 794 0 
L 794 531 
z
" transform="scale(0.015625)"/>
       </defs>
       <use xlink:href="#DejaVuSans-31"/>
       <use xlink:href="#DejaVuSans-30" x="63.623047"/>
       <use xlink:href="#DejaVuSans-30" x="127.246094"/>
      </g>
     </g>
    </g>
    <g id="xtick_6">
     <g id="line2d_6">
      <g>
       <use xlink:href="#m207eb9a1a8" x="434.002284" y="320.4" style="stroke: #000000; stroke-width: 0.8"/>
      </g>
     </g>
     <g id="text_6">
      <!-- 125 -->
      <g transform="translate(419.686659 338.797656) scale(0.15 -0.15)">
       <use xlink:href="#DejaVuSans-31"/>
       <use xlink:href="#DejaVuSans-32" x="63.623047"/>
       <use xlink:href="#DejaVuSans-35" x="127.246094"/>
      </g>
     </g>
    </g>
    <g id="xtick_7">
     <g id="line2d_7">
      <g>
       <use xlink:href="#m207eb9a1a8" x="497.730014" y="320.4" style="stroke: #000000; stroke-width: 0.8"/>
      </g>
     </g>
     <g id="text_7">
      <!-- 150 -->
      <g transform="translate(483.414389 338.797656) scale(0.15 -0.15)">
       <use xlink:href="#DejaVuSans-31"/>
       <use xlink:href="#DejaVuSans-35" x="63.623047"/>
       <use xlink:href="#DejaVuSans-30" x="127.246094"/>
      </g>
     </g>
    </g>
    <g id="xtick_8">
     <g id="line2d_8">
      <g>
       <use xlink:href="#m207eb9a1a8" x="561.457743" y="320.4" style="stroke: #000000; stroke-width: 0.8"/>
      </g>
     </g>
     <g id="text_8">
      <!-- 175 -->
      <g transform="translate(547.142118 338.797656) scale(0.15 -0.15)">
       <use xlink:href="#DejaVuSans-31"/>
       <use xlink:href="#DejaVuSans-37" x="63.623047"/>
       <use xlink:href="#DejaVuSans-35" x="127.246094"/>
      </g>
     </g>
    </g>
    <g id="xtick_9">
     <g id="line2d_9">
      <g>
       <use xlink:href="#m207eb9a1a8" x="625.185473" y="320.4" style="stroke: #000000; stroke-width: 0.8"/>
      </g>
     </g>
     <g id="text_9">
      <!-- 200 -->
      <g transform="translate(610.869848 338.797656) scale(0.15 -0.15)">
       <use xlink:href="#DejaVuSans-32"/>
       <use xlink:href="#DejaVuSans-30" x="63.623047"/>
       <use xlink:href="#DejaVuSans-30" x="127.246094"/>
      </g>
     </g>
    </g>
    <g id="text_10">
     <!-- Time(in sec) -->
     <g transform="translate(322.93125 357.314844) scale(0.15 -0.15)">
      <defs>
       <path id="DejaVuSans-54" d="M -19 4666 
L 3928 4666 
L 3928 4134 
L 2272 4134 
L 2272 0 
L 1638 0 
L 1638 4134 
L -19 4134 
L -19 4666 
z
" transform="scale(0.015625)"/>
       <path id="DejaVuSans-69" d="M 603 3500 
L 1178 3500 
L 1178 0 
L 603 0 
L 603 3500 
z
M 603 4863 
L 1178 4863 
L 1178 4134 
L 603 4134 
L 603 4863 
z
" transform="scale(0.015625)"/>
       <path id="DejaVuSans-6d" d="M 3328 2828 
Q 3544 3216 3844 3400 
Q 4144 3584 4550 3584 
Q 5097 3584 5394 3201 
Q 5691 2819 5691 2113 
L 5691 0 
L 5113 0 
L 5113 2094 
Q 5113 2597 4934 2840 
Q 4756 3084 4391 3084 
Q 3944 3084 3684 2787 
Q 3425 2491 3425 1978 
L 3425 0 
L 2847 0 
L 2847 2094 
Q 2847 2600 2669 2842 
Q 2491 3084 2119 3084 
Q 1678 3084 1418 2786 
Q 1159 2488 1159 1978 
L 1159 0 
L 581 0 
L 581 3500 
L 1159 3500 
L 1159 2956 
Q 1356 3278 1631 3431 
Q 1906 3584 2284 3584 
Q 2666 3584 2933 3390 
Q 3200 3197 3328 2828 
z
" transform="scale(0.015625)"/>
       <path id="DejaVuSans-65" d="M 3597 1894 
L 3597 1613 
L 953 1613 
Q 991 1019 1311 708 
Q 1631 397 2203 397 
Q 2534 397 2845 478 
Q 3156 559 3463 722 
L 3463 178 
Q 3153 47 2828 -22 
Q 2503 -91 2169 -91 
Q 1331 -91 842 396 
Q 353 884 353 1716 
Q 353 2575 817 3079 
Q 1281 3584 2069 3584 
Q 2775 3584 3186 3129 
Q 3597 2675 3597 1894 
z
M 3022 2063 
Q 3016 2534 2758 2815 
Q 2500 3097 2075 3097 
Q 1594 3097 1305 2825 
Q 1016 2553 972 2059 
L 3022 2063 
z
" transform="scale(0.015625)"/>
       <path id="DejaVuSans-28" d="M 1984 4856 
Q 1566 4138 1362 3434 
Q 1159 2731 1159 2009 
Q 1159 1288 1364 580 
Q 1569 -128 1984 -844 
L 1484 -844 
Q 1016 -109 783 600 
Q 550 1309 550 2009 
Q 550 2706 781 3412 
Q 1013 4119 1484 4856 
L 1984 4856 
z
" transform="scale(0.015625)"/>
       <path id="DejaVuSans-6e" d="M 3513 2113 
L 3513 0 
L 2938 0 
L 2938 2094 
Q 2938 2591 2744 2837 
Q 2550 3084 2163 3084 
Q 1697 3084 1428 2787 
Q 1159 2491 1159 1978 
L 1159 0 
L 581 0 
L 581 3500 
L 1159 3500 
L 1159 2956 
Q 1366 3272 1645 3428 
Q 1925 3584 2291 3584 
Q 2894 3584 3203 3211 
Q 3513 2838 3513 2113 
z
" transform="scale(0.015625)"/>
       <path id="DejaVuSans-20" transform="scale(0.015625)"/>
       <path id="DejaVuSans-73" d="M 2834 3397 
L 2834 2853 
Q 2591 2978 2328 3040 
Q 2066 3103 1784 3103 
Q 1356 3103 1142 2972 
Q 928 2841 928 2578 
Q 928 2378 1081 2264 
Q 1234 2150 1697 2047 
L 1894 2003 
Q 2506 1872 2764 1633 
Q 3022 1394 3022 966 
Q 3022 478 2636 193 
Q 2250 -91 1575 -91 
Q 1294 -91 989 -36 
Q 684 19 347 128 
L 347 722 
Q 666 556 975 473 
Q 1284 391 1588 391 
Q 1994 391 2212 530 
Q 2431 669 2431 922 
Q 2431 1156 2273 1281 
Q 2116 1406 1581 1522 
L 1381 1569 
Q 847 1681 609 1914 
Q 372 2147 372 2553 
Q 372 3047 722 3315 
Q 1072 3584 1716 3584 
Q 2034 3584 2315 3537 
Q 2597 3491 2834 3397 
z
" transform="scale(0.015625)"/>
       <path id="DejaVuSans-63" d="M 3122 3366 
L 3122 2828 
Q 2878 2963 2633 3030 
Q 2388 3097 2138 3097 
Q 1578 3097 1268 2742 
Q 959 2388 959 1747 
Q 959 1106 1268 751 
Q 1578 397 2138 397 
Q 2388 397 2633 464 
Q 2878 531 3122 666 
L 3122 134 
Q 2881 22 2623 -34 
Q 2366 -91 2075 -91 
Q 1284 -91 818 406 
Q 353 903 353 1747 
Q 353 2603 823 3093 
Q 1294 3584 2113 3584 
Q 2378 3584 2631 3529 
Q 2884 3475 3122 3366 
z
" transform="scale(0.015625)"/>
       <path id="DejaVuSans-29" d="M 513 4856 
L 1013 4856 
Q 1481 4119 1714 3412 
Q 1947 2706 1947 2009 
Q 1947 1309 1714 600 
Q 1481 -109 1013 -844 
L 513 -844 
Q 928 -128 1133 580 
Q 1338 1288 1338 2009 
Q 1338 2731 1133 3434 
Q 928 4138 513 4856 
z
" transform="scale(0.015625)"/>
      </defs>
      <use xlink:href="#DejaVuSans-54"/>
      <use xlink:href="#DejaVuSans-69" x="57.958984"/>
      <use xlink:href="#DejaVuSans-6d" x="85.742188"/>
      <use xlink:href="#DejaVuSans-65" x="183.154297"/>
      <use xlink:href="#DejaVuSans-28" x="244.677734"/>
      <use xlink:href="#DejaVuSans-69" x="283.691406"/>
      <use xlink:href="#DejaVuSans-6e" x="311.474609"/>
      <use xlink:href="#DejaVuSans-20" x="374.853516"/>
      <use xlink:href="#DejaVuSans-73" x="406.640625"/>
      <use xlink:href="#DejaVuSans-65" x="458.740234"/>
      <use xlink:href="#DejaVuSans-63" x="520.263672"/>
      <use xlink:href="#DejaVuSans-29" x="575.244141"/>
     </g>
    </g>
   </g>
   <g id="matplotlib.axis_2">
    <g id="ytick_1">
     <g id="line2d_10">
      <defs>
       <path id="m9430887ae4" d="M 0 0 
L -3.5 0 
" style="stroke: #000000; stroke-width: 0.8"/>
      </defs>
      <g>
       <use xlink:href="#m9430887ae4" x="90" y="309.446529" style="stroke: #000000; stroke-width: 0.8"/>
      </g>
     </g>
     <g id="text_11">
      <!-- 0.00 -->
      <g transform="translate(49.601562 315.145358) scale(0.15 -0.15)">
       <defs>
        <path id="DejaVuSans-2e" d="M 684 794 
L 1344 794 
L 1344 0 
L 684 0 
L 684 794 
z
" transform="scale(0.015625)"/>
       </defs>
       <use xlink:href="#DejaVuSans-30"/>
       <use xlink:href="#DejaVuSans-2e" x="63.623047"/>
       <use xlink:href="#DejaVuSans-30" x="95.410156"/>
       <use xlink:href="#DejaVuSans-30" x="159.033203"/>
      </g>
     </g>
    </g>
    <g id="ytick_2">
     <g id="line2d_11">
      <g>
       <use xlink:href="#m9430887ae4" x="90" y="263.444934" style="stroke: #000000; stroke-width: 0.8"/>
      </g>
     </g>
     <g id="text_12">
      <!-- 0.05 -->
      <g transform="translate(49.601562 269.143762) scale(0.15 -0.15)">
       <use xlink:href="#DejaVuSans-30"/>
       <use xlink:href="#DejaVuSans-2e" x="63.623047"/>
       <use xlink:href="#DejaVuSans-30" x="95.410156"/>
       <use xlink:href="#DejaVuSans-35" x="159.033203"/>
      </g>
     </g>
    </g>
    <g id="ytick_3">
     <g id="line2d_12">
      <g>
       <use xlink:href="#m9430887ae4" x="90" y="217.443339" style="stroke: #000000; stroke-width: 0.8"/>
      </g>
     </g>
     <g id="text_13">
      <!-- 0.10 -->
      <g transform="translate(49.601562 223.142167) scale(0.15 -0.15)">
       <use xlink:href="#DejaVuSans-30"/>
       <use xlink:href="#DejaVuSans-2e" x="63.623047"/>
       <use xlink:href="#DejaVuSans-31" x="95.410156"/>
       <use xlink:href="#DejaVuSans-30" x="159.033203"/>
      </g>
     </g>
    </g>
    <g id="ytick_4">
     <g id="line2d_13">
      <g>
       <use xlink:href="#m9430887ae4" x="90" y="171.441744" style="stroke: #000000; stroke-width: 0.8"/>
      </g>
     </g>
     <g id="text_14">
      <!-- 0.15 -->
      <g transform="translate(49.601562 177.140572) scale(0.15 -0.15)">
       <use xlink:href="#DejaVuSans-30"/>
       <use xlink:href="#DejaVuSans-2e" x="63.623047"/>
       <use xlink:href="#DejaVuSans-31" x="95.410156"/>
       <use xlink:href="#DejaVuSans-35" x="159.033203"/>
      </g>
     </g>
    </g>
    <g id="ytick_5">
     <g id="line2d_14">
      <g>
       <use xlink:href="#m9430887ae4" x="90" y="125.440149" style="stroke: #000000; stroke-width: 0.8"/>
      </g>
     </g>
     <g id="text_15">
      <!-- 0.20 -->
      <g transform="translate(49.601562 131.138977) scale(0.15 -0.15)">
       <use xlink:href="#DejaVuSans-30"/>
       <use xlink:href="#DejaVuSans-2e" x="63.623047"/>
       <use xlink:href="#DejaVuSans-32" x="95.410156"/>
       <use xlink:href="#DejaVuSans-30" x="159.033203"/>
      </g>
     </g>
    </g>
    <g id="ytick_6">
     <g id="line2d_15">
      <g>
       <use xlink:href="#m9430887ae4" x="90" y="79.438553" style="stroke: #000000; stroke-width: 0.8"/>
      </g>
     </g>
     <g id="text_16">
      <!-- 0.25 -->
      <g transform="translate(49.601562 85.137381) scale(0.15 -0.15)">
       <use xlink:href="#DejaVuSans-30"/>
       <use xlink:href="#DejaVuSans-2e" x="63.623047"/>
       <use xlink:href="#DejaVuSans-32" x="95.410156"/>
       <use xlink:href="#DejaVuSans-35" x="159.033203"/>
      </g>
     </g>
    </g>
    <g id="text_17">
     <!-- Error -->
     <g transform="translate(42.482031 200.077734) rotate(-90) scale(0.15 -0.15)">
      <defs>
       <path id="DejaVuSans-45" d="M 628 4666 
L 3578 4666 
L 3578 4134 
L 1259 4134 
L 1259 2753 
L 3481 2753 
L 3481 2222 
L 1259 2222 
L 1259 531 
L 3634 531 
L 3634 0 
L 628 0 
L 628 4666 
z
" transform="scale(0.015625)"/>
       <path id="DejaVuSans-72" d="M 2631 2963 
Q 2534 3019 2420 3045 
Q 2306 3072 2169 3072 
Q 1681 3072 1420 2755 
Q 1159 2438 1159 1844 
L 1159 0 
L 581 0 
L 581 3500 
L 1159 3500 
L 1159 2956 
Q 1341 3275 1631 3429 
Q 1922 3584 2338 3584 
Q 2397 3584 2469 3576 
Q 2541 3569 2628 3553 
L 2631 2963 
z
" transform="scale(0.015625)"/>
       <path id="DejaVuSans-6f" d="M 1959 3097 
Q 1497 3097 1228 2736 
Q 959 2375 959 1747 
Q 959 1119 1226 758 
Q 1494 397 1959 397 
Q 2419 397 2687 759 
Q 2956 1122 2956 1747 
Q 2956 2369 2687 2733 
Q 2419 3097 1959 3097 
z
M 1959 3584 
Q 2709 3584 3137 3096 
Q 3566 2609 3566 1747 
Q 3566 888 3137 398 
Q 2709 -91 1959 -91 
Q 1206 -91 779 398 
Q 353 888 353 1747 
Q 353 2609 779 3096 
Q 1206 3584 1959 3584 
z
" transform="scale(0.015625)"/>
      </defs>
      <use xlink:href="#DejaVuSans-45"/>
      <use xlink:href="#DejaVuSans-72" x="63.183594"/>
      <use xlink:href="#DejaVuSans-72" x="102.546875"/>
      <use xlink:href="#DejaVuSans-6f" x="141.410156"/>
      <use xlink:href="#DejaVuSans-72" x="202.591797"/>
     </g>
    </g>
   </g>
   <g id="line2d_16">
    <path d="M 115.363636 101.305355 
L 117.912746 154.838986 
L 120.461855 154.163856 
L 123.010964 162.262125 
L 125.560073 194.275683 
L 128.109182 204.094025 
L 130.658291 228.259882 
L 133.207401 245.921449 
L 135.75651 259.226195 
L 138.305619 275.975262 
L 140.854728 273.053215 
L 143.403837 285.587759 
L 145.952947 285.666552 
L 148.502056 293.652301 
L 151.051165 297.706814 
L 153.600274 293.703942 
L 156.149383 295.406338 
L 158.698492 300.416209 
L 161.247602 294.31391 
L 163.796711 301.27638 
L 166.34582 299.264549 
L 168.894929 302.655325 
L 171.444038 300.367775 
L 173.993148 305.64679 
L 176.542257 306.186099 
L 179.091366 301.998919 
L 181.640475 304.818746 
L 184.189584 302.700046 
L 186.738693 306.9531 
L 189.287803 302.864624 
L 191.836912 304.025113 
L 194.386021 302.981983 
L 196.93513 301.673919 
L 199.484239 304.095764 
L 202.033349 305.623836 
L 204.582458 304.873344 
L 207.131567 304.411019 
L 209.680676 305.035556 
L 212.229785 303.25573 
L 214.778894 299.813191 
L 217.328004 304.200835 
L 219.877113 303.814951 
L 222.426222 305.190459 
L 224.975331 301.181591 
L 227.52444 303.720117 
L 230.07355 302.475337 
L 232.622659 304.445308 
L 235.171768 302.11712 
L 237.720877 304.535312 
L 240.269986 303.697572 
L 242.819095 301.322351 
L 245.368205 296.749235 
L 247.917314 304.231448 
L 250.466423 304.327695 
L 253.015532 302.814549 
L 255.564641 303.60092 
L 258.113751 305.230818 
L 260.66286 304.011077 
L 263.211969 303.235148 
L 265.761078 305.059201 
L 268.310187 304.478967 
L 270.859296 302.376255 
L 273.408406 306.306122 
L 275.957515 304.885708 
L 278.506624 303.856686 
L 283.604842 303.271075 
L 286.153952 299.82027 
L 288.703061 303.666816 
L 291.25217 302.773779 
L 293.801279 302.982698 
L 296.350388 304.499219 
L 298.899497 303.121976 
L 301.448607 305.725424 
L 303.997716 303.79101 
L 306.546825 304.743157 
L 309.095934 303.907892 
L 311.645043 306.804574 
L 314.194153 307.290375 
L 316.743262 302.882759 
L 319.292371 303.524305 
L 321.84148 307.320058 
L 324.390589 301.274954 
L 326.939698 305.228808 
L 329.488808 306.167114 
L 332.037917 306.854241 
L 334.587026 304.289364 
L 337.136135 304.87666 
L 339.685244 305.031229 
L 342.234354 305.06253 
L 344.783463 307.425044 
L 347.332572 305.841327 
L 349.881681 303.609139 
L 352.43079 302.936466 
L 354.979899 305.032773 
L 357.529009 305.802554 
L 360.078118 307.8 
L 362.627227 302.688533 
L 365.176336 304.65671 
L 367.725445 303.5709 
L 370.274555 305.303549 
L 372.823664 302.897963 
L 375.372773 303.445462 
L 377.921882 306.146482 
L 380.470991 303.787194 
L 385.56921 305.492668 
L 388.118319 304.849759 
L 390.667428 304.465893 
L 393.216537 305.040597 
L 395.765646 305.869266 
L 398.314756 302.726084 
L 400.863865 303.114241 
L 403.412974 301.82735 
L 405.962083 305.320289 
L 408.511192 305.099682 
L 411.060302 305.940698 
L 413.609411 303.158578 
L 416.15852 303.866942 
L 418.707629 305.167812 
L 421.256738 306.081014 
L 423.805847 300.814526 
L 426.354957 302.960232 
L 428.904066 305.668494 
L 431.453175 304.362309 
L 434.002284 305.86385 
L 436.551393 304.928633 
L 439.100503 307.290455 
L 441.649612 304.900127 
L 444.198721 303.932468 
L 446.74783 304.445266 
L 449.296939 305.233693 
L 451.846048 303.323812 
L 454.395158 306.020272 
L 456.944267 306.970096 
L 459.493376 303.138231 
L 462.042485 303.545228 
L 464.591594 304.660543 
L 467.140704 305.116834 
L 469.689813 302.020625 
L 472.238922 304.478885 
L 474.788031 305.406661 
L 477.33714 302.85124 
L 479.886249 305.834647 
L 482.435359 304.291282 
L 484.984468 303.385352 
L 487.533577 304.860793 
L 490.082686 306.566635 
L 492.631795 305.457946 
L 495.180905 304.558817 
L 497.730014 305.993104 
L 500.279123 303.967925 
L 502.828232 303.487943 
L 505.377341 301.880764 
L 507.92645 303.806993 
L 510.47556 303.957762 
L 513.024669 305.384825 
L 515.573778 304.029384 
L 518.122887 303.676514 
L 520.671996 306.108707 
L 523.221106 306.22423 
L 525.770215 306.649314 
L 528.319324 304.862792 
L 530.868433 304.587239 
L 535.966651 305.442978 
L 538.515761 302.662312 
L 541.06487 303.172395 
L 543.613979 304.385338 
L 546.163088 306.620252 
L 548.712197 303.79041 
L 551.261307 305.291986 
L 553.810416 303.460818 
L 556.359525 301.904559 
L 558.908634 304.12893 
L 561.457743 303.175861 
L 564.006852 299.285147 
L 566.555962 302.298225 
L 569.105071 306.063453 
L 571.65418 305.858911 
L 574.203289 301.477155 
L 576.752398 299.465347 
L 579.301508 304.368743 
L 581.850617 303.590691 
L 584.399726 306.152422 
L 586.948835 301.4412 
L 589.497944 304.268026 
L 592.047053 304.717219 
L 594.596163 306.542954 
L 597.145272 303.25689 
L 599.694381 301.5786 
L 602.24349 304.309656 
L 604.792599 302.444593 
L 607.341709 305.373122 
L 612.439927 304.535918 
L 614.989036 306.75008 
L 617.538145 306.22833 
L 620.087254 304.376886 
L 622.636364 305.94021 
L 622.636364 305.94021 
" clip-path="url(#p59826fc015)" style="fill: none; stroke-dasharray: 5.55,2.4; stroke-dashoffset: 0; stroke: #1f77b4; stroke-width: 1.5"/>
   </g>
   <g id="line2d_17">
    <path d="M 115.363636 86.754083 
L 117.912746 154.416153 
L 120.461855 156.681028 
L 123.010964 166.623262 
L 125.560073 200.648748 
L 128.109182 208.978163 
L 130.658291 230.374429 
L 133.207401 247.281532 
L 135.75651 256.502289 
L 138.305619 266.249152 
L 140.854728 264.046067 
L 143.403837 282.839564 
L 145.952947 278.820957 
L 148.502056 291.056504 
L 151.051165 291.815279 
L 153.600274 296.267925 
L 156.149383 295.653512 
L 158.698492 299.018275 
L 161.247602 291.911215 
L 163.796711 296.647415 
L 166.34582 297.126744 
L 168.894929 301.652865 
L 171.444038 301.305176 
L 173.993148 305.096446 
L 179.091366 302.096139 
L 181.640475 303.880408 
L 184.189584 300.466582 
L 186.738693 305.549311 
L 189.287803 303.403262 
L 191.836912 302.540579 
L 194.386021 301.937237 
L 196.93513 301.915834 
L 199.484239 302.873611 
L 202.033349 304.116174 
L 204.582458 304.379507 
L 207.131567 303.364068 
L 209.680676 303.459053 
L 212.229785 302.14031 
L 214.778894 298.702711 
L 217.328004 303.767458 
L 219.877113 303.158202 
L 222.426222 304.45225 
L 224.975331 299.234995 
L 227.52444 302.741266 
L 230.07355 301.716758 
L 232.622659 303.403725 
L 235.171768 301.549075 
L 237.720877 303.390702 
L 240.269986 301.307552 
L 242.819095 299.739128 
L 245.368205 295.796662 
L 247.917314 302.910129 
L 250.466423 303.65096 
L 255.564641 302.619083 
L 258.113751 304.41153 
L 260.66286 302.78212 
L 263.211969 301.586472 
L 265.761078 304.037829 
L 268.310187 304.081435 
L 270.859296 300.222315 
L 273.408406 304.336135 
L 275.957515 303.130403 
L 278.506624 302.353302 
L 281.055733 303.232104 
L 283.604842 302.801247 
L 286.153952 298.786563 
L 288.703061 302.500572 
L 291.25217 301.727662 
L 293.801279 302.103423 
L 296.350388 303.220365 
L 298.899497 301.873813 
L 301.448607 304.324425 
L 303.997716 303.231441 
L 306.546825 304.280576 
L 309.095934 303.789847 
L 311.645043 306.112505 
L 314.194153 306.370594 
L 316.743262 302.415995 
L 319.292371 302.085695 
L 321.84148 306.985733 
L 324.390589 300.002153 
L 326.939698 303.822536 
L 329.488808 304.830048 
L 332.037917 306.488396 
L 334.587026 303.121367 
L 337.136135 304.496982 
L 339.685244 304.081517 
L 342.234354 304.141316 
L 344.783463 306.42125 
L 347.332572 305.118929 
L 349.881681 302.219294 
L 352.43079 302.556978 
L 354.979899 304.414713 
L 357.529009 304.897054 
L 360.078118 307.213238 
L 362.627227 301.023307 
L 365.176336 303.694717 
L 367.725445 302.177722 
L 370.274555 304.273764 
L 372.823664 301.326248 
L 377.921882 305.279984 
L 380.470991 302.247393 
L 383.020101 303.845878 
L 385.56921 304.264472 
L 388.118319 304.124617 
L 390.667428 304.545078 
L 393.216537 304.361589 
L 395.765646 305.654399 
L 398.314756 301.418297 
L 400.863865 301.660664 
L 403.412974 300.937306 
L 405.962083 304.568663 
L 408.511192 304.809322 
L 411.060302 305.231843 
L 413.609411 302.030097 
L 416.15852 302.719622 
L 421.256738 305.733339 
L 423.805847 300.687243 
L 426.354957 301.507745 
L 428.904066 304.777666 
L 431.453175 303.754068 
L 434.002284 305.031151 
L 436.551393 304.39404 
L 439.100503 305.952102 
L 441.649612 303.31032 
L 446.74783 303.78319 
L 449.296939 304.061557 
L 451.846048 302.625022 
L 454.395158 305.098711 
L 456.944267 306.578383 
L 459.493376 302.646038 
L 462.042485 302.324419 
L 464.591594 303.477482 
L 467.140704 304.069208 
L 469.689813 300.591292 
L 472.238922 304.017642 
L 474.788031 304.439452 
L 477.33714 302.49779 
L 479.886249 305.159035 
L 482.435359 302.830285 
L 484.984468 302.926748 
L 487.533577 304.058946 
L 490.082686 305.810556 
L 492.631795 303.759536 
L 495.180905 302.933897 
L 497.730014 304.403622 
L 500.279123 302.238037 
L 502.828232 301.234853 
L 505.377341 301.473614 
L 507.92645 302.706521 
L 510.47556 302.532148 
L 513.024669 304.830669 
L 515.573778 303.045332 
L 518.122887 302.948121 
L 520.671996 304.889778 
L 523.221106 305.058248 
L 525.770215 305.528327 
L 530.868433 303.232814 
L 533.417542 303.420282 
L 535.966651 304.999669 
L 538.515761 300.871183 
L 541.06487 301.971599 
L 543.613979 303.4732 
L 546.163088 305.292057 
L 548.712197 303.148234 
L 551.261307 304.66014 
L 553.810416 302.983524 
L 556.359525 300.628191 
L 558.908634 303.792848 
L 561.457743 301.786946 
L 564.006852 297.778161 
L 566.555962 301.883271 
L 569.105071 305.117438 
L 571.65418 304.870416 
L 574.203289 301.082899 
L 576.752398 298.908126 
L 579.301508 302.778163 
L 581.850617 301.924736 
L 584.399726 305.208921 
L 586.948835 300.266838 
L 589.497944 302.686442 
L 594.596163 305.336452 
L 597.145272 302.290025 
L 599.694381 300.207246 
L 602.24349 303.160634 
L 604.792599 302.073367 
L 607.341709 304.442155 
L 609.890818 304.416867 
L 612.439927 304.221438 
L 614.989036 305.577419 
L 617.538145 305.300194 
L 620.087254 303.864634 
L 622.636364 304.765417 
L 622.636364 304.765417 
" clip-path="url(#p59826fc015)" style="fill: none; stroke: #ff7f0e; stroke-width: 1.5; stroke-linecap: square"/>
   </g>
   <g id="line2d_18">
    <path d="M 115.363636 55.8 
L 117.912746 130.579359 
L 120.461855 140.451431 
L 123.010964 154.585349 
L 125.560073 191.154493 
L 128.109182 207.158046 
L 130.658291 231.469175 
L 133.207401 249.767088 
L 135.75651 264.00197 
L 138.305619 276.307362 
L 140.854728 272.347009 
L 143.403837 286.584318 
L 145.952947 284.178522 
L 148.502056 294.690971 
L 151.051165 296.486137 
L 153.600274 298.119702 
L 156.149383 297.628805 
L 158.698492 301.179231 
L 161.247602 293.412567 
L 163.796711 298.697747 
L 166.34582 298.247569 
L 168.894929 302.32751 
L 171.444038 301.481405 
L 173.993148 305.311808 
L 176.542257 304.019319 
L 179.091366 302.165738 
L 181.640475 304.178466 
L 184.189584 300.928495 
L 186.738693 305.63433 
L 189.287803 303.30642 
L 194.386021 302.188565 
L 196.93513 301.826608 
L 202.033349 304.2538 
L 204.582458 304.324487 
L 207.131567 303.454023 
L 209.680676 303.655772 
L 212.229785 302.233634 
L 214.778894 298.937627 
L 217.328004 303.913429 
L 219.877113 303.276032 
L 222.426222 304.543372 
L 224.975331 299.572485 
L 227.52444 302.711967 
L 230.07355 301.858674 
L 232.622659 303.50447 
L 235.171768 301.64001 
L 237.720877 303.416347 
L 240.269986 301.38118 
L 242.819095 299.868062 
L 245.368205 296.030207 
L 247.917314 302.962639 
L 250.466423 303.701005 
L 255.564641 302.651431 
L 258.113751 304.458081 
L 260.66286 302.841805 
L 263.211969 301.675322 
L 265.761078 304.16874 
L 268.310187 304.05248 
L 270.859296 300.346806 
L 273.408406 304.479702 
L 275.957515 303.234313 
L 278.506624 302.48365 
L 281.055733 303.364233 
L 283.604842 302.951093 
L 286.153952 298.94577 
L 288.703061 302.618443 
L 291.25217 301.896385 
L 293.801279 302.312756 
L 296.350388 303.229574 
L 298.899497 301.939595 
L 301.448607 304.312488 
L 303.997716 303.252484 
L 306.546825 304.272996 
L 309.095934 303.826441 
L 311.645043 306.157108 
L 314.194153 306.468847 
L 316.743262 302.496976 
L 319.292371 302.123067 
L 321.84148 306.986325 
L 324.390589 300.205514 
L 326.939698 303.986752 
L 329.488808 304.903984 
L 332.037917 306.544441 
L 334.587026 303.240187 
L 337.136135 304.538638 
L 339.685244 304.113205 
L 342.234354 304.236334 
L 344.783463 306.345999 
L 347.332572 305.1295 
L 349.881681 302.210681 
L 352.43079 302.602566 
L 354.979899 304.459923 
L 357.529009 304.943399 
L 360.078118 307.197342 
L 362.627227 301.211503 
L 365.176336 303.708233 
L 367.725445 302.328438 
L 370.274555 304.141571 
L 372.823664 301.506811 
L 375.372773 303.171954 
L 377.921882 305.303835 
L 380.470991 302.425297 
L 383.020101 303.967533 
L 385.56921 304.343656 
L 388.118319 304.16695 
L 390.667428 304.545586 
L 393.216537 304.380785 
L 395.765646 305.664692 
L 398.314756 301.628962 
L 400.863865 301.694678 
L 403.412974 301.036254 
L 405.962083 304.591589 
L 408.511192 304.789881 
L 411.060302 305.297887 
L 413.609411 302.228221 
L 416.15852 302.919114 
L 421.256738 305.710524 
L 423.805847 300.510398 
L 426.354957 301.749336 
L 428.904066 304.923527 
L 431.453175 303.785611 
L 434.002284 305.167681 
L 436.551393 304.468764 
L 439.100503 305.974494 
L 441.649612 303.391142 
L 449.296939 304.00822 
L 451.846048 302.6503 
L 454.395158 305.219574 
L 456.944267 306.603346 
L 459.493376 302.637156 
L 462.042485 302.446615 
L 464.591594 303.577143 
L 467.140704 304.141472 
L 469.689813 300.675257 
L 472.238922 304.000765 
L 474.788031 304.482185 
L 477.33714 302.486207 
L 479.886249 305.17916 
L 482.435359 303.065048 
L 484.984468 302.938812 
L 487.533577 304.081922 
L 490.082686 305.878539 
L 492.631795 303.848307 
L 495.180905 302.982883 
L 497.730014 304.520036 
L 500.279123 302.525883 
L 502.828232 301.359221 
L 505.377341 301.345027 
L 507.92645 302.782722 
L 510.47556 302.802141 
L 513.024669 304.847599 
L 515.573778 303.105639 
L 518.122887 303.002902 
L 520.671996 304.946332 
L 523.221106 305.181954 
L 525.770215 305.578491 
L 528.319324 304.37691 
L 530.868433 303.373006 
L 533.417542 303.562895 
L 535.966651 305.078214 
L 538.515761 301.035855 
L 541.06487 302.094276 
L 543.613979 303.612199 
L 546.163088 305.499119 
L 548.712197 303.108863 
L 551.261307 304.757099 
L 553.810416 302.959296 
L 556.359525 300.893934 
L 558.908634 303.800513 
L 561.457743 302.033431 
L 564.006852 298.1193 
L 566.555962 301.856954 
L 569.105071 305.214313 
L 571.65418 304.882683 
L 574.203289 301.123037 
L 576.752398 298.957141 
L 579.301508 302.903402 
L 581.850617 302.032345 
L 584.399726 305.195365 
L 586.948835 300.444815 
L 589.497944 302.653777 
L 592.047053 304.132391 
L 594.596163 305.330782 
L 597.145272 302.399828 
L 599.694381 300.390572 
L 602.24349 303.237696 
L 604.792599 301.994472 
L 607.341709 304.506959 
L 612.439927 304.204583 
L 614.989036 305.667183 
L 617.538145 305.399736 
L 620.087254 303.862226 
L 622.636364 304.83031 
L 622.636364 304.83031 
" clip-path="url(#p59826fc015)" style="fill: none; stroke: #2ca02c; stroke-width: 1.5; stroke-linecap: square"/>
   </g>
   <g id="patch_3">
    <path d="M 90 320.4 
L 90 43.2 
" style="fill: none; stroke: #000000; stroke-width: 0.8; stroke-linejoin: miter; stroke-linecap: square"/>
   </g>
   <g id="patch_4">
    <path d="M 648 320.4 
L 648 43.2 
" style="fill: none; stroke: #000000; stroke-width: 0.8; stroke-linejoin: miter; stroke-linecap: square"/>
   </g>
   <g id="patch_5">
    <path d="M 90 320.4 
L 648 320.4 
" style="fill: none; stroke: #000000; stroke-width: 0.8; stroke-linejoin: miter; stroke-linecap: square"/>
   </g>
   <g id="patch_6">
    <path d="M 90 43.2 
L 648 43.2 
" style="fill: none; stroke: #000000; stroke-width: 0.8; stroke-linejoin: miter; stroke-linecap: square"/>
   </g>
   <g id="legend_1">
    <g id="patch_7">
     <path d="M 518.983594 121.251562 
L 637.5 121.251562 
Q 640.5 121.251562 640.5 118.251562 
L 640.5 53.7 
Q 640.5 50.7 637.5 50.7 
L 518.983594 50.7 
Q 515.983594 50.7 515.983594 53.7 
L 515.983594 118.251562 
Q 515.983594 121.251562 518.983594 121.251562 
z
" style="fill: #ffffff; opacity: 0.8; stroke: #cccccc; stroke-linejoin: miter"/>
    </g>
    <g id="line2d_19">
     <path d="M 521.983594 62.847656 
L 536.983594 62.847656 
L 551.983594 62.847656 
" style="fill: none; stroke-dasharray: 5.55,2.4; stroke-dashoffset: 0; stroke: #1f77b4; stroke-width: 1.5"/>
    </g>
    <g id="text_18">
     <!-- JRN error -->
     <g transform="translate(563.983594 68.097656) scale(0.15 -0.15)">
      <defs>
       <path id="DejaVuSans-4a" d="M 628 4666 
L 1259 4666 
L 1259 325 
Q 1259 -519 939 -900 
Q 619 -1281 -91 -1281 
L -331 -1281 
L -331 -750 
L -134 -750 
Q 284 -750 456 -515 
Q 628 -281 628 325 
L 628 4666 
z
" transform="scale(0.015625)"/>
       <path id="DejaVuSans-52" d="M 2841 2188 
Q 3044 2119 3236 1894 
Q 3428 1669 3622 1275 
L 4263 0 
L 3584 0 
L 2988 1197 
Q 2756 1666 2539 1819 
Q 2322 1972 1947 1972 
L 1259 1972 
L 1259 0 
L 628 0 
L 628 4666 
L 2053 4666 
Q 2853 4666 3247 4331 
Q 3641 3997 3641 3322 
Q 3641 2881 3436 2590 
Q 3231 2300 2841 2188 
z
M 1259 4147 
L 1259 2491 
L 2053 2491 
Q 2509 2491 2742 2702 
Q 2975 2913 2975 3322 
Q 2975 3731 2742 3939 
Q 2509 4147 2053 4147 
L 1259 4147 
z
" transform="scale(0.015625)"/>
       <path id="DejaVuSans-4e" d="M 628 4666 
L 1478 4666 
L 3547 763 
L 3547 4666 
L 4159 4666 
L 4159 0 
L 3309 0 
L 1241 3903 
L 1241 0 
L 628 0 
L 628 4666 
z
" transform="scale(0.015625)"/>
      </defs>
      <use xlink:href="#DejaVuSans-4a"/>
      <use xlink:href="#DejaVuSans-52" x="29.492188"/>
      <use xlink:href="#DejaVuSans-4e" x="98.974609"/>
      <use xlink:href="#DejaVuSans-20" x="173.779297"/>
      <use xlink:href="#DejaVuSans-65" x="205.566406"/>
      <use xlink:href="#DejaVuSans-72" x="267.089844"/>
      <use xlink:href="#DejaVuSans-72" x="306.453125"/>
      <use xlink:href="#DejaVuSans-6f" x="345.316406"/>
      <use xlink:href="#DejaVuSans-72" x="406.498047"/>
     </g>
    </g>
    <g id="line2d_20">
     <path d="M 521.983594 84.864844 
L 536.983594 84.864844 
L 551.983594 84.864844 
" style="fill: none; stroke: #ff7f0e; stroke-width: 1.5; stroke-linecap: square"/>
    </g>
    <g id="text_19">
     <!-- EKF error -->
     <g transform="translate(563.983594 90.114844) scale(0.15 -0.15)">
      <defs>
       <path id="DejaVuSans-4b" d="M 628 4666 
L 1259 4666 
L 1259 2694 
L 3353 4666 
L 4166 4666 
L 1850 2491 
L 4331 0 
L 3500 0 
L 1259 2247 
L 1259 0 
L 628 0 
L 628 4666 
z
" transform="scale(0.015625)"/>
       <path id="DejaVuSans-46" d="M 628 4666 
L 3309 4666 
L 3309 4134 
L 1259 4134 
L 1259 2759 
L 3109 2759 
L 3109 2228 
L 1259 2228 
L 1259 0 
L 628 0 
L 628 4666 
z
" transform="scale(0.015625)"/>
      </defs>
      <use xlink:href="#DejaVuSans-45"/>
      <use xlink:href="#DejaVuSans-4b" x="63.183594"/>
      <use xlink:href="#DejaVuSans-46" x="128.759766"/>
      <use xlink:href="#DejaVuSans-20" x="186.279297"/>
      <use xlink:href="#DejaVuSans-65" x="218.066406"/>
      <use xlink:href="#DejaVuSans-72" x="279.589844"/>
      <use xlink:href="#DejaVuSans-72" x="318.953125"/>
      <use xlink:href="#DejaVuSans-6f" x="357.816406"/>
      <use xlink:href="#DejaVuSans-72" x="418.998047"/>
     </g>
    </g>
    <g id="line2d_21">
     <path d="M 521.983594 106.882031 
L 536.983594 106.882031 
L 551.983594 106.882031 
" style="fill: none; stroke: #2ca02c; stroke-width: 1.5; stroke-linecap: square"/>
    </g>
    <g id="text_20">
     <!-- UKF error -->
     <g transform="translate(563.983594 112.132031) scale(0.15 -0.15)">
      <defs>
       <path id="DejaVuSans-55" d="M 556 4666 
L 1191 4666 
L 1191 1831 
Q 1191 1081 1462 751 
Q 1734 422 2344 422 
Q 2950 422 3222 751 
Q 3494 1081 3494 1831 
L 3494 4666 
L 4128 4666 
L 4128 1753 
Q 4128 841 3676 375 
Q 3225 -91 2344 -91 
Q 1459 -91 1007 375 
Q 556 841 556 1753 
L 556 4666 
z
" transform="scale(0.015625)"/>
      </defs>
      <use xlink:href="#DejaVuSans-55"/>
      <use xlink:href="#DejaVuSans-4b" x="73.193359"/>
      <use xlink:href="#DejaVuSans-46" x="138.769531"/>
      <use xlink:href="#DejaVuSans-20" x="196.289062"/>
      <use xlink:href="#DejaVuSans-65" x="228.076172"/>
      <use xlink:href="#DejaVuSans-72" x="289.599609"/>
      <use xlink:href="#DejaVuSans-72" x="328.962891"/>
      <use xlink:href="#DejaVuSans-6f" x="367.826172"/>
      <use xlink:href="#DejaVuSans-72" x="429.007812"/>
     </g>
    </g>
   </g>
  </g>
 </g>
 <defs>
  <clipPath id="p59826fc015">
   <rect x="90" y="43.2" width="558" height="277.2"/>
  </clipPath>
 </defs>
</svg>
